<svg width="14" height="14" fill="none" xmlns="http://www.w3.org/2000/svg"><path d="M5.25 5.688a.875.875 0 00-.875-.875h-.438a1.75 1.75 0 00-1.75 1.75v1.312c0 .967.784 1.75 1.75 1.75h.438a.875.875 0 00.875-.875V5.687zm4.813 3.937a1.75 1.75 0 001.75-1.75V6.562a1.75 1.75 0 00-1.75-1.75h-.438a.875.875 0 00-.875.875V8.75c0 .483.392.875.875.875h.438zM7 0C3.095 0 .125 3.25 0 7v.438c0 .241.196.437.438.437h.437a.437.437 0 00.438-.438V7A5.694 5.694 0 017 1.312 5.694 5.694 0 0112.688 7h-.004c.002.066.004 4.531.004 4.531 0 .639-.518 1.156-1.157 1.156H8.75c0-.724-.588-1.312-1.313-1.312h-.875a1.312 1.312 0 100 2.625h4.97A2.469 2.469 0 0014 11.531V7c-.125-3.75-3.095-7-7-7z" fill="#000"/></svg>