<svg width="241" height="207" fill="none" xmlns="http://www.w3.org/2000/svg"><circle cx="89" cy="86" r="86" fill="url(#paint0_linear)"/><g clip-path="url(#clip0)"><path d="M31.1 115.097c.626.823 1.489 1.452 2.38 1.968l107.265 62.163a13.465 13.465 0 004.036 1.55c1.377.293 2.852.46 4.341.46 2.95.014 5.955-.6 8.39-2.01l51.038-29.581c1.447-.837 3.006-2.275 3.381-3.908a4.02 4.02 0 00.084-.824v7.636c0 2.094-1.614 3.783-3.465 4.858l-51.038 29.581a13.447 13.447 0 01-4.035 1.549c-4.146.894-9.072.573-12.718-1.549L33.466 124.827a10.48 10.48 0 01-1.35-.922c-1.155-.921-2.115-2.471-2.115-3.964v-7.734c.028 1.033.46 2.066 1.1 2.89z" fill="#596876"/><path d="M187.331 164.319c.334-.182.626-.21.848-.112.251.125.418.405.418.837v.545c0 .81-.571 1.787-1.266 2.192l-8.627 4.997c-.348.21-.668.224-.891.098-.236-.126-.375-.419-.375-.824v-.544c0-.81.57-1.787 1.266-2.178l8.627-5.011zm-19.175 10.972c1.197-1.229 2.352-.74 2.324.53-.055 1.899-1.92 3.756-2.95 3.113a1.018 1.018 0 01-.348-.376c-.166-.294-.18-.657-.139-1.006.056-.418.181-.823.362-1.2.098-.154.181-.307.264-.461.154-.223.307-.419.487-.6z" fill="#1C1A2A"/><path d="M33.187 114.622c.877 1.061 1.586 1.354 4.675 3.155.056.028 104.525 60.6 105.068 60.865 1.767.865 3.979 1.298 6.191 1.298l-.013 1.298a21.23 21.23 0 01-4.342-.46 13.46 13.46 0 01-4.035-1.55L33.465 117.065c-.89-.517-1.74-1.145-2.38-1.968-.625-.824-1.057-1.857-1.085-2.89a3.604 3.604 0 01.084-.949c.376-1.634 1.934-3.072 3.381-3.895l51.038-29.581c2.435-1.41 5.427-2.024 8.377-2.01l-.014 1.298c-1.086 0-2.213.112-3.298.335-2.212.475-3.284 1.145-4.926 2.136-1.67 1.005 3.785-2.234-19.16 11.07-3.729 2.164-7.458 4.37-11.187 6.533-3.729 2.164-7.486 4.286-11.215 6.478-1.558.907-3.103 1.842-4.661 2.722-1.823 1.033-3.52 1.94-4.397 2.638-1.92 1.55-2.435 3.714-.835 5.64z" fill="#717F90"/><path d="M58.915 135.924l.863-.488-9.42-5.458-.85.488 9.407 5.458z" fill="#403D54"/><path d="M59.778 136.622v-1.186l-.863.488v1.187l.863-.489z" fill="#2F2D3D"/><path d="M58.915 137.111v-1.187l-9.406-5.458v1.2l9.406 5.445z" fill="#585858"/><path d="M162.66 180.317c.181-.112.334-.363.334-.559 0-.209-.153-.279-.334-.181-.181.111-.334.363-.334.558 0 .209.153.293.334.182zm43.134-23.202c.278-.167.515-.558.515-.865v-2.457c0-.321-.237-.433-.515-.28-.278.168-.515.559-.515.866v2.457c0 .321.237.433.515.279zm-2.059 1.187c.278-.168.514-.559.514-.866v-2.457c0-.321-.236-.433-.514-.279-.279.167-.515.558-.515.865v2.457c0 .321.236.447.515.28zm-2.045 1.186c.278-.167.514-.558.514-.865v-2.457c0-.321-.236-.433-.514-.28-.279.168-.515.559-.515.866v2.457c0 .321.222.447.515.279zm-2.06 1.187c.278-.168.515-.559.515-.866v-2.457c0-.321-.237-.433-.515-.279-.278.167-.515.558-.515.865v2.457c0 .322.237.447.515.28zm-2.045 1.201c.278-.168.515-.559.515-.866v-2.457c0-.321-.237-.432-.515-.279-.278.168-.515.559-.515.866v2.457c0 .321.223.432.515.279zm-2.059 1.186c.278-.167.514-.558.514-.865v-2.457c0-.321-.236-.433-.514-.279-.279.167-.515.558-.515.865v2.457c0 .321.236.447.515.279z" fill="#1C1A2A"/><path d="M208.536 149.647l-51.052 29.581c-2.435 1.41-5.427 2.024-8.391 2.01l.014-1.298c1.962 0 3.938-.349 5.622-1.061.988-.419 1.725-.894 2.602-1.424 1.67-1.005-3.785 2.234 19.16-11.07 3.729-2.164 7.458-4.37 11.187-6.533 3.743-2.164 7.486-4.286 11.215-6.478 1.558-.907 3.103-1.842 4.661-2.722 3.089-1.745 4.55-2.429 5.496-3.811 1.253-1.801.961-4.188-2.128-6.017-.126-.07-107.391-62.26-107.879-62.498-1.697-.824-3.896-1.298-6.191-1.298l.013-1.299c1.475 0 2.95.168 4.342.461 1.447.307 2.797.824 4.035 1.55l107.252 62.163c.89.516 1.739 1.145 2.379 1.968.668.866 1.086 1.941 1.086 3.016 0 .279-.028.558-.084.823-.334 1.675-1.906 3.113-3.339 3.937z" fill="#717F90"/><path d="M101.048 79.499c-1.253-.726-1.934-1.131-1.976-1.145-1.698-.824-3.896-1.298-6.192-1.298a15.57 15.57 0 00-3.298.349c-2.212.474-3.284 1.144-4.925 2.135-1.545.936 3.06-1.8-14.778 8.53l-4.397 2.54c-3.729 2.165-7.458 4.37-11.187 6.534-1.03.586-2.045 1.186-3.075 1.773-2.713 1.563-5.44 3.113-8.14 4.704-1.558.922-3.103 1.843-4.661 2.722-1.823 1.033-3.52 1.941-4.397 2.639-1.934 1.563-2.449 3.741-.863 5.654.89 1.061 1.587 1.354 4.676 3.155l45.36 26.286c28.288 16.403 59.415 34.425 59.707 34.578 1.767.866 3.98 1.299 6.192 1.299 1.962 0 3.938-.349 5.621-1.061.988-.419 1.726-.894 2.602-1.424 1.67-1.005-3.784 2.233 19.16-11.07 3.729-2.164 7.459-4.37 11.188-6.533 3.743-2.164 7.486-4.286 11.215-6.464 1.544-.907 3.102-1.843 4.661-2.722 3.089-1.745 4.55-2.429 5.496-3.811 1.211-1.731.988-4.007-1.781-5.793-.111-.07-.223-.154-.348-.224-.069-.056-91.181-52.88-105.86-61.353z" fill="#717F90"/><path d="M207.285 141.078c2.755 1.8 2.978 4.062 1.781 5.793-.96 1.382-2.407 2.066-5.496 3.811-1.559.879-3.117 1.815-4.662 2.722-3.729 2.192-7.485 4.314-11.215 6.464-3.729 2.163-7.458 4.369-11.187 6.533-22.958 13.303-17.49 10.065-19.16 11.07-.876.53-1.614 1.005-2.602 1.424-3.59 1.507-8.501 1.382-11.813-.251-.501-.238-91.334-52.908-105.081-60.865-3.09-1.815-3.785-2.094-4.676-3.155-1.6-1.927-1.085-4.091.863-5.654 1.057-.852 1.976-1.187 9.058-5.361 2.115-1.242 40.074-23.173 41.563-24.066 1.641-.992 2.713-1.662 4.925-2.136 3.381-.726 7.013-.252 9.49.963.07.028-2.839-1.661 108.212 62.708z" fill="url(#paint1_linear)"/><path d="M67.68 92.104c.46-.28 1.211-.28 1.67 0l.626.363-11.368 6.589c-.459.265-1.21.265-1.683 0l-.612-.363 11.367-6.59z" fill="#090000"/><path d="M69.35 90.945l.78.447c.473.265.46.698 0 .963l-.167.098-.626-.363c-.46-.279-1.21-.279-1.67 0L56.3 98.68l-.167-.099c-.223-.125-.348-.307-.348-.474v-.014c0-.182.125-.35.348-.489l11.521-6.686c.487-.252 1.238-.252 1.698.027z" fill="#1A2738"/><path d="M81.052 84.831c.947.544 2.477.544 3.423 0 .947-.544.947-1.438 0-1.982-.946-.545-2.476-.545-3.423 0-.946.558-.946 1.438 0 1.982z" fill="#717F90"/><path opacity=".27" d="M79.299 104.515L56.034 118c-.751.433-1.976.433-2.741 0-.751-.433-.751-1.145 0-1.592l23.265-13.485c.751-.433 1.976-.433 2.741 0 .765.447.765 1.159 0 1.592zm-1.558 7.245l-16.238 9.409c-.752.432-1.976.432-2.741 0-.752-.433-.752-1.145 0-1.592L75 110.168c.751-.432 1.976-.432 2.741 0 .765.447.765 1.159 0 1.592zm5.468 3.169l-16.238 9.409c-.752.432-1.976.432-2.742 0-.75-.433-.75-1.145 0-1.592l16.239-9.409c.751-.432 1.975-.432 2.74 0 .766.447.766 1.159 0 1.592zm41.479-17.074l-23.265 13.486c-.752.432-1.976.432-2.741 0-.752-.433-.752-1.145 0-1.592l23.265-13.485c.751-.433 1.975-.433 2.741 0 .751.447.751 1.159 0 1.591zm-1.558 7.246l-16.238 9.409c-.752.432-1.976.432-2.742 0-.751-.433-.751-1.145 0-1.592l16.238-9.409c.752-.433 1.976-.433 2.742 0 .751.447.751 1.159 0 1.592zm5.467 3.169l-16.238 9.408c-.751.433-1.975.433-2.741 0-.751-.432-.751-1.144 0-1.591l16.238-9.409c.752-.433 1.976-.433 2.741 0 .752.447.752 1.159 0 1.592zm-13.552 18.888L91.78 140.643c-.751.433-1.976.433-2.74 0-.752-.432-.752-1.144 0-1.591l23.264-13.485c.751-.433 1.976-.433 2.741 0 .765.446.765 1.144 0 1.591zm-1.544 7.245l-16.238 9.409c-.752.433-1.976.433-2.742 0-.75-.433-.75-1.144 0-1.591l16.239-9.409c.751-.433 1.975-.433 2.741 0 .751.433.751 1.145 0 1.591zm5.468 3.169l-16.238 9.409c-.751.433-1.975.433-2.74 0-.752-.433-.752-1.145 0-1.591l16.237-9.409c.752-.433 1.976-.433 2.741 0 .752.447.752 1.145 0 1.591z" fill="#717F90"/><path opacity=".69" d="M102.953 125.105l-16.113 9.34c-1.405.809-3.687.809-5.106 0l-9.198-5.333c-1.405-.81-1.405-2.136 0-2.96l16.113-9.339c1.406-.809 3.688-.809 5.107 0l9.197 5.333c1.406.824 1.406 2.15 0 2.959z" fill="#FCFCFC"/><path opacity=".27" d="M162.674 120.666l-23.265 13.485c-.751.433-1.976.433-2.741 0-.751-.433-.751-1.145 0-1.591l23.265-13.485c.751-.433 1.976-.433 2.741 0 .765.446.765 1.158 0 1.591zm-1.558 7.245l-16.238 9.409c-.751.433-1.976.433-2.741 0-.752-.433-.752-1.145 0-1.591l16.238-9.409c.751-.433 1.976-.433 2.741 0 .765.446.765 1.158 0 1.591zm5.481 3.169l-16.238 9.409c-.751.433-1.975.433-2.741 0-.751-.433-.751-1.145 0-1.591l16.238-9.409c.752-.433 1.976-.433 2.741 0 .752.446.752 1.158 0 1.591z" fill="#717F90"/><path opacity=".69" d="M140.954 147.916l-16.113 9.339c-1.405.81-3.687.81-5.106 0l-9.198-5.333c-1.405-.809-1.405-2.135 0-2.959l16.113-9.339c1.406-.81 3.688-.81 5.107 0l9.197 5.333c1.406.809 1.406 2.135 0 2.959zm10.728-28.967l-16.113 9.339c-1.405.81-3.687.81-5.107 0l-9.197-5.332c-1.405-.81-1.405-2.136 0-2.96l16.113-9.339c1.405-.81 3.687-.81 5.106 0l9.198 5.333c1.405.823 1.405 2.15 0 2.959z" fill="#FCFCFC"/><path opacity=".27" d="M157.693 150.652l-23.265 13.486c-.752.432-1.976.432-2.741 0-.752-.433-.752-1.145 0-1.592l23.264-13.485c.752-.433 1.976-.433 2.742 0 .751.447.751 1.145 0 1.591zm-1.558 7.245l-16.239 9.409c-.751.433-1.975.433-2.741 0-.751-.432-.751-1.144 0-1.591l16.238-9.409c.752-.433 1.976-.433 2.742 0 .751.433.751 1.145 0 1.591zm5.467 3.169l-16.238 9.409c-.751.433-1.976.433-2.741 0-.751-.432-.751-1.144 0-1.591l16.238-9.409c.752-.433 1.976-.433 2.741 0 .752.433.752 1.145 0 1.591z" fill="#717F90"/><path opacity=".69" d="M194.316 142.444l-16.113 9.339c-1.406.81-3.688.81-5.107 0l-9.197-5.332c-1.406-.81-1.406-2.136 0-2.96l16.113-9.339c1.405-.809 3.687-.809 5.106 0l9.198 5.333c1.405.823 1.405 2.136 0 2.959zm-81.734-46.151l-16.113 9.339c-1.405.81-3.687.81-5.106 0l-9.198-5.333c-1.405-.81-1.405-2.135 0-2.96l16.113-9.338c1.405-.81 3.687-.81 5.107 0l9.197 5.332c1.406.824 1.406 2.15 0 2.96z" fill="#FCFCFC"/><path d="M173.513 154.645c-.584-1.034-2.184-1.745-3.367-1.969-1.545-.307-3.089-.028-4.188.614-.849.503-1.28 1.061-1.28 1.703v.726c0 .866.848 1.536 1.6 1.969 1.057.614 2.588.977 4.146.768 1.155-.154 2.616-.74 3.145-1.773.097-.196.153-.391.153-.587v-.726a1.68 1.68 0 00-.209-.725zm-3.492-2.876l6.261 3.629.765-.446v-.726l-1.558-.908 3.604.447.946-.544v-.726l-4.745-.545c.042-1.507.028-1.061.028-1.982l-.988.572c0 .908 0 .447.014 2.122l-3.562-2.066-.765.447v.726zm12.996 7.873c-4.522 3.001-11.494 3.504-16.809 2.108-2.56-.684-5.454-1.996-7.096-4.09-1.809-2.304-1.698-4.844-.014-6.966 4.146-5.263 16.113-6.533 23.251-2.429h.014c1.099.628 2.115 1.41 2.894 2.401 2.518 3.197 1.224 6.673-2.24 8.976z" fill="#C5BED1"/><path d="M154.618 153.304c.779.991 1.809 1.773 2.908 2.415 4.898 2.82 12.189 3.141 17.602 1.243 2.087-.726 4.271-1.927 5.635-3.658.793-1.005 1.308-2.164 1.308-3.476v3.755c0 3.044-2.714 5.291-5.482 6.561-5.218 2.388-12.621 2.388-17.839-.014-2.755-1.27-5.454-3.517-5.454-6.547v-3.741c.014 1.284.543 2.471 1.322 3.462z" fill="#D2448D"/><path d="M175.558 148.153v.726l-.946.559v-.726l.946-.559z" fill="#E8ACD5"/><path d="M174.613 148.711v.726l-3.604-.461-.223-.111v-.629l3.827.475zm-2.046 1.173v.726l-.765.446v-.726l.765-.446z" fill="#E8ACD5"/><path d="M171.803 150.331v.726l-6.262-3.63v-.726l6.262 3.63z" fill="#E8ACD5"/><path d="M172.568 149.884l-.766.446-6.261-3.629.765-.447 3.562 2.066c.014.014.014.168-.014-2.122l.988-.572-.055 1.982c.389.042-1.336-.153 4.758.545l-.946.544-3.812-.474-.028.614c.042.028.167.097 1.809 1.047z" fill="#FBFAFC"/><path d="M169.02 150.303c-.585-1.033-2.185-1.745-3.367-1.969-1.545-.307-3.089-.028-4.189.615-.848.502-1.28 1.061-1.28 1.703v.726c0 .865.849 1.535 1.6 1.968 1.058.614 2.588.977 4.147.768 1.155-.154 2.616-.74 3.144-1.773.098-.196.154-.391.154-.586v-.726a1.509 1.509 0 00-.209-.726zm-3.479-2.876l6.262 3.63.765-.447v-.726l-1.558-.907 3.603.446.947-.544v-.726l-4.745-.545c.042-1.507.028-1.06.028-1.982l-.988.573c0 .907 0 .446.014 2.121l-3.562-2.066-.766.447v.726zm12.996 7.873c-4.522 3.002-11.493 3.504-16.808 2.108-2.561-.684-5.455-1.996-7.097-4.09-1.809-2.303-1.697-4.844-.014-6.966 4.147-5.263 16.113-6.533 23.251-2.429h.014c1.1.628 2.115 1.41 2.895 2.401 2.518 3.197 1.224 6.673-2.241 8.976z" fill="#FF73B5"/><path d="M168.115 151.127c.028-.684-.668-1.215-1.266-1.55-1.698-.977-3.507-.893-4.662-.237-.584.335-.89.754-.904 1.228-.028.642.835 1.215 1.377 1.536 1.587.921 3.409.851 4.564.167.459-.251.863-.614.891-1.144zm1.099-.126c0 .726-.654 1.326-1.28 1.703-1.809 1.047-4.383.935-6.15-.098-.752-.432-1.6-1.089-1.6-1.968 0-.642.431-1.201 1.28-1.703 1.739-1.005 4.244-1.005 6.233.153.71.405 1.517 1.089 1.517 1.913z" fill="#FBFAFC"/><path d="M166.849 150.303c.654.377 1.043.754 1.196 1.145-.417 1.088-3.005 2.038-5.385.656-.709-.419-1.14-.81-1.307-1.173.431-1.117 2.991-2.08 5.496-.628z" fill="#FF73B5"/><path d="M168.101 151.015a1.07 1.07 0 01-.069.446c-.154-.391-.543-.768-1.197-1.144-2.491-1.452-5.065-.503-5.496.628a.677.677 0 01-.07-.363c.014-.475.32-.894.905-1.229 1.154-.67 2.963-.754 4.661.238.821.46 1.238.935 1.266 1.424z" fill="#E8ACD5"/><path d="M161.784 152.605c1.753 1.019 4.327 1.145 6.15.098.626-.363 1.28-.977 1.28-1.703v.726c0 .195-.055.391-.153.586-.515 1.033-1.99 1.62-3.144 1.773-1.545.209-3.076-.14-4.147-.768-.751-.432-1.6-1.089-1.6-1.968v-.726c.014.88.863 1.536 1.614 1.982z" fill="#E8ACD5"/><path d="M99.433 132.644c14.547 0 26.34-6.831 26.34-15.258s-11.793-15.258-26.34-15.258-26.34 6.831-26.34 15.258 11.793 15.258 26.34 15.258z" fill="#B0A7C2"/><path d="M115.101 108.312c8.655 5.012 8.655 13.15 0 18.162-8.655 5.011-22.708 5.011-31.363 0-8.655-5.012-8.655-13.15 0-18.162 8.669-5.025 22.708-5.025 31.363 0z" fill="#312E61"/><path d="M122.948 100.857c0 2.024-.487 5.654-1.141 9.451-1.113 6.505-5.774 11.852-12.064 13.778-4.745 1.452-9.698 2.067-13.413 2.067h-.223c-4.772-.028-9.907-2.737-13.636-6.617-2.852-2.988-4.884-6.659-5.218-10.345a39.869 39.869 0 01-.18-3.825c0-6.575 3.868-11.754 9.058-15.007a4.335 4.335 0 001.808 1.438c.724.321 1.573.475 2.519.475.793 0 1.503-.181 2.101-.475.89 3.42 4.62 5.473 8.154 5.473 4.953 0 6.971-3.337 7.778-8.139a4.45 4.45 0 001.795-1.06c1.28-1.243 2.324-2.933 3.172-4.817 6.888.419 9.49 10.721 9.49 17.603z" fill="#716DE1"/><path d="M118.273 54.455c1.28 2.22 2.226 4.328 2.226 6.868 0 2.346-.919 6.1-3.242 6.1-.167 0-.334-.013-.501-.055.306-1.033.389-2.15.389-3.267 0-1.507-.153-3.029-.153-4.425 0-1.675 1.336-2.722 1.336-4.383 0-.28-.028-.559-.055-.838z" fill="#283C48"/><path d="M115.601 62.357c-.042.056-.083.098-.125.153-.529.391-1.03.824-1.489 1.299-.598.39-1.336.767-2.254 1.13-.209.084-.529-.097-.529-.335 0-2.01 2.727-3.587 4.119-5.29.041-.056.083-.098.125-.154.028-.042.07-.084.097-.126.167-.237.529-.167.599.098.236.754.389 1.955-.543 3.225z" fill="#7F542E"/><path d="M115.602 62.356v.07c-.042.029-.084.057-.112.085.028-.042.07-.098.112-.155z" fill="#D49063"/><path d="M115.462 59.16c-.042.055-.083.097-.125.153-1.308-2.61-3.66-3.113-5.524-3.406a7.045 7.045 0 00-3.562.363c-1.712.642-3.562 1.047-4.926 2.331a7.081 7.081 0 00-.793.894c-.028.041-.07.097-.098.14-1.057 1.283-3.979.962-.292-7.888 1.406-3.35-.82-5.25-2.504-7.734a23.754 23.754 0 016.386-2.15c1.002-.042 2.06-.279 3.075-.279 2.895 0 4.147 2.457 5.594 4.844.223.558.404 1.005.612 1.256.181.224 1.74 1.215 3.075 2.82.891 1.075 1.684 2.401 1.907 3.937.041.28.055.544.055.838 0 1.66-1.336 2.708-1.336 4.383 0 1.396.154 2.918.154 4.425 0 1.131-.084 2.234-.39 3.267a6.55 6.55 0 01-.696 1.563c-.208-1.493-.542-2.052-.542-4.062 0-.824.055-1.633.083-2.457v-.07c.946-1.27.779-2.485.557-3.238a.333.333 0 00-.599-.098l-.111.167z" fill="#A26D42"/><path d="M109.813 55.907c1.865.293 4.216.796 5.524 3.406-1.391 1.703-4.118 3.295-4.118 5.291 0 .237.306.419.528.335.919-.363 1.656-.74 2.255-1.13-1.448 1.451-2.561 3.238-2.992 5.178-.056.28-.111.559-.139.838a6.58 6.58 0 00-.056.907c0 5.277 2.616 4.51 2.616 6.687 0 .712-.501 2.22-1.711 2.22-.905 0-1.907-.698-2.561-.698h-.014c-.556.014-.654.81-.125.963.849.265 1.753.684 1.753 1.62 0 .167-.027.334-.083.544-1.391.684-2.63.684-4.119.684a5.72 5.72 0 01-1.502-.21c1.21.852 3.033 1.494 4.744 1.494.112 0 .209 0 .306-.014-.695.265-1.6.74-2.727 1.857-.807.796-2.616 1.62-4.633 1.62-2.004 0-4.37-.587-6.373-1.41a16.38 16.38 0 01-1.113-.545c-.501-4.453-3.159-8.209-3.159-12.047 0-.573.056-1.16.181-1.773a2.88 2.88 0 011.642-2.025c2.978-1.312 4.216-6.952 6.484-10.093.042-.041.07-.097.098-.14.25-.334.514-.627.793-.893 1.363-1.284 3.214-1.689 4.925-2.33 1.155-.392 2.38-.531 3.576-.336zm1.837 19.516a1.165 1.165 0 00-.779-.28c-.71 0-1.406.545-1.406 1.285 0 .28.098.503.195.768.112-.796 1.266-1.564 1.99-1.773zm-5.274-7.971c0-.838-.528-1.424-1.655-1.424-5.274 0-9.073 3.867-9.99 4.9 2.532-1.243 7.555-2.164 7.569-2.164 1.182-.21 4.076.154 4.076-1.312zm-3.882 5.695c.084-.25-.194-.474-.417-.335-.111.07-.223.126-.334.196-.668.377-2.282.95-3.743 1.354-.543.154-1.058.28-1.489.363-.306.056-.417.433-.195.656.752.74 1.712 1.382 2.644 1.508.111.014.223.028.334.028 1.892 0 2.769-2.388 3.2-3.77z" fill="#E6A57A"/><path d="M114.697 66.628c.139-.126.362-.014.348.167-.139 1.48-.599 3.309-2.95 3.309h-.014a1.302 1.302 0 01-.445-.991c0-.14.028-.294.069-.461a12.352 12.352 0 002.992-2.024z" fill="#655FBF"/><path d="M113.987 63.808c.459-.46.96-.907 1.489-1.298-.348.433-.835.88-1.489 1.298z" fill="#7F542E"/><path d="M112.47 81.216c-.014.712-.57 1.2-1.238 1.298.209.042.431.056.64.084-.056 1.159-.64 1.019-1.781 1.452-.097 0-.209.014-.306.014-1.698 0-3.534-.642-4.745-1.494.529.14 1.03.21 1.503.21 1.489 0 2.727 0 4.118-.685.613-.335 1.225-.46 1.809-.88z" fill="#B25055"/><path d="M111.622 69.126c0 .391.167.726.445.992-.417 0-.835-.098-1.224-.28.028-.279.083-.558.139-.837.25-.098.473-.21.696-.321a2.596 2.596 0 00-.056.446z" fill="#F0DFBE"/><path d="M110.87 75.144c.278 0 .557.083.779.279-.723.195-1.878.963-1.989 1.773-.084-.266-.195-.503-.195-.768 0-.74.696-1.284 1.405-1.284z" fill="#F1BC98"/><path d="M77.281 68.261c-1.127.503-1.6 1.508-1.6 2.764 0 1.87 1.044 4.272 2.505 6.24.18.307.39.559.612.782 1.42 1.69 3.117 2.918 4.55 2.918 1.196 0 2.532-.838 2.532-2.904 0-4.397-5.287-9.856-8.195-9.856-.153 0-.293.014-.404.056zm33.965-26.65c-1.823-.865-3.757-1.395-6.261-1.395-13.302 0-21.804 14.979-22.347 22.978-.362 5.305 5.023 10.149 5.023 15.16 0 2.206-.904 4.328-3.172 4.328-.96 0-2.046-.35-3.117-.838-3.089-1.856-5.858-5.821-6.79-8.99-.209-.726-.32-1.41-.32-2.01 0-2.164 1.085-3.895 2.477-5.57a63.432 63.432 0 011.614-1.829c1.67-4.774 5.718-17.52 14.68-23.425 2.225-1.465 4.758-2.512 7.624-2.903a19.107 19.107 0 012.561-.168c1.377 0 2.518.321 3.631.782 1.28.81 2.853 2.094 4.397 3.88z" fill="#596876"/><path d="M107.586 89.327c.306-.028.612-.098.905-.181-.807 4.802-2.825 8.138-7.779 8.138-3.534 0-7.263-2.052-8.153-5.472.208-.112.417-.237.612-.363.849 2.764 3.91 4.467 7.013 4.467 3.311-.014 6.665-1.94 7.402-6.589z" fill="#9F3759"/><path d="M106.195 89.257c.459.098.932.126 1.391.07-.737 4.635-4.091 6.575-7.402 6.575-3.103 0-6.164-1.703-7.013-4.467 1.433-1.033 2.17-2.862 2.17-4.467 0-.475-.027-.95-.083-1.41.362.195.738.363 1.113.544 3.604 1.69 7.472 2.666 9.824 3.155z" fill="#C78154"/><path d="M104.706 66.027c1.127 0 1.656.587 1.656 1.424 0 1.466-2.894 1.103-4.077 1.313-.014 0-5.037.935-7.57 2.163.92-1.033 4.718-4.9 9.991-4.9z" fill="#7F542E"/><path d="M102.062 72.826c.223-.14.501.084.418.335-.431 1.382-1.308 3.77-3.187 3.77-.11 0-.222-.014-.333-.028-.627-.21-1.155-.81-1.155-1.746 0-.293.055-.572.18-.781 1.462-.405 3.076-.977 3.744-1.354.125-.07.236-.14.333-.196z" fill="#655FBF"/><path d="M95.259 85.571c.055.46.083.936.083 1.41 0 1.606-.723 3.42-2.17 4.467a3.31 3.31 0 01-.613.363c-.598.307-1.308.475-2.1.475-1.893 0-3.382-.614-4.328-1.913-.529-.712-.877-1.647-1.044-2.792-5.816-1.284-10.56-7.79-10.56-13.792 0-.307.013-.628.041-.935.932 3.169 3.701 7.133 6.79 8.99 1.086.656 2.213 1.047 3.312 1.047 2.825 0 4.954-1.424 4.954-4.886 0-3.616-2.519-7.05-3.813-10.247-.445-1.451-.682-2.805-.682-4.439 0-7.105 4.495-15.244 12.495-19.306 1.684 2.485 3.896 4.383 2.505 7.733-3.701 8.851-.766 9.172.292 7.888-2.268 3.14-3.506 8.78-6.484 10.093a2.88 2.88 0 00-1.642 2.024 8.62 8.62 0 00-.18 1.773c-.015 3.839 2.643 7.594 3.144 12.047z" fill="#C48B5E"/><path d="M96.372 86.116c2.004.838 4.369 1.41 6.373 1.41 2.017 0 3.826-.824 4.633-1.62 1.127-1.116 2.032-1.59 2.728-1.856 1.141-.433 1.711-.293 1.781-1.452-.209-.028-.432-.042-.64-.084.667-.097 1.21-.586 1.238-1.298-.571.419-1.197.545-1.795.88.056-.196.083-.377.083-.545 0-.95-.89-1.368-1.753-1.62-.529-.167-.431-.962.125-.962h.014c.654 0 1.656.698 2.561.698 1.21 0 1.711-1.522 1.711-2.22 0-2.178-2.616-1.41-2.616-6.687 0-.307.014-.614.056-.907a2.91 2.91 0 001.224.279h.014c2.352 0 2.811-1.829 2.95-3.309.014-.18-.209-.293-.348-.167a12.18 12.18 0 01-2.991 2.038c-.223.112-.46.224-.696.321.431-1.954 1.544-3.727 2.992-5.179.653-.433 1.14-.865 1.488-1.298.042-.028.084-.056.112-.084-.028.824-.084 1.633-.084 2.457 0 2.01.348 2.569.543 4.062.083.642.153 1.466.153 2.667 0 .837-.042 1.689-.098 2.526-.528 2.862-1.363 6.227-2.671 9.13-.849 1.885-1.892 3.574-3.173 4.816a4.488 4.488 0 01-1.781 1.061 4.66 4.66 0 01-2.295.112c-2.366-.517-6.234-1.494-9.838-3.169z" fill="#D49063"/><path d="M97.819 75.143c0 .935.529 1.536 1.155 1.745-.947-.126-1.893-.768-2.644-1.508-.223-.209-.111-.586.195-.656.431-.084.946-.21 1.489-.363-.14.21-.195.503-.195.782z" fill="#F0DFBE"/><path d="M95.843 36c1.071 0 2.838.419 4.786 1.117-2.88.39-5.398 1.438-7.625 2.903-1.67-.795-3.604-1.228-5.788-1.228-.46 0-.974.042-1.461.056C88.802 37.005 92.28 36 95.843 36z" fill="#A26D42"/><path d="M87.216 38.806c2.185 0 4.119.432 5.789 1.228-8.961 5.905-13.01 18.65-14.68 23.425-.556.614-1.1 1.214-1.614 1.828-.96-2.359-1.461-4.592-1.461-6.435 0-9.255 4.41-16.305 10.491-20.005.501-.013 1.002-.041 1.475-.041z" fill="#C48B5E"/><path d="M84.475 82.682c2.268 0 3.172-2.122 3.172-4.328 0-5.011-5.37-9.855-5.023-15.16.543-8.013 9.044-22.978 22.347-22.978 2.518 0 4.452.53 6.261 1.396 1.892 2.191 3.771 5.137 5.107 8.906-1.336-1.591-2.895-2.596-3.075-2.82-.209-.251-.39-.698-.613-1.256-1.447-2.401-2.699-4.844-5.593-4.844-1.016 0-2.073.237-3.075.279a23.75 23.75 0 00-6.387 2.15c-8.015 4.048-12.495 12.2-12.495 19.306 0 1.634.236 2.988.682 4.44 1.294 3.196 3.812 6.63 3.812 10.246 0 3.448-2.143 4.886-4.953 4.886-1.1 0-2.227-.39-3.312-1.047 1.113.475 2.185.824 3.145.824z" fill="#283C48"/><path d="M82.638 76.888c0 1.144-.668 2.108-1.85 2.108-.098 0-.195-.014-.335-.042-1.196-.782-2.49-2.164-3.089-3.504-.403-.922-.18-2.024.627-2.639a1.89 1.89 0 011.127-.376c1.252 0 3.52 2.61 3.52 4.453z" fill="#1A2738"/><path d="M78.797 78.047a16.793 16.793 0 01-.612-.782c-1.447-1.968-2.504-4.37-2.504-6.24 0-1.256.473-2.262 1.6-2.764a1.68 1.68 0 01.417-.056c2.894 0 8.196 5.458 8.196 9.856 0 2.066-1.336 2.903-2.533 2.903-1.447 0-3.13-1.228-4.564-2.917zm-1.433-2.583c.599 1.34 1.893 2.722 3.09 3.504.125.028.236.042.333.042 1.183 0 1.85-.95 1.85-2.108 0-1.857-2.267-4.453-3.52-4.453-.417 0-.806.14-1.127.39-.807.601-1.03 1.704-.626 2.625z" fill="#C95B68"/><path d="M122.948 100.857c0 2.024-.487 5.654-1.141 9.451-1.114 6.505-5.775 11.852-12.064 13.778-4.745 1.452-9.698 2.067-13.414 2.067h-.222c-4.773-.028-9.907-2.737-13.636-6.617.403.055.82.111 1.238.181 37.722 5.779 24.768-30.586 24.768-30.586a4.45 4.45 0 001.795-1.06c1.28-1.243 2.323-2.933 3.172-4.817 6.902.419 9.504 10.721 9.504 17.603z" fill="#655FBF"/><path d="M103.816 85.207c-.389.838-.974 1.06-1.558 1.145-.195.027-.362.055-.487.07-1.155.209-.042.111-3.075.348-1.044.07-.529.07-1.795.028-2.157-.111-1.336-.014-3.59-.39-.585-.07-1.169-.266-1.753-.433-.57-.182-1.17-.307-1.712-.573-4.285-1.633-8.307-5.276-10.296-9.45a.363.363 0 01.18-.503.28.28 0 01.153-.042c.126-.014.237.056.32.154 2.714 3.852 6.596 6.658 10.367 7.859.5.21 1.043.293 1.558.447.529.14 1.044.279 1.586.32 1.92.266 1.183.21 3.229.252 1.057.042.375.07 3.256-.181 1.558-.112 2.17-.852 3.422.209.307.265.265.586.195.74z" fill="#504A5E"/><path d="M103.816 85.208c-.389.838-.974 1.061-1.558 1.145-.195.028-.362.056-.487.07.209-.14.32-.321.32-.545 0-.754-.765-.907-1.503-.907-.515 0-.584.056-1.78.056-8.656 0-14.375-3.016-18.91-9.633.125-.014.236.056.32.154 2.713 3.853 6.595 6.659 10.366 7.86.5.209 1.043.293 1.558.446.529.14 1.044.28 1.586.321 1.92.265 1.183.21 3.229.251 1.057.042.375.07 3.255-.181 1.559-.112 2.171-.852 3.423.21.293.279.251.6.181.753z" fill="#383442"/><path d="M150.4 130.422c12.378-1.831 25.208-19.982 25.208-34.791.029-13.994-11.385-17.737-23.184-7.575-8.094 6.982-14.186 18.9-14.216 29.15-.015 8.428 4.373 14.372 12.192 13.216zm27.157-44.716c-1.46-3.661-4.017-6.344-7.767-7.315a1.885 1.885 0 00-.341-.074c-3.202-.734-6.545-.015-9.576 1.215-8.146 3.306-15.684 12.17-19.605 19.886-3.883 7.16-6.633 17.418-4.765 25.311.007.037.022.067.029.104.178.534.208.964.734 2.313 1.06 2.675 2.824 5.04 5.359 6.374.637.319 1.289.63 1.994.823 1.378.444 3.402.659 5.64.333 6.759-1.001 13.793-6.263 19.322-13.452.008-.008.008-.015.015-.023 6.056-7.871 10.288-18.062 10.332-27.482-.015-2.72-.355-5.478-1.371-8.013z" fill="#9F3759"/><path d="M143.026 128.902c2.276 1.053 4.825 1.075 7.294.482 12.066-2.906 23.925-20.301 23.925-34.539 0-4.425-1.223-9.168-4.818-11.68 4.573 2.119 6.196 7.389 6.182 12.473 0 14.809-12.83 32.96-25.208 34.791-2.601.378-5.218 0-7.375-1.527z" fill="#EBD863"/><path d="M169.16 104.829c-.756 2.602-1.89 5.085-3.291 7.382l-.593-.4c2.327-3.81 4.017-8.494 3.98-13-.059-6.945-4.573-10.303-10.636-7.79-.052-.341-.096-.667-.141-.956 8.687-3.81 13.957 3.565 10.681 14.764z" fill="#F3E187"/><path d="M163.342 77.376c-6.759.948-13.185 6.07-17.647 11.221-4.262 4.936-7.701 10.888-9.836 17.062-2.231 6.433-3.439 14.549-.889 20.872-1.623-2.12-2.483-4.803-2.854-7.486-1.467-10.747 4.877-26.78 16.328-36.118 4.107-3.343 9.673-6.248 14.898-5.551z" fill="#D69F98"/><path d="M160.548 108.105l-.904.519-4.107 9.094v1.171l3.899-2.253v2.483l1.104-.638v-2.483l1.216-.704v-1.171l-1.216.697v-6.715h.008zm-17.522.682l1.238.148c-.815 3.521-.993 8.034.927 11.073.674 1.075 1.63 2.009 2.757 2.557l.593-1.082c-1.031-.504-1.905-1.349-2.535-2.327-1.779-2.772-1.675-6.886-.964-10.125l10.503 1.26c.067.045.274.156.341.2 1.786 1.046 4.862-2.223 4.862-5.128-.141-.934-1.438-9.688-2.127-14.342 6.063-2.513 10.569.845 10.636 7.79.037 4.506-1.653 9.183-3.981 13l.593.4c1.401-2.298 2.535-4.781 3.291-7.382 3.291-11.266-2.045-18.552-10.68-14.764a101.3 101.3 0 00-.156-1.046l-.496-.288-.868.504c-.074.578-.148 1.148-.214 1.726-4.766 2.817-9.606 8.717-11.882 15.802l-2.008.616-.334 1.119.504.289zm26.394-25.623c3.594 2.513 4.817 7.256 4.817 11.681 0 14.238-11.859 31.634-23.925 34.539-2.461.593-5.018.571-7.293-.482-1.557-1.089-2.809-2.72-3.661-4.869-3.647-9.198 1.6-26.097 13.059-35.977 3.083-2.653 6.982-5.033 10.992-5.626 2.231-.326 4.262-.074 6.011.734zm-14.698 38.69v-1.223c-1.475.852-2.942 1.697-4.41 2.542.964-2.387 4.395-6.1 4.395-8.857 0-1.534-.971-2.32-2.801-1.267-1.698.978-2.765 2.631-2.921 4.691.378-.178.756-.348 1.134-.519a3.598 3.598 0 011.764-3.098c1.053-.608 1.69-.148 1.69.823 0 2.646-4.877 7.419-4.795 10.339 1.979-1.141 3.965-2.29 5.944-3.431z" fill="#CD7E8E"/><path d="M159.442 110.788v4.684l-2.816 1.624 2.816-6.308z" fill="#CD7E8E"/><path d="M159.443 110.787l-2.817 6.307 2.817-1.623v-4.684zm-3.899 6.937l4.106-9.094.904-.519v6.73l1.216-.696v1.171l-1.216.704v2.483l-1.104.637v-2.483l-3.899 2.253v-1.186h-.007z" fill="#F3E187"/><path d="M158.332 89.02c.103.696 2.297 15.579 2.416 16.335 0 2.009-1.549 4.41-3.224 5.122-1.468.615-2.468-.252-2.468-1.831.363-2.898 2.164-17.15 2.416-19.123l.86-.504z" fill="#BB426A"/><path d="M157.835 88.73l.497.29-.875.496-.489-.282.867-.503z" fill="#8C3155"/><path d="M156.611 92.05c-.489 3.877-.978 7.739-1.46 11.578l-9.413 2.876c2.127-6.463 6.545-11.837 10.873-14.453z" fill="#CD7E8E"/><path d="M157.457 89.515l-.497-.282c-.052.4-2.394 18.997-2.416 19.123 0 1 .408 1.601.837 1.845.186.104.126.082.245.097-.371-.349-.585-.927-.585-1.653.37-2.898 2.171-17.158 2.416-19.13z" fill="#8C3155"/><path d="M148.985 117.74c.156-2.06 1.223-3.713 2.92-4.692 1.823-1.052 2.802-.274 2.802 1.268 0 2.757-3.432 6.47-4.395 8.857a858.532 858.532 0 014.41-2.542v1.223l-5.945 3.431c-.081-2.92 4.796-7.693 4.796-10.339 0-.971-.638-1.431-1.69-.823a3.594 3.594 0 00-1.764 3.098c-.378.171-.756.349-1.134.519zm-.452 3.736l-.593 1.082c-1.126-.548-2.083-1.482-2.757-2.557-1.912-3.039-1.742-7.56-.927-11.073l.779.089c-.712 3.239-.816 7.352.963 10.124.63.986 1.512 1.838 2.535 2.335zm-2.802-14.972l-.867.267c2.276-7.086 7.116-12.993 11.881-15.802-.044.363-.089.726-.14 1.09-4.322 2.608-8.739 7.989-10.874 14.445z" fill="#F3E187"/><path d="M155.152 103.628c-.023.156-.037.304-.06.459l-11.74 3.58-.497-.289c.075-.022 2.409-.733 12.297-3.75z" fill="#8C3155"/><path d="M143.352 107.667l-.326 1.119-.497-.289.326-1.119.497.289z" fill="#8C3155"/><path d="M143.026 108.786l.326-1.119 11.741-3.58c-.178 1.43-.363 2.853-.541 4.269 0 1.001.407 1.601.837 1.846.245.133 1.579.259-12.363-1.416z" fill="#BB426A"/><path d="M172.466 79.48c-2.231-1.297-4.922-1.734-7.894-1.297-14.267 2.112-29.625 23.103-29.669 40.928-.015 5.544 1.608 11.436 6.389 14.238l-1.312-.756c-2.646-1.534-4.922-4.403-5.93-9.072-1.23-5.759-.126-12.311 1.802-17.863 2.142-6.174 5.573-12.125 9.842-17.054 4.462-5.159 10.896-10.273 17.648-11.229 2.631-.385 5.388-.06 7.76 1.312.074.052.363.207 1.364.793z" fill="#BB426A"/><path d="M134.97 126.529c.052.119.104.245.155.356-10.917-11.962 1.379-41.202 18.834-48.42 3.113-1.283 6.537-1.883 9.791-1.142-.134.015-.274.03-.408.052-5.225-.697-10.791 2.2-14.905 5.551-14.038 11.451-20.975 33.835-13.467 43.603z" fill="#D8B7AC"/></g><defs><linearGradient id="paint0_linear" x1="19.543" y1="33.519" x2="188.507" y2="64.913" gradientUnits="userSpaceOnUse"><stop stop-color="#FEB692"/><stop offset="1" stop-color="#EA5455"/></linearGradient><linearGradient id="paint1_linear" x1="32.232" y1="128.507" x2="209.764" y2="128.507" gradientUnits="userSpaceOnUse"><stop stop-color="#C4B8E9"/><stop offset=".417" stop-color="#B2CFDE"/><stop offset="1" stop-color="#FFCADE"/></linearGradient><clipPath id="clip0"><path fill="#fff" transform="translate(30 36)" d="M0 0h182v153H0z"/></clipPath></defs></svg>