<svg width="241" height="207" fill="none" xmlns="http://www.w3.org/2000/svg"><circle cx="92" cy="86" r="86" fill="url(#paint0_linear)"/><path d="M99.159 137.871c.535.22 1.147.354 1.759.421.354.038.707.038 1.061.028.086 0 .163-.009.249-.019.172-.009.344-.029.506-.057.106-.019.201-.029.297-.058.105-.019.201-.038.296-.057.125-.038.249-.067.364-.105.21-.067.42-.144.611-.239h.01l.019.009c.966-.564 2.046-.812 2.926-.487.067.028.134.048.201.086a.941.941 0 00.143.076c.277.144.535.373.736.679 2.065 2.945 4.14 5.899 6.215 8.844.583.842 1.176 1.673 1.759 2.515a1.669 1.669 0 00.564.526c.718.411 1.664.239 2.496-.249v1.272c-1.081.631-2.343.879-3.28.325-.038-.029-.076-.048-.124-.077a2.155 2.155 0 01-.612-.602 5118.006 5118.006 0 00-7.983-11.349c-.708-1.014-1.98-.899-3.06-.268-1.214.698-3.002.822-4.417.421a4.298 4.298 0 00-.813-.947v-.631c.038-.038.057-.057.077-.057z" fill="#688499"/><path d="M152.07 88.391c.125.077.268.144.411.191l1.349.775v11.282l-.134.077-14.964-8.644h-.009l-.124-.076V80.608l13.471 7.783z" fill="#F6C54C"/><path d="M154.317 64.746v12.87l-16.608-9.6v-12.87l16.608 9.6z" fill="#D5624E"/><path d="M138.598 80.61l-1.941-1.11v-9.408l15.413 8.901v9.36l-13.472-7.773v.03z" fill="#E0852F"/><path d="M136.657 67.74l1.052-.603v.88l16.617 9.6 14.131-8.156v-3.528l3.127 1.797c.545.316.841.736.841 1.186v.01c0 .42-.267.831-.841 1.166l-15.422 8.901c-1.129.66-2.955.66-4.083 0l-15.422-8.901c-.583-.335-.842-.756-.842-1.167v-.01c0-.43.306-.87.842-1.175z" fill="#EFA467"/><path d="M136.657 70.09v9.41c-.622-.364-.842-.823-.842-1.186v-9.39c0 .412.259.833.842 1.167z" fill="#F6C54C"/><path d="M83.105 94.94a3310.558 3310.558 0 01-9.868-5.688c-.258-.153-.497-.507-.497-1.11 0-.659.278-1.309.64-1.883.278-.449.622-.85 1.12-1.1.363-.19.822-.286 1.166-.095 3.28 1.893 6.55 3.786 9.829 5.68l-.01.01c-.057-.02-.114-.04-.181-.049-.526-.086-1.148.344-1.52.727-.603.621-1.081 1.578-1.081 2.457 0 .507.153.86.402 1.052z" fill="#717F90"/><path d="M122.927 151.821v1.262l-3.537-2.046v-1.271l3.537 2.055z" fill="#688499"/><path d="M116.081 113.996v5.785c-.009 0-.678-.392-1.376-.794-.737-.421-1.492-.861-1.501-.87-1.454-.842-2.907-1.673-4.351-2.515v-.009c-.602-.344-1.205-.689-1.797-1.033v-3.289a31.046 31.046 0 011.539-2.304c.851.487 1.702.975 2.543 1.472h.01c.029.536.248.861.487.995 1.482.841 2.964 1.701 4.446 2.562z" fill="#E06C00"/><path d="M138.12 140.988c-1.386.803-3.308 1.099-5.086.898-1.1-.124-2.152-.439-3.003-.927l-12.238-7.066a5.228 5.228 0 01-.64-.43 2.905 2.905 0 01-.957-1.319l-.009.009c-1.014.583-2.037 1.176-3.05 1.759-.536.316-1.061.622-1.597.928a923.7 923.7 0 01-4.245 2.447c.057.039.115.067.172.106.048.028.096.057.143.076.278.144.536.373.737.679 2.065 2.945 4.14 5.899 6.214 8.844.584.841 1.176 1.673 1.76 2.515a1.693 1.693 0 00.564.526c.717.411 1.663.239 2.495-.249l3.547 2.056 15.566-8.988c.029-.727.096-1.453.201-2.17l-.574.306z" fill="#A5B3BF"/><path d="M153.695 100.706l-18.281 10.565c-.727.421-1.931.392-2.668-.038l-12.238-7.056c-.746-.43-.794-1.128-.057-1.539l18.281-10.556h.009l14.954 8.624z" fill="#EA8071"/><path d="M118.529 102.438c2.697-1.559 5.403-3.127 8.108-4.685 3.987-2.295 7.974-4.6 11.961-6.903v1.147l.125.076-18.281 10.556c-.727.421-.689 1.109.057 1.539l12.238 7.057c.746.43 1.941.458 2.668.038l18.281-10.556.134.077 11.703-6.76c1.444.908 2.581 2.935 2.581 4.627l-29.984 17.316c-2.256 1.3-5.88 1.233-8.098-.038l-12.238-7.066c-.899-.516-1.712-1.339-1.712-2.371.01-1.607.889-3.155 2.457-4.054z" fill="#D5624E"/><path d="M117.793 108.872l12.238 7.066c2.208 1.272 5.832 1.338 8.098.038v13.749a38.254 38.254 0 00-1.147 2.104h.009s.029.009.067.038a.153.153 0 00.067.038c.01.01.029.019.048.029.239.134.66.382.966.554v8.491c-1.387.803-3.308 1.099-5.087.898-1.099-.124-2.151-.439-3.002-.927l-12.238-7.066a5.238 5.238 0 01-.641-.43 2.903 2.903 0 01-.956-1.319 1.817 1.817 0 01-.115-.622v-17.526c1.836 1.062 3.672 2.123 5.507 3.175l.01-.01a.806.806 0 00.229.105c.249.067.507.01.737-.095 1.405-.584 2.333-2.84 1.778-3.806a1.102 1.102 0 00-.344-.373h-.01c-2.648-1.529-5.287-3.05-7.926-4.57v-1.912c0 1.033.822 1.855 1.712 2.371z" fill="#E06C00"/><path d="M113.204 118.108c.009.009.765.449 1.501.87-1.693 3.69-2.553 7.171-2.371 11.205.057 1.31.334 2.544.812 3.72-.535.315-1.061.621-1.596.927-.086-.057-.182-.105-.268-.162-2.237-1.291-3.595-3.5-4.217-5.967v-7.572a26.998 26.998 0 011.798-5.526c1.444.831 2.897 1.663 4.341 2.505z" fill="#344E5D"/><path d="M137.48 94.31c.363 1.826 1.357 3.145 1.357 5.803 0 1.301-.229 2.63-.592 3.873-1.272-2.792-1.272-3.701-2.171-4.858.517-1.558.909-3.193 1.406-4.818z" fill="#716DE1"/><path d="M131.589 68.503c-.918 2.515-3.786 4.532-6.798 5.794 3.452-2.6 5.727-6.52 6.894-9.121.143.516.21 1.08.21 1.644 0 .574-.105 1.138-.306 1.683z" fill="#BE5A54"/><path d="M129.085 106.825c-.861.335-1.826.621-2.926.841-.029.048-.048.096-.076.134.086-.421.133-.841.133-1.243 0-2.304-1.969-3.891-3.442-4.207 1.205-.812 3.567-2.285 5.355-3.212 1.692-12.678 1.721-12.353 2.916-14.878.057-3.786 3.93-6.635 7.754-6.635.411 0 .822.076 1.205.2.277 1.406.449 3.29.449 5.938 0 2.39-.755 5.192-1.664 7.64-.449.784-.889 1.568-1.147 2.361l-.172.545c-.497 1.626-.88 3.26-1.406 4.82-1.061 3.193-2.686 6.051-6.979 7.696z" fill="#ACBED0"/><path d="M127.956 55.147c.421.277.909.507 1.406.927-6.024.727-11.015 5.44-11.646 6.99-.535-.21-1.032-.536-1.529-.813.401-1.415 2.944-5.804 8.423-7.362h.01c1.118 0 2.246.105 3.336.258z" fill="#DA926E"/><path d="M123.739 136.952c-.43 0-1.329.182-2.39-.191.211-1.119 1.559-1.033 1.626-1.348 0-.019.009-.039.009-.048 0-.373-.899-.602-.899-.947 0-.755 2.037-.038 2.037-2.084 0-2.897-.631-3.423-2.725-11.416a18.612 18.612 0 01-.115-1.645c0-6.597 8.634-6.195 8.634-10.813 0-.689-.249-1.339-.822-1.645 4.283-1.644 5.918-4.494 6.979-7.687.909 1.157.899 2.065 2.171 4.857a2.297 2.297 0 01-.067.249c.095.43.143.879.143 1.329 0 3.011-.602 5.87-2.438 7.763-2.887 1.941-7.63 4.389-10.192 5.517.449.88 1.272 2.696 1.272 4.57 0 .88-.163 1.76-.163 2.639 0 1.071.469 1.712.478 2.582v.009c0 .555-.248 1.062-.248 1.607 0 .698.726 1.816.784 3.7a5.929 5.929 0 01-.918 1.558 3.966 3.966 0 01-2.19 1.339 4.326 4.326 0 01-.966.105z" fill="#3A5589"/><path d="M123.224 108.775c-.498-1.845-1.674-3.346-3.653-3.375h-.038c-.65 0-1.147.191-1.472.373.009-.029.028-.038.028-.067.574-.583 1.52-1.797 2.649-2.667.21-.163.43-.316.659-.45.182-.115.364-.201.555-.277.124-.01.229-.029.315-.029.163 0 .335.019.517.058 1.472.315 3.442 1.902 3.442 4.206 0 .402-.048.823-.134 1.243 0 0 0 .01-.01.01-.43.669-1.233.784-2.055.784-.249 0-.497-.01-.736-.029-.02.077-.048.153-.067.22z" fill="#716DE1"/><path d="M121.387 102.599c.182-1.597.545-3.433.545-7.544 0-1.08-.659-4.742-1.003-7.075-.01-.096-.01-.191-.01-.297 0-3.069 1.654-6.654 1.817-12.104a15.182 15.182 0 002.055-1.29c3.002-1.263 5.88-3.28 6.798-5.795 4.743 2.907 6.894 5.507 8.385 9.198.01.038.02.096.029.134a3.924 3.924 0 00-1.205-.2c-3.824 0-7.706 2.848-7.754 6.635-1.195 2.524-1.224 2.19-2.916 14.877-1.797.927-4.149 2.4-5.354 3.212a2.045 2.045 0 00-.832-.028 3.68 3.68 0 00-.555.277z" fill="#716DE1"/><path d="M121.349 136.76c1.062.364 1.951.191 2.391.191-.125 2.687-.335 9.361-3.012 9.361-.335 0-.765-.277-.765-.775 0-.449 1.434-3.967 1.434-6.415 0-.918-.229-1.664-.344-2.467v-.009c.105.047.201.086.296.114z" fill="#DA926E"/><path d="M120.833 97.102c0-3.194-1.09-8.768-1.09-10.996 0-.191 0-.373.01-.545.42-4.541 1.692-6.11 1.845-9.446v-.01a12.43 12.43 0 001.147-.516c-.162 5.45-1.816 9.035-1.816 12.104 0 .096 0 .201.009.297.354 2.323 1.004 5.995 1.004 7.075 0 4.111-.363 5.947-.545 7.544a6.27 6.27 0 00-.659.449c-.115-.229-.22-.468-.335-.707.315-1.827.43-5.068.43-5.25z" fill="#E2AE4A"/><path d="M121.397 139.123c0 2.448-1.434 5.966-1.434 6.416 0 .497.43.774.765.774 2.677 0 2.887-6.683 3.012-9.36.353 0 .669-.039.965-.106v.01c.086 1.797.641 3.633.641 5.421 0 3.538-6.53 9.542-6.597 9.542-.029 0-.058 0-.086-.009-.402-.029-.689-.163-.89-.364a4.84 4.84 0 01-.095-.917c0-2.687 2.151-5.68 2.686-9.935-.076-.774-.248-1.482-.248-2.782 0-.545.038-1.08.124-1.616.277.201.555.354.813.459v.01c.115.793.344 1.539.344 2.457z" fill="#BE5A54"/><path d="M112.677 98.182c1.549 0 3.48.325 5.574.42.383.507.727 1.042 1.043 1.597-.392.077-.794.182-1.196.21-22.191 1.951-14.896 8.099-20.069 8.099-.334 0-.621-.115-.86-.297.707-8.041 11.234-10.03 15.508-10.03z" fill="#42609F"/><path d="M118.366 152.823a3.795 3.795 0 01-.583-1.367c.201.21.488.344.889.363.029.01.058.01.086.01.058 0 6.598-6.014 6.598-9.542 0-1.788-.555-3.624-.641-5.421v-.01c.947-.201 1.654-.707 2.19-1.338.038.573.114 1.147.114 1.73 0 .45-.105.908-.105 1.358 0 1.205.813 2.208.813 3.557 0 1.453-.564 2.007-1.061 2.629-1.119 4.092-2.592 8.251-6.961 8.251-.669 0-1.061-.048-1.339-.22z" fill="#8B3442"/><path d="M117.4 115.373c.431-.555.545-1.931 1.607-4.542-.354 1.473-.784 2.974-.784 3.567 0 .516.162.898.745.898.077 0 .144-.009.211-.019.545-.841 1.051-3.069 1.663-4.474-.401 2.151-.707 2.371-.707 3.059 0 .469.229.966.669.966.038 0 .067 0 .096-.01 1.166-1.376 1.157-2.639 1.702-4.446.162-.535.43-1.061.621-1.596.029-.067.048-.144.067-.211.239.01.488.029.736.029.813 0 1.616-.115 2.056-.784.009 0 .009-.01.009-.01a.6.6 0 00.077-.133c1.099-.23 2.065-.507 2.926-.842.583.297.822.947.822 1.645 0 4.627-8.634 4.216-8.634 10.813 0 .297.038.909.115 1.645 2.094 7.993 2.725 8.519 2.725 11.416 0 2.046-2.037 1.329-2.037 2.084 0 .354.899.574.899.947 0 .01-.01.029-.01.048-.057.315-1.415.229-1.625 1.348-.096-.029-.201-.077-.296-.115a4.71 4.71 0 01-.813-.459 5.448 5.448 0 01-.708-.602c-.516-2.18-.659-5.957-.688-7.056-.258-.899-.641-1.798-.861-2.649-.009-.057-2.371-9.991-2.371-10.058 0-.574.182-1.186.67-2.056-.01.182-.02.354-.02.526 0 .698.431 1.128.88 1.128.077-.009.172-.028.258-.057z" fill="#42609F"/><path d="M124.61 54.889c-5.479 1.567-8.013 5.956-8.424 7.362.507.277.994.602 1.53.812.631-1.558 5.631-6.272 11.645-6.989.421.363.842.87 1.234 1.673-5.326.727-8.204 7.095-11.713 7.095-.258 0-.525-.029-.755-.029-2.495 0-3.241-1.339-3.375-3.633v-.01c.019-.038.029-.076.048-.115.067-2.514 3.346-6.176 9.733-6.176.038.01.057.01.077.01z" fill="#BE5A54"/><path d="M118.262 98.603c-.077-.115-.173-.23-.268-.344-1.1-2.687-.842-5.565-1.224-8.376-.889-2.39-2.534-7.869-2.534-9.533 0-.401.029-.793.077-1.166.21-1.712.841-3.136 1.061-4.733h.01c.124.335.258.65.401.966a10.79 10.79 0 001.932 1.53 11.49 11.49 0 003.891-.842v.01c-.163 3.337-1.434 4.895-1.845 9.446-.01.172-.01.354-.01.545 0 2.228 1.09 7.812 1.09 10.996 0 .181-.115 3.423-.43 5.239a28.229 28.229 0 00-1.1-2.142 16.539 16.539 0 00-1.051-1.596z" fill="#716DE1"/><path d="M90.065 83.152c-.01-.01-.02-.01-.029-.02 1.912-1.998 7.267-2.629 9.753-3.346.602-.172 1.233-.526 1.864-.822 4.838-3.155 10.871-10.383 12.095-11.273.162 2.295.784 4.609 1.635 6.75h-.01c-.22 1.597-.841 3.022-1.061 4.733-3.021 1.473-4.79 4.877-9.925 7.515-5.545.536-7.304 2.19-10.928 2.19-.688 0-1.338-.096-1.922-.316-.028-.009-.038-.019-.067-.028a4.674 4.674 0 00.268-1.578c0-1.424-.602-2.868-1.673-3.805z" fill="#ACBED0"/><path d="M116.072 74.565c-1.262-2.428-2.017-5.469-2.017-8.184 0-.43.009-.736.038-.975.774 1.548 1.75 2.304 4.245 2.304 5.727 0 7.286-3.614 8.94-3.614.746 0 1.128.927 1.128 1.673 0 1.262-3.528 8.834-11.301 8.834-.335-.01-.689-.019-1.033-.038z" fill="#283C48"/><path d="M115.383 74.44c-.851-2.14-1.472-4.455-1.635-6.75a17.583 17.583 0 01-.038-1.214c0-1.826.315-3.633 1.061-5.297.134 2.295.88 3.634 3.375 3.634.23 0 .507.028.756.028 3.509 0 6.387-6.367 11.712-7.094.603 1.243 1.148 3.203 1.492 6.435a17.72 17.72 0 01-.411.975c-1.157 2.6-3.442 6.53-6.894 9.121-.641.488-1.329.918-2.056 1.291-.363.191-.755.364-1.147.516a11.496 11.496 0 01-3.891.842 10.783 10.783 0 01-1.932-1.53 17.676 17.676 0 01-.392-.956zm-1.319-8.06c0 2.716.755 5.747 2.017 8.185.344.029.698.038 1.052.038 7.773 0 11.301-7.572 11.301-8.834 0-.736-.382-1.673-1.128-1.673-1.654 0-3.213 3.614-8.94 3.614-2.505 0-3.47-.755-4.245-2.304-.048.23-.057.545-.057.975z" fill="#D3775A"/><path d="M106.587 130.478c-.086.039-.172.096-.258.144-.908.487-1.31.535-2.668.535-.86 0-1.816-.162-2.686-.42a8.283 8.283 0 01-1.272-.507c-.01 0-.01-.01-.01-.01-.315-.688-.621-1.386-.621-2.065 0-.421.096-.841.096-1.272 0-.564-.249-1.214-.46-1.893-.028-7.295-1.032-7.524-1.032-10.374 0-.631.048-1.271.048-1.902 0-1.674-.488-2.18-.583-3.997l.028-.516c.24.181.526.296.86.296 5.183 0-2.122-6.148 20.07-8.098.401-.029.803-.134 1.195-.211.402.689.755 1.416 1.099 2.142.115.23.22.469.335.708-1.119.87-2.065 2.074-2.648 2.667-.01.029-.019.039-.029.067a3.785 3.785 0 01-.277.488l-.01.009c-.382.278-.746.584-1.166.813-1.597.813-2.305 2.629-2.572 3.586-.641.239-1.444.306-2.285.306-1.253 0-2.611-.153-3.72-.153-.191 0-.382.009-.564.019h-.057c-.115 0-.23-.01-.354-.029.182 2.974 1.281 5.784 1.281 8.777v.058c-.009 2.552-.994 4.857-.994 7.285 0 .736-.392 1.912-.277 2.639-.153.316-.297.622-.469.908z" fill="#3A5589"/><path d="M83.918 90.141c-.21 0-.421.01-.612.038-.517.583-1.272 1.51-2.037 1.807-.115.02-.23.029-.344.029-.717 0-1.128-.43-1.128-1.1 0-.047 0-.095.01-.143.965-.45 1.978-1.023 2.189-2.027 0 0 1.874-.077 1.625-.401-1.673-2.17-3.585-1.932-4.379-1.712.029-.01.067-.038.115-.067.249-.182.67-.612.67-.89 0-.2-.24-.276-.44-.276-.182 0-.374.047-.526.076.143-.029.267-.076.372-.124.316-.163.46-.43.46-.574 0-.115-.077-.172-.192-.21a4.03 4.03 0 01.583-.077c1.444 0 3.72.536 5.326.536h.057c1.1-.593 2.305-1.77 3.385-2.314.363.115.698.277 1.033.44 1.07.937 1.673 2.38 1.673 3.805 0 .536-.086 1.07-.268 1.578.029.01.038.019.067.028-.908.44-1.98.66-3.04.66a6.688 6.688 0 01-2.018-.296c-.813.774-1.214 1.204-2.371 1.204-.076.01-.143.01-.21.01z" fill="#716DE1"/><path d="M75.57 91.145c.038-.621 1.157-2.323 1.779-3.241.64-.46 1.453-1.014 1.893-1.272.793-.23 2.705-.459 4.379 1.712.248.334-1.626.401-1.626.401a2.238 2.238 0 00-1.386-.478c-.602 0-1.224.23-1.865.545-.64 1.08-1.53 2.926-2.648 3.127-.306-.134-.535-.43-.535-.756 0-.01 0-.028.01-.038z" fill="#A5A5E5"/><path d="M79.424 85.34c-2.429.45-4.37 2.582-5.307 3.835-.277-.029-.555-.297-.555-.756 0-.363.173-.774.44-1.032.918-1.52 4.217-2.543 5.68-2.83.114.038.19.105.19.21.01.153-.133.411-.448.574z" fill="#8A8ACE"/><path d="M74.108 89.175c.937-1.253 2.887-3.385 5.306-3.834a1.07 1.07 0 01-.373.124c.153-.029.354-.076.526-.076.201 0 .44.076.44.277 0 .277-.42.707-.67.89-.038.028-.076.056-.114.066a34.78 34.78 0 00-1.893 1.272c.02-.029.029-.048.048-.077-2.314 1.454-2.075 2.82-2.907 2.82-.239 0-.574-.267-.574-.726.02-.22.106-.487.21-.736z" fill="#9A9AD8"/><path d="M121.599 117.171c-1.836-1.061-3.672-2.123-5.508-3.174-1.482-.861-2.964-1.712-4.455-2.572-.249-.144-.469-.459-.488-.995-.009-.038-.009-.076-.009-.115 0-.659.277-1.309.631-1.883.287-.449.621-.851 1.118-1.1.019-.009.029-.019.048-.028.354-.163.794-.258 1.119-.067l2.036 1.176c2.639 1.52 5.278 3.04 7.927 4.57-1.014-.602-2.859 1.205-2.907 3.079-.01.258.029.516.153.726.086.144.21.278.354.364l-.019.019z" fill="#717F90"/><path d="M160.407 127.027c-3.786 2.19-7.898 6.416-10.737 12.134-.058-.029-4.57-2.639-4.618-2.668 3.394-6.664 8.203-11.531 12.563-14.045 3.27-1.894 7.181-2.974 10.498-1.654h.01c.354.143.707.305 1.042.506.01 0 .01.01.01.01.095.057.181.105.267.162 5.173 3.175 6.426 9.82 5.402 16.025 0 .038-.009.067-.009.105-.057.402-.497.631-.947.746 1.798-11.015-4.866-16.292-13.481-11.321z" fill="#E06C00"/><path d="M169.729 128.032c1.941 1.406 3.117 4.035 3.127 7.601h-.01c-.669-.382-1.329-.765-1.998-1.147.105-2.247-.201-4.494-1.119-6.454z" fill="#C44600"/><path d="M171.575 70.09c.574-.334.842-.755.842-1.166v9.389c0 .497-.383.908-.842 1.186V70.09z" fill="#F6C54C"/><path d="M171.575 70.092V79.5l-2.515 1.444v.01l-12.908 7.438v-9.399l15.423-8.901z" fill="#E0852F"/><path d="M165.532 94.033l-11.703 6.759V89.367l.908-.526a3.527 3.527 0 001.406-.45l12.908-7.448v11.044l-3.519 2.046z" fill="#F6C54C"/><path d="M168.448 65.932v3.528l-14.132 8.156v-12.87l14.132-8.155v9.341z" fill="#D5624E"/><path d="M168.448 56.59l-14.131 8.157-16.608-9.6 14.122-8.146 16.617 9.59zm-.335 64.1v.105c-3.327-1.319-7.228-.239-10.498 1.654-4.36 2.515-9.159 7.381-12.563 14.045-1.454-.841-2.907-1.673-4.36-2.514l-2.218-1.281c3.394-6.664 8.203-11.531 12.563-14.046 3.566-2.065 7.974-3.203 11.56-1.147 1.835 1.061 3.681 2.123 5.516 3.184z" fill="#EA8071"/><path d="M168.114 98.65v22.039c-1.836-1.061-3.681-2.123-5.517-3.184-3.404-1.97-8.223-2.189-13.606.918-4.427 2.553-8.203 6.779-10.871 11.301v-13.758l29.994-17.316z" fill="#E06C00"/><path d="M159.355 139.067c.019-.01.029 0 .048.009.009.01.029.01.038.02.297.172.545.42.717.717.153.267.258.612.258.975 0 .975-.717 1.797-1.673 1.931a1.952 1.952 0 01-1.185-.21l.009-.01a.906.906 0 01-.334-.296c-.345-.526-.058-2.065 1.07-2.888.268-.2.574-.353.88-.296.057 0 .115.019.172.048z" fill="#B74496"/><path d="M162.387 135.776c0 5.221-4.475 10.996-8.27 11.675-1.97.353-3.385-.536-3.997-2.295.23-5.039 3.786-11.11 7.965-13.787h.009c2.314-.45 4.293.975 4.293 4.407zm-5.402 1.894a.893.893 0 00-.344-.077c-.583 0-1.731.918-1.932 2.323-.038.316-.038.651.134.899a.832.832 0 00.249.239l-.01.029c.756.43 1.511.87 2.276 1.31a.622.622 0 00.134.076c.019.01.038.029.057.038.354.192.775.268 1.186.211a1.948 1.948 0 001.673-1.932c0-.363-.105-.707-.258-.975a1.987 1.987 0 00-.717-.717c-.01-.009-.029-.009-.039-.019-.755-.43-1.51-.88-2.275-1.319-.029-.039-.077-.058-.134-.086z" fill="#A4B5BC"/><path d="M150.129 145.166c.602 1.75 2.027 2.648 3.997 2.295 3.786-.679 8.27-6.445 8.27-11.675 0-3.432-1.979-4.857-4.293-4.407.143-.096.277-.182.43-.268 1.138-.66 2.907-1.339 4.054-.707.01 0 .019.009.029.009.937.555 1.597 1.578 1.95 2.649.507 1.51.402 3.097.096 4.637a17.812 17.812 0 01-5.775 9.991c-1.176 1.033-2.495 1.912-4.063 2.228-1.1.229-2.305.162-3.261-.363-.029-.01-.048-.029-.076-.048-1.205-.775-1.425-2.907-1.358-4.331v-.01z" fill="#344E5D"/><path d="M157.357 142.393c-.755-.439-1.511-.879-2.276-1.309l.01-.029a.845.845 0 01-.249-.239c-.181-.249-.181-.583-.133-.899.191-1.405 1.338-2.323 1.931-2.323.115 0 .229.028.344.076.058.029.105.048.144.086.755.44 1.51.88 2.275 1.32-.019-.01-.029-.019-.038-.019l-.01.009c-.057-.029-.114-.038-.172-.057-.306-.058-.621.105-.879.296-1.129.822-1.415 2.362-1.071 2.888a.778.778 0 00.334.296l-.009.01c-.019-.01-.038-.029-.058-.039-.057-.009-.095-.038-.143-.067z" fill="#B74496"/><path d="M152.069 78.993c1.129.66 2.945.66 4.083 0v9.408c-.402.23-.899.383-1.406.45-.764.095-1.587.019-2.256-.249l-.411-.239v-9.37h-.01z" fill="#F49C53"/><path d="M153.83 89.366l-1.349-.774c.67.267 1.492.354 2.257.248l-.908.526z" fill="#FFC147"/><path d="M149.67 139.161c2.84-5.718 6.951-9.944 10.737-12.134 8.605-4.971 15.279.306 13.481 11.321l-1.29.344c.172-1.08.248-2.103.248-3.06-.009-3.566-1.185-6.195-3.126-7.601-1.501-1.08-3.461-1.434-5.68-.937-1.147.258-2.371.737-3.633 1.473-3.442 1.988-7.209 5.87-9.781 11.148-.191-.115-.373-.22-.564-.325-.134-.086-.258-.153-.392-.229z" fill="#E06C00"/><path d="M158.084 131.368c-4.178 2.678-7.725 8.749-7.964 13.788v.009c-.067 1.425.153 3.547 1.357 4.331.029.02.048.039.077.048.946.536 2.161.593 3.26.364 1.568-.316 2.888-1.196 4.064-2.228a17.82 17.82 0 005.775-9.992c.306-1.539.411-3.126-.096-4.637-.363-1.061-1.013-2.084-1.95-2.648-.01-.01-.019-.01-.029-.01-1.147-.64-2.916.048-4.054.708-.153.095-.287.181-.44.267zm-9.609 18.683c-.746-3.433.191-7.458 1.578-10.67.191.105.373.21.564.325 2.581-5.278 6.349-9.16 9.781-11.149 1.272-.736 2.486-1.214 3.633-1.472 1.128.01 2.314.354 3.242 1.013.984.708 1.673 1.779 2.113 2.926 2.629 6.98-3.347 19.715-11.531 23.349-1.501.669-3.175 1.08-4.752.755a5.722 5.722 0 01-3.117-1.807c-.784-.908-1.253-2.075-1.511-3.27z" fill="#516C7A"/><path d="M150.062 139.39c-1.387 3.213-2.324 7.238-1.578 10.671.258 1.195.727 2.361 1.52 3.279a5.73 5.73 0 003.117 1.807c1.578.325 3.251-.086 4.752-.755 8.185-3.633 14.16-16.369 11.531-23.349-.43-1.147-1.128-2.218-2.113-2.925-.927-.67-2.113-1.014-3.241-1.014 2.218-.507 4.178-.143 5.679.937l-.01.01c.928 1.96 1.234 4.197 1.129 6.444a21.413 21.413 0 01-.708 4.522c-1.319 5.03-4.331 10.126-8.337 13.683-3.041 2.696-7.114 4.809-11.129 4.13a8.132 8.132 0 01-2.754-.985c-1.606-.927-3.213-1.845-4.809-2.773-3.146-1.816-4.485-5.325-4.618-8.958a9.117 9.117 0 01-.02-.89c0-.124.01-.248.01-.382.029-.727.096-1.453.201-2.17.344-2.305 1.061-4.609 1.998-6.684 1.453.842 2.907 1.673 4.36 2.515.038.029 4.561 2.629 4.618 2.667.144.067.268.134.402.22z" fill="#344E5D"/><path d="M140.692 133.979c-.927 2.075-1.654 4.37-1.998 6.684l-.574.334v-8.49a159.606 159.606 0 012.572 1.472zm8.299-15.555c5.392-3.108 10.202-2.888 13.605-.918-3.585-2.056-7.993-.918-11.559 1.147-4.36 2.515-9.16 7.381-12.563 14.046-.02-.01-.163-.096-.354-.201-.297-.182-.727-.421-.966-.555-.019-.009-.038-.029-.048-.029-.028-.019-.047-.028-.067-.038a.28.28 0 00-.067-.038h-.009c.354-.708.746-1.405 1.147-2.103 2.677-4.532 6.454-8.759 10.881-11.311z" fill="#E06C00"/><path d="M138.493 144.105l-15.556 8.987v-1.271l15.565-8.988c-.009.124-.009.249-.009.382-.01.297 0 .593.019.89h-.019z" fill="#688499"/><path d="M124.362 113.365c.554.966-.383 3.212-1.779 3.805-.229.105-.497.163-.736.096a.69.69 0 01-.229-.105.99.99 0 01-.354-.364c-.125-.21-.163-.468-.153-.726.048-1.874 1.902-3.681 2.906-3.079h.01c.115.086.229.201.335.373z" fill="#596876"/><path d="M116.206 132.144l-.01.009c-1.014.583-2.037 1.176-3.05 1.759a11.31 11.31 0 01-.813-3.719c-.181-4.035.689-7.515 2.371-11.206.698.402 1.368.794 1.377.794v11.741c0 .201.048.411.125.622z" fill="#344E5D"/><path d="M111.138 110.316c0 .038 0 .077.01.115h-.01c-.841-.488-1.692-.975-2.543-1.473-.076-.038-.143-.086-.22-.124-.267-.153-.535-.315-.812-.468-.469-.268-.937-.545-1.406-.813-.191-.115-.373-.373-.373-.822 0-.775.603-1.865 1.301-2.218.277-.144.621-.22.87-.077.468.268.937.545 1.405.813.268.153.535.315.813.468a.726.726 0 01.115.067c.879.507 1.759 1.014 2.648 1.52-.019.01-.029.019-.048.029-.507.249-.832.65-1.119 1.1-.353.573-.631 1.223-.631 1.883z" fill="#A5B3BF"/><path d="M98.575 114.408v-7.057c0-3.174 1.951-6.654 4.284-8.595.583.315 1.176.621 1.759.927l-.01.01c1.989 1.032 2.085 1.08 2.41 1.166.965.249 1.95-.181 2.486-1.3.057-.115.095-.21.124-.316 1.205 1.779 1.348 4.207.535 6.454-.277-.162-.545-.315-.812-.468.105-.593.114-1.415-.278-1.865-.306-.363-.86-.487-1.357-.401-1.195.21-3.041 2.275-3.041 4.379 0 .334.038.688.211.994.162.297.449.555.774.65.631.182 1.386-.229 1.884-.64.267.153.535.315.812.468-.43.507-.841.899-1.319 1.272v26.112l-.784.487-1.568.908c-.115.067-.239.125-.364.192h-.009c-.191.095-.402.162-.612.239-.124.038-.249.067-.363.105-.096.019-.192.038-.297.057a32.19 32.19 0 01-.296.058c-.163.028-.335.038-.507.057-.086.01-.162.01-.248.019a6.5 6.5 0 01-1.062-.029 5.857 5.857 0 01-1.759-.42v-1.97a6.779 6.779 0 01-.583-.315v-7.726c.401-.574.66-1.262.746-1.922.057-.382.076-.774.076-1.147 0-1.386-.306-2.782-.822-4.111v-6.272h-.01z" fill="#E0852F"/><path d="M105.966 97.245c.641-.067 1.32.019 1.865.334.066.039.124.077.191.125.363.22.688.487.975.774-.363 1.253-1.425 1.788-2.448 1.272a145.268 145.268 0 01-2.945-1.53c.775-.545 1.597-.89 2.362-.975z" fill="#EBB481"/><path d="M115.986 151.285c-5.086-2.935-10.173-5.87-15.269-8.815h-.009c.038-1.062-.239-2.132-.794-3.002 1.415.401 3.203.277 4.417-.421 1.081-.622 2.352-.746 3.06.268 2.667 3.786 5.326 7.572 7.984 11.349.181.277.382.478.611.621z" fill="#527184"/><path d="M104.694 107.351c0-2.103 1.846-4.168 3.041-4.379.487-.086 1.052.039 1.357.402.383.449.383 1.272.278 1.864-.469-.267-.937-.545-1.406-.812-.248-.144-.593-.067-.87.076-.698.354-1.3 1.444-1.3 2.218 0 .45.182.718.373.823.468.267.937.545 1.405.812-.506.421-1.252.823-1.883.641a1.342 1.342 0 01-.775-.65c-.191-.297-.22-.65-.22-.995z" fill="#8A3071"/><path d="M104.618 99.693c-.584-.306-1.176-.622-1.76-.927.249-.21.498-.402.746-.555.975.526 1.97 1.032 2.945 1.53 1.023.516 2.084-.02 2.448-1.272.248.249.459.507.64.794-.028.105-.076.21-.124.315-.535 1.119-1.52 1.54-2.486 1.301-.325-.087-.421-.134-2.409-1.167v-.02z" fill="#CFC6F5"/><path d="M103.872 160.388c.554-3.423.401-7.688-1.712-10.451-.726-.965-1.711-1.759-2.82-2.218.354-1.186.698-2.371 1.042-3.547 4.484 3.518 5.383 9.752 4.436 15.441 0 .01-.009.019-.009.029-.067.411-.526.631-.937.746zm3.394-23.091c-.879-.315-1.96-.076-2.926.488l-.019-.01c.125-.057.249-.124.364-.191l1.568-.908c.353.201.698.401 1.042.602-.01.01-.019.019-.029.019z" fill="#A5B3BF"/><path d="M103.871 160.387l-1.29.345c.153-.976.248-2.018.239-3.06-.02-2.19-.469-4.408-1.645-6.081a6.4 6.4 0 00-1.463-1.501 5.432 5.432 0 00-.898-.555c.181-.602.353-1.214.525-1.816 1.109.459 2.094 1.252 2.821 2.218 2.113 2.763 2.275 7.027 1.711 10.45z" fill="#688499"/><path d="M103.605 98.21a7.87 7.87 0 00-.746.555 166.089 166.089 0 01-10.718-6.224 7.01 7.01 0 01.707-.517c3.49 2.2 7.104 4.255 10.757 6.186z" fill="#CFC6F5"/><path d="M102.82 157.672c-.659-.382-1.329-.765-1.988-1.147.095-2.238-.201-4.475-1.12-6.425a6.415 6.415 0 011.464 1.501c1.176 1.663 1.625 3.882 1.644 6.071z" fill="#446172"/><path d="M98.528 138.111c.21.124.401.258.583.411.315.268.583.593.813.946.554.87.831 1.941.793 3.003a4.78 4.78 0 01-.191 1.233c-.077.249-.66.22-.928.182a4.455 4.455 0 01-1.386-.412c-.239-.114-.755-.401-.679-.659a.087.087 0 00.01-.048c.22-.813-.163-1.731-.564-1.96h-.01c-.277-.163-.344-.555-.315-.899.047-.583.468-1.31.946-1.635.277-.181.65-.315.928-.162z" fill="#EA8071"/><path d="M99.598 143.895c.268.038.851.057.927-.182-.038.153-.095.306-.134.459-.344 1.185-.688 2.371-1.042 3.547-.172.602-.344 1.214-.526 1.817-.162.545-.315 1.09-.478 1.635-1.156 3.948-2.313 7.907-3.47 11.855v.01s0 .01-.01.01c-.076.248-.66.21-.918.181a4.426 4.426 0 01-1.386-.411c-.24-.115-.746-.401-.679-.65v-.01c.774-2.648 1.54-5.287 2.323-7.926.469-1.625.947-3.251 1.425-4.876.038-.143.077-.287.124-.43a88.23 88.23 0 01.507-1.712c.43-1.453.851-2.916 1.281-4.369-.076.248.44.545.68.659.468.211.86.316 1.376.393z" fill="#B3CDE0"/><path d="M97.093 91.375c3.585 2.065 7.161 4.13 10.737 6.195-.545-.315-1.224-.401-1.864-.334-.765.096-1.588.44-2.362.975a162.133 162.133 0 01-10.756-6.186c.793-.545 1.606-.89 2.39-.975.574-.067 1.186 0 1.692.248.048.02.105.048.163.077z" fill="#B8CCDC"/><path d="M96.653 139.926c-.029.344.038.736.315.899h.01c.401.229.784 1.147.564 1.96-.411.2-.909.344-1.358.229a1.388 1.388 0 01-.382-.172 1.825 1.825 0 01-.64-.736c-.708-1.492.62-4.867 2.753-5.919.382-.191.822-.325 1.233-.277v1.97c-.01.009-.028.019-.038.028v.631a4.318 4.318 0 00-.583-.411h-.01c-.268-.162-.64-.019-.927.182-.46.306-.89 1.033-.937 1.616z" fill="#E06C00"/><path d="M79.653 161.2c-.038-.02-4.58-2.639-4.618-2.668 3.394-6.683 8.204-11.54 12.564-14.045 2.734-1.588 5.153-2.19 7.151-2.228.354.201.689.401 1.043.602l.01-.019c.114.077.248.134.382.172.44.115.946-.029 1.357-.229 0 .019-.01.028-.01.047-.43 1.454-.85 2.917-1.28 4.37-1.664.057-3.634.583-5.862 1.864-3.776 2.18-7.888 6.397-10.737 12.134z" fill="#A5B3BF"/><path d="M88.172 138.463c2.19 1.272 4.389 2.534 6.578 3.796-1.998.038-4.417.64-7.151 2.227-4.35 2.515-9.16 7.363-12.564 14.046-1.453-.842-2.906-1.673-4.36-2.515-.736-.43-1.472-.851-2.218-1.281 3.394-6.683 8.204-11.54 12.564-14.045 2.743-1.588 5.153-2.19 7.151-2.228z" fill="#688499"/><path d="M91.634 91.26c1.166-.555 2.467-.774 3.796-.507a5.44 5.44 0 011.491.545c-.507-.248-1.119-.315-1.692-.248-.784.086-1.597.43-2.39.975-.402-.258-.804-.516-1.205-.765z" fill="#EBB481"/><path d="M90.83 91.7c.258-.163.526-.316.803-.44.402.258.803.516 1.205.765-.24.153-.469.334-.708.516-.43-.277-.86-.555-1.3-.841z" fill="#CFC6F5"/><path d="M91.232 162.644c.038.009.067.029.095.038.01 0 .01.01.01.01h.01c.038.019.067.028.086.038.028.009.038.009.038 0 .038 0 .096-.038.124-.067.134-.124.23-.335.277-.507h.01c-.067.249.44.536.679.65.487.23.88.335 1.386.412.268.038.842.066.918-.182-.43 1.53-1.549 2.514-2.792 2.754a3.244 3.244 0 01-2.294-.402c-.268-.153-.335-.555-.316-.899.048-.573.469-1.3.947-1.635.248-.162.573-.287.822-.21z" fill="#EA8071"/><path d="M88.248 164.374c-.096-.229-.096-.516-.048-.755a2.5 2.5 0 01.45-1.004c.248-.344.66-.698 1.051-.727.115-.019.22 0 .326.048.401.239.812.468 1.214.708 0 .009-.01.009-.01.009-.248-.076-.573.048-.822.22-.478.335-.89 1.061-.947 1.635-.028.344.039.746.316.899-.038-.019-.067-.039-.105-.058-.44-.258-.88-.535-1.32-.793-.038-.067-.076-.125-.105-.182z" fill="#C44600"/><path d="M85.102 163.15c.794.45 1.578.909 2.371 1.367l.01-.009c.249.143.555.162.765-.124a.686.686 0 00.115.172c.44.258.88.535 1.32.793-1.13 1.578-2.764 3.155-4.58 3.863-2.534.985-4.303-.029-4.982-1.998h-.01c.163-3.414 1.846-7.315 4.217-10.307 1.128-1.415 2.4-2.62 3.738-3.481a3.858 3.858 0 011.587-.009c.803.182 1.53.707 1.99 1.405.573.861.726 1.989.726 3.003 0 1.338-.325 3.002-1.128 4.809-.402-.23-.813-.469-1.215-.708-.105-.047-.21-.067-.325-.047.144-.316-.028-.584-.277-.737l.01-.009c-.813-.469-1.616-.928-2.429-1.396l-.01.009a.91.91 0 00-.344-.076c-.593-.01-1.73.918-1.931 2.323-.038.316-.038.65.134.899a.835.835 0 00.248.239v.019z" fill="#A4B5BC"/><path d="M89.654 153.408c-.516-.124-1.06-.096-1.587.009.144-.095.297-.181.44-.267 1.138-.66 2.926-1.348 4.064-.698.01 0 .01 0 .019.009.63.364 1.195.947 1.606 1.769h.01c-.775 2.649-1.55 5.288-2.324 7.926v.01h-.01c-.047.172-.143.382-.276.507-.03.028-.077.067-.125.067 0 .009-.01.009-.038 0-.02-.01-.048-.019-.086-.039h-.01c-.01 0-.01-.009-.01-.009a.945.945 0 00-.095-.058c.813-1.807 1.128-3.47 1.128-4.809 0-1.013-.162-2.142-.726-3.002-.45-.698-1.186-1.233-1.98-1.415z" fill="#344E5D"/><path d="M87.217 164.259c-.335-.497-.125-1.998 1.023-2.887.258-.191.554-.363.87-.335.105.01.21.048.306.105.248.144.42.421.277.737-.382.028-.803.382-1.052.726-.22.297-.382.66-.45 1.004-.037.249-.047.536.049.756-.21.286-.517.277-.765.124a.735.735 0 01-.258-.23z" fill="#EA8071"/><path d="M87.828 101.156c0-3.175 1.97-6.664 4.302-8.605a166.009 166.009 0 0010.719 6.224c-2.324 1.941-4.284 5.421-4.284 8.596v13.318c-1.558-3.958-5.01-7.257-7.792-7.457-.67-.048-1.387.057-1.97.401-.048.029-.105.058-.153.096-.277.153-.554.315-.832.478v-13.051h.01z" fill="#B3CDE0"/><path d="M88.87 93.42a8.881 8.881 0 011.941-1.711c.01-.01.01-.01.02-.01.43.287.87.574 1.3.842-2.343 1.94-4.303 5.43-4.303 8.605v13.032c-.334.191-.669.382-1.013.583-.038.019-.067.038-.105.057-.048.029-.106.058-.153.086V99.377c0-.956.181-1.931.516-2.859a10.068 10.068 0 011.798-3.098z" fill="#E0852F"/><path d="M86.748 116.588c.114-.028.239-.047.363-.057 1.558-.143 3.26.975 4.388 2.123 2.219 2.246 3.395 5.258 3.395 7.582.01 1.271-.335 2.237-.909 2.868h-.01c-3.9 1.109-8.556-3.519-8.68-8.423-.039-1.521.391-3.05 1.453-4.093z" fill="#F8EEBC"/><path d="M85.313 129.887c.373-.316.803-.584 1.253-.718.258-.086.516-.124.774-.095.144.095.306.201.488.306 3.576 2.065 7.161 4.13 10.737 6.195.182.115.363.211.583.316-.42-.038-.85.086-1.233.277-2.142 1.062-3.461 4.427-2.754 5.919.134.296.364.564.64.736l-.009.019c-.353-.201-.688-.402-1.042-.602-2.19-1.272-4.388-2.534-6.578-3.796-.21-.115-.411-.239-.621-.354-1.129-.66-2.266-1.31-3.395-1.96-.057-.038-.114-.067-.181-.105-.469-.268-.698-.822-.775-1.425-.028-.239-.038-.478-.028-.707.047-1.014.544-2.123 1.195-3.012.306-.373.621-.727.946-.994z" fill="#E06C00"/><path d="M84.72 161.993c.192-1.405 1.34-2.323 1.932-2.323a.91.91 0 01.344.076l.01-.009c.812.468 1.615.927 2.428 1.396l-.01.009a.743.743 0 00-.305-.105c-.316-.029-.612.134-.87.335-1.148.889-1.358 2.39-1.023 2.887a.95.95 0 00.267.249l-.01.009c-.793-.449-1.577-.908-2.37-1.367l.01-.009a.861.861 0 01-.25-.239c-.2-.259-.2-.593-.153-.909z" fill="#EA8071"/><path d="M87.34 129.084a1.8 1.8 0 00-.775.095v-1.577c1.129 1.424 2.496 2.581 3.959 3.203 1.396.592 2.63.564 3.556.019l.01.009c.507-.296 1.004-.583 1.51-.87.66-.382 1.33-.774 2-1.147.382-.22.716-.555.984-.947v7.726c-3.586-2.065-7.162-4.131-10.737-6.196-.201-.124-.364-.22-.507-.315z" fill="#A3BACC"/><path d="M86.126 115.306a2.908 2.908 0 00-.813.325c.421-.248.832-.487 1.253-.726.048-.029.105-.058.153-.086.038-.029.067-.039.105-.058.335-.191.67-.392 1.014-.583.277-.163.554-.325.832-.478.047-.029.105-.057.152-.096.584-.334 1.291-.449 1.97-.401 2.782.201 6.234 3.499 7.792 7.457.517 1.33.823 2.725.823 4.112 0 .382-.029.765-.077 1.147-.095.66-.344 1.358-.746 1.922-.267.382-.602.727-.984.947-.67.382-1.339.764-1.999 1.147-.506.287-1.004.574-1.51.87l-.01-.01c1.128-.65 1.826-2.055 1.817-4.006 0-4.388-3.366-9.609-7.028-11.148-1.042-.43-1.97-.526-2.744-.335z" fill="#BB426A"/><path d="M87.895 127.803c-1.405-1.425-2.524-3.308-3.06-5.297-.353-1.3-.516-2.916-.009-4.178.277-.708.717-1.205 1.243-1.492.21-.114.44-.201.688-.258-1.061 1.052-1.491 2.572-1.453 4.092.115 4.905 4.78 9.533 8.682 8.424a2.372 2.372 0 01-.555.468c-.01.01-.029.019-.038.029-1.377.784-3.47.277-5.498-1.788z" fill="#BB426A"/><path d="M84.54 91.374c.286-.125.525-.125.707-.048.029.01.058.029.096.048.258.143.516.296.774.45.918.525 1.836 1.06 2.763 1.596a10.112 10.112 0 00-1.797 3.107c-.918-.535-1.845-1.061-2.763-1.597-.249-.143-.507-.286-.756-.43v-.01c-.248-.114-.42-.382-.42-.85-.01-.87.678-1.941 1.396-2.266z" fill="#A5B3BF"/><path d="M84.826 122.506c.536 1.989 1.664 3.872 3.06 5.297 2.036 2.056 4.12 2.572 5.478 1.778.01-.009.03-.019.039-.028a2.03 2.03 0 00.554-.469h.01c.573-.631.918-1.597.908-2.868 0-2.324-1.166-5.335-3.394-7.582-1.119-1.148-2.83-2.276-4.389-2.123a2.81 2.81 0 00-1.052.316c-.525.296-.965.784-1.242 1.491-.478 1.281-.326 2.888.028 4.188zm1.74 5.087c-2.438-3.089-3.786-7.429-2.686-10.212.306-.774.793-1.386 1.434-1.749.248-.144.516-.259.813-.326.774-.191 1.692-.095 2.744.345 3.652 1.539 7.027 6.769 7.027 11.148.01 1.951-.688 3.366-1.816 4.006-.928.545-2.161.574-3.557-.019-1.473-.612-2.83-1.769-3.959-3.193z" fill="#D1628D"/><path d="M82.417 134.362c-.268-.115-.87-.431-.784-.708h-.01c.382-1.339 1.386-2.467 2.754-2.754-.65.89-1.148 1.999-1.195 3.012-.01.23-.01.469.028.708h-.019a4.152 4.152 0 01-.774-.258z" fill="#EA8071"/><path d="M83.134 93.64c0 .47.182.737.42.852v.01c.25.143.508.296.756.43-.468.239-.908.239-1.214.01-.249-.192-.402-.546-.402-1.053 0-.88.478-1.826 1.08-2.457.374-.382.995-.813 1.521-.727.057.01.124.03.182.048a.946.946 0 01.44.354c.143.21.181.469.19.707-.257-.152-.516-.296-.774-.449a.296.296 0 00-.095-.048c-.182-.076-.421-.076-.708.048-.707.335-1.396 1.406-1.396 2.276z" fill="#596876"/><path d="M82.416 134.362c.24.105.507.201.775.268h.019c.076.593.296 1.147.774 1.424.058.039.115.067.182.106-.23.812-.469 1.615-.708 2.428a17.599 17.599 0 00-3.671 1.453l-.01-.009 1.865-6.368c-.096.268.516.583.774.698z" fill="#B3CDE0"/><path d="M83.841 156.534a28.921 28.921 0 00-3.24 5.22c-.183-.114-.374-.21-.555-.325-.125-.076-.259-.153-.383-.229 2.85-5.737 6.96-9.953 10.728-12.133 2.218-1.282 4.197-1.807 5.86-1.865a91.103 91.103 0 01-.506 1.712 8.293 8.293 0 00-1.683.21c-1.118.249-2.342.707-3.671 1.482-2.19 1.252-4.494 3.27-6.55 5.928z" fill="#688499"/><path d="M80.112 167.203c.679 1.97 2.457 2.983 4.981 1.999 1.817-.708 3.452-2.295 4.58-3.863.038.019.067.038.105.057a3.24 3.24 0 002.295.402c-1.252 1.979-2.993 3.891-5.01 5.048-2.209 1.281-4.848 1.616-6.454-.373-.45-.975-.545-2.189-.507-3.26 0-.01 0-.01.01-.01z" fill="#344E5D"/><path d="M98.335 151.17c-1.156 3.949-2.313 7.907-3.47 11.856v.009s0 .01-.01.01c-.43 1.53-1.549 2.514-2.792 2.753-1.252 1.98-2.992 3.892-5.01 5.049-2.208 1.281-4.847 1.616-6.453-.373-.45-.975-.545-2.19-.507-3.261v-.009c.162-3.413 1.845-7.314 4.216-10.307 1.129-1.415 2.4-2.62 3.739-3.48.143-.096.296-.182.44-.268 1.137-.66 2.925-1.348 4.063-.698.01 0 .01 0 .02.01.63.363 1.194.946 1.605 1.768h.01c.468-1.625.946-3.25 1.425-4.876.038-.143.076-.287.124-.43a8.293 8.293 0 00-1.683.21c-1.119.249-2.342.708-3.671 1.482-2.18 1.253-4.485 3.27-6.54 5.928a28.93 28.93 0 00-3.241 5.221c-.182-.115-.373-.211-.555-.326-4.609 10.585-.144 18.683 7.964 14.935 5.632-2.601 11.082-10.23 11.904-17.765.268-2.533 0-5.44-1.578-7.438z" fill="#516C7A"/><path d="M75.035 158.532c.038.029 4.57 2.649 4.618 2.668.125.077.258.153.383.229-4.609 10.585-.144 18.683 7.964 14.935 5.632-2.601 11.082-10.23 11.904-17.765.277-2.524.01-5.43-1.568-7.419.162-.545.315-1.09.478-1.635.315.153.612.335.899.554.918 1.961 1.214 4.198 1.118 6.426a22.72 22.72 0 01-.707 4.522c-1.31 5.01-4.312 10.106-8.338 13.682-3.93 3.48-9.38 5.746-13.873 3.146-1.606-.928-3.212-1.846-4.81-2.773-3.393-1.96-4.694-5.899-4.636-9.848.047-3.146.937-6.387 2.218-9.236 1.444.841 2.906 1.683 4.35 2.514z" fill="#344E5D"/><path d="M81.02 140.691c-4.35 2.515-9.159 7.362-12.563 14.045-.363-.21-.698-.401-.965-.554-.039-.029-.077-.038-.106-.058a.29.29 0 00-.095-.047c-.02-.01-.038-.029-.048-.029-.01-.01-.029-.01-.038-.019a1.128 1.128 0 00-.134-.077s-.01 0-.01-.009c-.019-.01-.038-.019-.048-.029l-.01-.009c-.009-.01-.028-.01-.037-.02l-.01-.009v-.01c2.658-5.287 6.913-10.46 12.019-13.405.267-.153.525-.296.793-.43a17.595 17.595 0 013.672-1.453c1.338-.354 2.715-.536 4.11-.469.211.115.412.239.622.354-1.998.038-4.407.641-7.151 2.228z" fill="#A5B3BF"/><path d="M108.337 130.814c1.415.793 2.83 1.577 4.35 2.428.172-.363.345-.659.44-.984.65-2.161 1.262-4.341 1.922-6.502.172-.574.44-1.128.66-1.683.105.019.201.038.306.067 0 2.448.172 8.003.172 8.003s-3.375 1.96-4.647 2.687c-1.539-.832-2.811-2.085-3.471-3.71.096-.105.182-.201.268-.306zm7.688-8.394c-2.716-1.693-5.278-3.28-7.888-4.905.105-.373.153-.669.267-.947.115-.277.278-.545.469-.918 2.237 1.301 7.209 4.121 7.209 4.121s-.143.354-.086.717c.096.612.029 1.253.029 1.932zM88 126.913c2.486.593 5 0 6.76-1.816.45 1.529.028 3.365-1.014 4.168-.918.832-2.237.918-3.518.172-.966-.554-1.712-1.319-2.228-2.524zm33.101-10.928c.009-1.166.946-2.639 1.921-3.012.67-.258 1.129-.019 1.291.67.258 1.09-.621 2.849-1.644 3.289-.937.401-1.578.009-1.568-.947zm-35.568 6.989c-1.5-1.778-1.195-4.962.392-6.071.804-.564 1.664-.421 2.668-.23-3.002.823-3.643 1.827-3.26 4.905.047.392.114.784.2 1.396zm-2.083 12.573s.745.631 1.261.899c-.2.067-.564-.297-.564-.297l-.707 2.429-.909.344c.325-1.166.603-2.18.918-3.375zm.133-43.227c-.086 1.817.708 2.696.708 2.696-.956.335-1.587-.134-1.54-1.023.03-.64.22-1.29.498-1.874l.334.2z" fill="#B4A8C3"/><path d="M83.258 92.168c.813-1.281 1.52-1.693 2.486-1.243.267.115.468.813.363.85-.134.049-.966-.62-1.109-.573-.497.172-1.033.402-1.415 1.128 0-.01-.325-.162-.325-.162z" fill="#B4A8C3"/><path opacity=".5" d="M107.831 97.58c-3.586-2.065-7.162-4.13-10.738-6.196a2.196 2.196 0 01-.162-.086 5.561 5.561 0 00-1.492-.545c-1.329-.267-2.63-.047-3.795.507-.584-.382-1.177-.755-1.76-1.147-.889-.584-1.491-2.352-1.08-3.91 2.294-8.625 5.306-17.144 8.844-25.367.249-.583.688-1.176 1.272-1.424a1.293 1.293 0 011.233.095c4.322 2.783 8.748 5.297 13.194 7.611.947.497 1.54 1.931 1.129 3.433-2.41 8.834-4.274 18.032-5.374 27.373a3.003 3.003 0 01-.115.536 5.136 5.136 0 00-.975-.775.824.824 0 00-.181-.105z" fill="#C9C8F7"/><path d="M88.067 85.685c2.314-8.7 5.354-17.23 8.844-25.366.746-1.95 2.228-2.4 3.327-1.73 3.672 2.361 7.487 4.57 11.436 6.683 1.864.994 1.921.975 2.294 1.3 1.148.995 1.597 2.792 1.253 4.331-1.941 7.124-3.394 13.979-4.417 20.49-.947 6.033-.851 7.008-1.167 7.86a5.57 5.57 0 00-.64-.794c.047-.163.086-.344.114-.536 1.1-9.35 2.955-18.548 5.374-27.373.411-1.511-.182-2.936-1.129-3.433-4.446-2.314-8.882-4.828-13.194-7.61-.383-.25-.822-.268-1.233-.096-.584.248-1.023.832-1.272 1.425-3.538 8.222-6.559 16.741-8.844 25.365-.42 1.559.191 3.328 1.08 3.91.584.383 1.167.766 1.76 1.148a6.535 6.535 0 00-.804.44c-.01.01-.01.01-.019.01-.42-.278-1.147-.746-1.281-.86-1.31-1.043-1.931-3.357-1.482-5.164z" fill="#CFC6F5"/><path d="M117.4 115.373a.675.675 0 01-.267.057c-.44 0-.88-.43-.88-1.128 0-.172.01-.344.019-.526.115-1.587.717-3.174 1.167-4.207-1.836 2.515-1.664 5.288-2.687 5.288-.296 0-.746-.278-.679-.88a16 16 0 01.268-1.558c.793-3.433 2.591-4.944 3.413-6.139.01 0 .01-.009.01-.009.114-.163.21-.325.277-.488a3.028 3.028 0 011.472-.373h.039c1.979.029 3.155 1.53 3.652 3.375-.191.536-.468 1.062-.621 1.597-.545 1.807-.536 3.069-1.702 4.446-.029.01-.058.009-.096.009-.43 0-.669-.506-.669-.965 0-.689.296-.908.707-3.06-.612 1.406-1.118 3.633-1.663 4.475-.077.009-.144.019-.211.019-.583 0-.745-.373-.745-.899 0-.593.43-2.094.784-3.566-1.043 2.601-1.167 3.968-1.588 4.532z" fill="#A5A5E5"/><path d="M113.883 111.281c0-.019.038-.258.143-.621.268-.956.975-2.773 2.572-3.586.421-.219.784-.535 1.167-.812-.823 1.204-2.63 2.706-3.414 6.138-.191-.363-.43-.746-.459-1.061-.009-.01-.009-.039-.009-.058z" fill="#8A8ACE"/><defs><linearGradient id="paint0_linear" x1="22.543" y1="33.519" x2="191.507" y2="64.913" gradientUnits="userSpaceOnUse"><stop stop-color="#FEB692"/><stop offset="1" stop-color="#EA5455"/></linearGradient></defs></svg>