<svg width="14" height="14" fill="none" xmlns="http://www.w3.org/2000/svg"><g clip-path="url(#clip0)"><path d="M4.813 5.906h4.375a.437.437 0 00.437-.437V5.03a.437.437 0 00-.438-.437H4.814a.437.437 0 00-.438.437v.438c0 .241.196.437.438.437zm-.438 2.188c0 .241.196.437.438.437h4.375a.437.437 0 00.437-.437v-.438a.437.437 0 00-.438-.437H4.814a.437.437 0 00-.438.437v.438zM7 11.406a2.19 2.19 0 01-1.281-.415L0 6.859v5.829C0 13.412.588 14 1.313 14h11.374c.725 0 1.313-.588 1.313-1.313V6.86l-5.719 4.132A2.186 2.186 0 017 11.405zm6.497-6.95c-.242-.19-.471-.369-.81-.624V2.625c0-.725-.587-1.313-1.312-1.313h-2.12l-.248-.179C8.547.798 7.634-.01 7 0c-.634-.01-1.547.798-2.007 1.133l-.247.18H2.625c-.725 0-1.313.587-1.313 1.312v1.207a49.55 49.55 0 00-.81.624A1.312 1.312 0 000 5.488v.292l2.625 1.896V2.625h8.75v5.05L14 5.78v-.292c0-.403-.185-.784-.503-1.032z" fill="#777"/></g><defs><clipPath id="clip0"><path fill="#fff" d="M0 0h14v14H0z"/></clipPath></defs></svg>