<svg width="208" height="32" fill="none" xmlns="http://www.w3.org/2000/svg"><path d="M39.715 27.445c0 1.02-.375 1.905-1.125 2.655-.72.75-1.59 1.125-2.61 1.125-.45 0-.945-.105-1.485-.315L7.81 19.705V27.4c0 1.02-.375 1.905-1.125 2.655-.72.75-1.605 1.125-2.655 1.125-1.05 0-1.95-.36-2.7-1.08-.72-.75-1.08-1.635-1.08-2.655V4.09c0-1.08.36-1.98 1.08-2.7C2.05.67 2.95.31 4.03.31c1.05 0 1.935.375 2.655 1.125.75.72 1.125 1.605 1.125 2.655v6.84L34.495.85c.33-.15.765-.225 1.305-.225 1.05 0 1.935.375 2.655 1.125.75.72 1.125 1.605 1.125 2.655 0 1.77-.825 2.955-2.475 3.555L16 15.475l21.33 8.46c1.59.66 2.385 1.83 2.385 3.51zm41.058-.9c0 1.32-.42 2.4-1.26 3.24-.84.81-1.92 1.215-3.24 1.215h-29.16c-1.29 0-2.37-.42-3.24-1.26-.84-.84-1.26-1.905-1.26-3.195v-22.5c0-1.05.375-1.935 1.125-2.655.78-.75 1.695-1.125 2.745-1.125s1.935.375 2.655 1.125c.75.72 1.125 1.605 1.125 2.655V23.44h22.86V4.045c0-1.05.36-1.935 1.08-2.655.75-.75 1.65-1.125 2.7-1.125 1.08 0 1.995.36 2.745 1.08.75.72 1.125 1.62 1.125 2.7v22.5zm42.041-22.32c0 1.05-.375 1.95-1.125 2.7-.72.72-1.605 1.08-2.655 1.08h-26.19V23.44h22.905v-4.5h-13.5c-1.47 0-2.58-.36-3.33-1.08-.72-.75-1.08-1.575-1.08-2.475 0-1.02.375-1.86 1.125-2.52a3.792 3.792 0 012.655-1.035h20.745v14.715c0 1.26-.435 2.325-1.305 3.195-.87.84-1.935 1.26-3.195 1.26h-28.08c-1.29 0-2.37-.42-3.24-1.26-.84-.84-1.26-1.905-1.26-3.195V4.99c0-1.2.435-2.25 1.305-3.15.9-.93 1.935-1.395 3.105-1.395h29.34c1.08 0 1.98.36 2.7 1.08.72.72 1.08 1.62 1.08 2.7zm42.462 22.32c0 1.26-.435 2.325-1.305 3.195-.87.84-1.935 1.26-3.195 1.26h-28.98c-1.29 0-2.37-.42-3.24-1.26-.84-.84-1.26-1.905-1.26-3.195V4.99c0-1.2.435-2.25 1.305-3.15.9-.93 1.935-1.395 3.105-1.395h29.07c1.26 0 2.325.435 3.195 1.305.87.84 1.305 1.89 1.305 3.15v21.645zm-7.155-2.655V7.555h-23.805V23.89h23.805zm49.65 2.655c0 1.26-.435 2.325-1.305 3.195-.87.84-1.935 1.26-3.195 1.26h-28.98c-1.29 0-2.37-.42-3.24-1.26-.84-.84-1.26-1.905-1.26-3.195V4.99c0-1.2.435-2.25 1.305-3.15.9-.93 1.935-1.395 3.105-1.395h29.07c1.26 0 2.325.435 3.195 1.305.87.84 1.305 1.89 1.305 3.15v21.645zm-7.155-2.655V7.555h-23.805V23.89h23.805z" fill="url(#paint0_linear)"/><defs><linearGradient id="paint0_linear" x1="12.5" y1="17" x2="144.78" y2="117.072" gradientUnits="userSpaceOnUse"><stop stop-color="#EA5455"/><stop offset="1" stop-color="#FEB692"/></linearGradient></defs></svg>