<svg width="27" height="24" fill="none" xmlns="http://www.w3.org/2000/svg"><path d="M16.163 2.971a2.93 2.93 0 01-.856 2.068 2.97 2.97 0 01-2.068.88H2.924c-.095 0-.19 0-.262-.024a2.42 2.42 0 01-.998-.285A2.98 2.98 0 010 2.947c0-.76.285-1.45.784-1.972C.808.95.832.903.88.879c.096-.095.19-.166.286-.261A2.94 2.94 0 012.947 0H13.24a2.98 2.98 0 011.736.57c.047.048.095.072.142.12.523.45.903 1.069 1.022 1.782v.024c.024.166.024.309.024.475zm6.56 9.008a2.93 2.93 0 01-.856 2.068 2.929 2.929 0 01-2.068.856H9.484c-.357 0-.714-.072-1.023-.19-1.117-.428-1.925-1.498-1.925-2.758 0-.665.214-1.26.594-1.759.095-.119.167-.214.286-.309l.07-.071a2.92 2.92 0 012.021-.808H19.8c.143 0 .262 0 .404.024a2.745 2.745 0 011.497.666c.262.213.5.498.666.807.238.452.357.951.357 1.474z" fill="#15AEEF"/><path d="M26.193 18.468c-.427.619-.879 1.213-1.33 1.83-.88 1.213-1.736 2.401-2.615 3.614 0 0 0 .023-.024.023h-7.868a3.35 3.35 0 01-.998-.166 1.574 1.574 0 01-.452-.214 2.151 2.151 0 01-.38-.261c-.047-.048-.095-.072-.142-.12a3.15 3.15 0 01-.69-.902 4.632 4.632 0 01-.142-.333 3.116 3.116 0 01-.143-.642c0-.095 0-.166-.024-.262v-.047c0-.808.333-1.545.856-2.068.048-.047.095-.095.166-.143a2.897 2.897 0 011.022-.57 2.22 2.22 0 01.69-.119H24.6a2.693 2.693 0 011.592.38z" fill="url(#paint0_linear)"/><path opacity=".04" d="M25.884 18.872c-1.212 1.664-2.4 3.352-3.613 5.04 0 0 0 .023-.023.023h-.428l-.618-1.901a3.785 3.785 0 01-.143-.713 2.789 2.789 0 01.31-1.522c.118-.237.284-.475.475-.689.19-.19.38-.356.618-.499.118-.071.237-.143.38-.19.071-.024.166-.071.238-.095.974-.333 2.044-.095 2.804.546z" fill="url(#paint1_linear)"/><path d="M23.365 17.922c-.095.023-.166.07-.238.095a1.892 1.892 0 00-.38.19 2.86 2.86 0 00-1.07 1.188 3.072 3.072 0 00-.309 1.521c.024.238.072.476.143.713l.76 2.306c1.308-1.83 2.615-3.66 3.922-5.467a2.948 2.948 0 00-2.828-.546z" fill="#15AEEF"/><defs><linearGradient id="paint0_linear" x1="11.426" y1="20.992" x2="26.196" y2="20.992" gradientUnits="userSpaceOnUse"><stop stop-color="#15AEEF"/><stop offset="1" stop-color="#0882B6"/></linearGradient><linearGradient id="paint1_linear" x1="21.035" y1="21.054" x2="25.88" y2="21.054" gradientUnits="userSpaceOnUse"><stop stop-color="#201600"/><stop offset="1" stop-color="#6085C3" stop-opacity="0"/></linearGradient></defs></svg>