<svg width="241" height="207" fill="none" xmlns="http://www.w3.org/2000/svg"><circle cx="95" cy="86" r="86" fill="url(#paint0_linear)"/><path d="M166.782 124.577l-9.786 5.645-1.122.652-24.636 14.218-.862-2.647 67.93-39.224.872 2.657-17.376 10.026-15.02 8.673zm31.394-34.351l.31 2.165-13.646 10.268-3.018-.131 16.354-12.302z" fill="#C48B5E"/><path d="M198.175 90.226l-16.353 12.302h-.02l-54.675-31.553L143.5 58.662l54.675 31.564z" fill="#E0BE95"/><path d="M181.812 102.537l.01-.01 3.018.131 13.466.561-67.93 39.224-16.504-.692 67.93-39.224.01.01z" fill="#E0BE95"/><path d="M181.802 139.777l-1.083.621c-.07-7.229-3.319-10.869-6.206-13.024-2.076-1.544-3.981-2.316-7.731-2.798l15.02-8.673v23.874z" fill="#A26D42"/><path d="M180.719 140.399c.03 2.647-.361 5.765-1.354 9.475l-9.786 5.645c3.71-13.837-.902-19.562-4.852-22.499-2.076-1.545-3.981-2.317-7.731-2.798l9.786-5.645c3.75.481 5.655 1.253 7.73 2.798 2.888 2.145 6.127 5.795 6.207 13.024z" fill="#DFE3E7"/><path d="M177.691 102.528l-15.521 8.964c-3.219-2.828-6.377-6.016-9.515-7.51-2.076-.993-4.131-1.243-6.117-1.564V86.305l-19.411-11.2v-1.764l50.564 29.187z" fill="#D8AA7D"/><path d="M170.302 146.414c.07-3.71-.692-7.299-2.958-10.137-1.364-1.714-3.5-3.399-5.585-4.201-1.795-.702-3.971-.992-5.896-1.193l1.123-.652c3.74.482 5.645 1.254 7.731 2.798 3.95 2.938 8.552 8.663 4.853 22.499l-.602-.541c.732-2.737 1.283-5.695 1.334-8.573z" fill="#C8D1DD"/><path d="M127.128 113.627c6.467-3.729 12.934-7.469 19.401-11.199 1.975.321 4.041.581 6.116 1.564 3.139 1.494 6.297 4.672 9.516 7.51l-48.298 27.884-12.584-7.27c6.528-3.77 13.065-7.54 19.592-11.31v-6.016l-13.596-7.85c.151-.091.301-.181.451-.261 1.033-.592 2.066-1.193 3.109-1.795.08-.05.17-.1.25-.14 3.389-1.695 6.989 5.204 11.541 7.59 1.474.762 2.978 1.043 4.502 1.293z" fill="#DCE188"/><path d="M146.538 102.418c-6.467 3.73-12.934 7.47-19.401 11.2V97.515l19.401-11.2v16.103z" fill="#6B9A55"/><path d="M143.089 155.739v3.179l-10.287 5.945v-3.188l10.287-5.936zm0-4.412v3.179l-10.287 5.935v-3.178l10.287-5.936zm0-4.521v3.188l-10.287 5.926v-3.179l10.287-5.935zm-11.5 6.727v12.022l-15.672 9.054v-12.032l15.672-9.044z" fill="#C49E70"/><path d="M127.127 70.975l54.665 31.563-67.92 39.214-54.645-31.543-.03-.021 67.93-39.213zm35.043 40.517l15.521-8.964-50.564-29.187-63.819 36.847 8.813 5.094 23.944 13.827 5.214 3.008 12.583 7.269 48.308-27.894z" fill="#F0DFBE"/><path d="M111.095 104.745c-.08.04-.17.09-.25.14-1.033.601-2.066 1.203-3.109 1.795V86.306l19.392 11.21v16.112c-1.524-.251-3.028-.531-4.502-1.303-4.542-2.387-8.142-9.275-11.531-7.58z" fill="#81B66B"/><path d="M127.128 75.106l19.411 11.2-19.411 11.209-19.392-11.21 19.392-11.2z" fill="#99C567"/><path d="M127.127 73.34v1.766l-19.392 11.2v20.363c-.15.09-.3.181-.451.261l-10.347-5.976-24.816 14.328-8.813-5.094 63.819-36.847z" fill="#C48B5E"/><path d="M110.624 52.596l16.503 18.378-67.92 39.214L42.684 91.82l12.342-7.13.542-.31 9.786-5.645 1.193-.692.491-.29 9.786-5.646 33.8-19.511z" fill="#E0BE95"/><path d="M120.87 120.806c-6.527 3.77-13.064 7.54-19.592 11.31l-5.214-3.008 24.806-14.328v6.026z" fill="#C95B68"/><path d="M120.87 114.78l-24.806 14.328-23.943-13.826 24.806-14.318 10.347 5.976 13.596 7.84z" fill="#D2898A"/><path d="M167.354 136.277c-1.364-1.714-3.499-3.399-5.585-4.201-1.795-.702-3.97-.993-5.895-1.193l-24.636 14.207-16.513-.691-.181-.542-.682-2.085V179l56.44-32.586c.07-3.71-.682-7.299-2.948-10.137zm-35.765 29.278l-15.681 9.054v-12.032l15.681-9.054v12.032zm11.501-6.638l-10.288 5.936v-3.189l10.288-5.935v3.188zm0-4.412l-10.288 5.936v-3.178l10.288-5.936v3.178zm0-4.512l-10.288 5.936v-3.178l10.288-5.946v3.188z" fill="#A26D42"/><path d="M113.872 141.751l16.504.692.862 2.647-16.504-.692-.18-.541-.682-2.086.01-.01-.01-.01zm-.01 3.209V179l-54.655-31.563V137.37l43.696 25.237 10.959-17.647z" fill="#D8AA7D"/><path d="M113.862 141.782v3.179l-10.959 17.646-1.364-.982 12.323-19.843z" fill="#C48B5E"/><path d="M66.476 67.245c1.163-.672 2.677-.361 4.101.23 1.785.732 3.44 1.885 6.247 4.623l-9.786 5.644c-2.808-2.737-4.462-3.9-6.247-4.632-1.373-.561-2.827-.882-3.98-.29 3.218-1.845 6.437-3.71 9.665-5.575z" fill="#DFE3E7"/><path d="M65.133 76.74c.05.622.13 1.284.221 1.995l-9.786 5.645c-.34-2.627-.772-7.229.491-9.555 1.023-1.875 2.838-1.745 4.813-.922 1.584.641 2.978 1.684 4.261 2.837z" fill="#A5B3BF"/><path d="M113.862 141.753v.03l-12.323 19.843-42.332-24.435-12.343-7.129 11.38-18.318.963-1.555.02.021 54.635 31.543z" fill="#E0BE95"/><path d="M42.684 91.82l16.523 18.368-.962 1.554L41.82 93.474l.863-1.655z" fill="#D8AA7D"/><path d="M67.038 77.752l-.491.281a34.818 34.818 0 00-1.404-1.303c-1.294-1.143-2.687-2.186-4.271-2.838-1.976-.812-3.8-.942-4.813.923-1.264 2.326-.832 6.928-.491 9.555l-.542.31c-1.063-7.64-.07-10.798 1.665-11.79.04-.02.08-.05.12-.07 1.153-.582 2.607-.271 3.98.29 1.785.752 3.44 1.905 6.247 4.642z" fill="#C8D1DD"/><path d="M102.903 162.608l-43.696-25.237v-.181l42.332 24.435 1.364.983zM59.207 137.19v.181l-10.98-6.337-1.363-.972 12.343 7.128z" fill="#C48B5E"/><path d="M127.078 73.281l.892 2.306s-1.524.452-19.572 10.91c1.745 6.105 5.444 18.458 5.444 18.458l-1.794.772-2.417 1.424-2.346-.211-6.928-4-23.523 13.656-2.296-.01-11.23-6.397 63.77-36.908zm.049 40.348V97.516l19.331-11.2s4.121 12.634 5.174 17.066c-1.284.912 1.755-.973-13.436 7.87-.661.381-1.363.502-2.095.632-2.597.431-8.974 1.745-8.974 1.745zm-2.437 6.747l-21.787 12.684-6.839-3.951 24.806-14.328-.02 4.001 3.84 1.594zM55.648 84.32c-.09-.55-.2-1.002-.24-1.463-.161-2.136-.422-5.645.54-7.69.693-1.475 1.816-2.016 3.42-1.675 2.456.13 5.775 3.249 5.775 3.249l.21 1.995s-8.532 4.973-9.705 5.585zm142.628 6.006c.07.1.11.13.12.16.401 1.675.401 1.675-.942 2.678-3.79 2.847-7.6 5.685-11.37 8.562-.692.522-1.384.813-2.246.722-.451-.05-.903-.03-1.314-.04-.04-.16-.06-.2-.05-.24.03-.181.381-.412 15.421-11.691.09-.05.211-.07.381-.15z" fill="#B0A7C2"/><defs><linearGradient id="paint0_linear" x1="25.543" y1="33.519" x2="194.507" y2="64.913" gradientUnits="userSpaceOnUse"><stop stop-color="#FEB692"/><stop offset="1" stop-color="#EA5455"/></linearGradient></defs></svg>