<svg width="241" height="207" fill="none" xmlns="http://www.w3.org/2000/svg"><circle cx="86" cy="86" r="86" fill="url(#paint0_linear)"/><path d="M190.263 136.343l-73.945-42.675c.335-1.592-.764 3.748 4.091-20.191l2.81-8.238 59.475 34.342c9.726 2.308 8.636 2.07 8.715 2.07l5.157-2.722c0-.08-.063.31 2.476-12.21l.939-.74.525.112c-.454 1.656-.788 3.78-1.13 5.627-.12.629-4.37 21.059-9.113 44.625z" fill="#596876"/><path d="M190.104 81.541l8.945 5.173-16.355 12.87-8.945-5.174 16.355-12.869z" fill="url(#paint1_linear)"/><path d="M186.602 115.507l-12.813-7.394c-1.664-.963-3.781-.008-4.171 1.879l-1.488 7.29a2.817 2.817 0 001.353 3l12.814 7.386c1.663.963 3.78.008 4.17-1.878l1.488-7.298a2.806 2.806 0 00-1.353-2.985z" fill="#84BF80"/><path d="M181.158 76.376l8.946 5.173-16.355 12.861-8.962-5.173c16.785-13.211 16.284-12.861 16.371-12.861z" fill="#C4260B"/><path d="M172.197 71.201l8.946 5.173-16.356 12.862-8.945-5.15 16.355-12.885z" fill="url(#paint2_linear)"/><path d="M172.197 71.201l-16.356 12.886-8.961-5.174 16.371-12.885 8.946 5.173z" fill="#C4260B"/><path d="M164.875 105.187l-1.496 7.298a2.817 2.817 0 01-4.171 1.87l-12.813-7.401a2.824 2.824 0 01-1.353-3.009l1.496-7.282a2.816 2.816 0 014.17-1.87l12.814 7.393a2.798 2.798 0 011.353 3.001z" fill="#EBD863"/><path d="M163.251 66.028L146.88 78.914l-8.945-5.165 16.347-12.886 8.969 5.165z" fill="url(#paint3_linear)"/><path d="M164.278 138.254l-2.642 1.512v-4.417c.883.509 1.759 1.018 2.642 1.528v1.377z" fill="#A5B3BF"/><path d="M161.635 135.349v4.417l-9.813-5.666v-4.417c2.125 1.225 7.975 4.592 9.813 5.666z" fill="#C8D1DD"/><path d="M151.823 134.1l9.813 5.666 2.642-1.512 6.924 4.003-7.401 4.266c-2.571 1.489-6.304 1.489-8.389.279l-15.806-9.113c-.875-.517-1.433-1.138-1.48-2.165-.016-.135 0-.246.016-.374.079-.509.374-.971.74-1.345.644-.7.597-.589 8.635-5.237l4.298 2.491v3.041h.008z" fill="#DFE3E7"/><path d="M142.312 92.165l-1.489 7.29c-.382 1.886-2.507 2.841-4.17 1.878l-12.814-7.401a2.82 2.82 0 01-1.353-3l1.489-7.29c.382-1.887 2.507-2.842 4.17-1.88l12.814 7.402a2.82 2.82 0 011.353 3z" fill="#CD7E8E"/><path d="M139.613 137.698l15.806 9.113c2.094 1.209 5.818 1.209 8.389-.279l7.402-4.266v3.041c-8.007 4.616-8.007 4.727-9.408 5.085-1.942.517-4.576.517-6.383-.525-17.27-9.972-15.941-9.169-16.363-9.519-.62-.477-.939-1.209-.939-1.775v-3.04h.016c.04 1.019.605 1.64 1.48 2.165zm-7.369-99.191c.581-.143 1.146-.024 1.64.263l71.071 41.035c1.497.875 2.34 3.128 1.95 4.855-13.402 65.978-12.487 61.632-12.702 62.237-.318.788-.979 1.281-1.464 1.393-6.773 1.791-4.807 1.44-4.314.955h.016a2.17 2.17 0 00.541-.74c.263-.263.518-1.855 1.218-5.285.024-.079.334-1.496.637-3 1.233-5.818-3.844 18.981 10.983-54.2.167-.771.071-1.583 0-1.726a1.812 1.812 0 00-.112-.51 1.81 1.81 0 00-.167-.51 1.568 1.568 0 00-.079-.246c-.566-1.29-1.433-1.783-2.133-2.165-6.025-3.43-70.594-40.844-71.024-40.94-.327-.11-.462-.11-.756-.11-.016 0-.032 0-.048.015a.65.65 0 00-.183.016c.087.008-.915.223 4.926-1.337z" fill="#A5B3BF"/><path d="M125.877 46.578c.637-2.817.7-3.923 1.019-4.496.31-.542.788-.725 1.377-.542.469.152.748.494 1.918 1.083.692.39 1.376.82 2.085 1.233 2.507 1.473 54.557 31.43 54.637 31.485 2.936 1.743 5.889 3.526 8.762 5.158 3.741 2.085 4.067 2.26 4.417 2.674.709.796.637 1.886.414 2.92l-.525-.11-.939.74c-13.841-8-61.283-35.41-71.613-41.346l-1.552 1.201z" fill="#596876"/><path d="M116.318 93.67l73.945 42.674c4.178-20.772 9.049-44.29 9.113-44.632.31-1.688.573-3.335.987-5.07.31-1.154.589-2.523-.263-3.478-.263-.31-.605-.525-.955-.724-1.178-.693-2.316-1.314-3.462-1.95-2.873-1.624-5.826-3.415-8.763-5.157-.095-.048-58.56-33.761-58.648-33.793-.589-.183-1.066 0-1.376.54-.319.574-.287 1.235-1.019 4.498l-1.576 1.25c.111-.582 1.114-5.548 1.297-6.272a2.72 2.72 0 01.868-1.33c.016-.015.032-.031.048-.031a1.68 1.68 0 01.636-.31h.032s.016-.017.032 0c.095-.048.183-.048.278-.048.12-.04.398 0 .51.015.692.112 70.658 40.678 71.859 41.33.279.191.701.51.884.756.406.406.987 1.576 1.066 2.364.135.414.112 1.218 0 1.727-13.386 65.978-12.519 61.839-12.821 62.468-.088.088-.414.939-1.377 1.178-.462.167-1.011.016-1.465-.183-.079-.024-62.842-36.268-62.945-36.34-8.866-5.125-8.492-4.783-9.033-5.412a.934.934 0 01-.247-.262c-.032-.032-.064-.08-.096-.127a3.605 3.605 0 01-.278-.462c-.43-.74-.541-1.377-.621-1.902-.104-1.043-.016-1.146.493-3.661.016-.096.048-.199.064-.295.096-.422 1.703-8.484 5.746-28.214l1.178.677c-4.608 22.706-3.685 18.25-4.091 20.175z" fill="url(#paint4_linear)"/><path d="M120.027 63.403l-.851 2.42c-1.051 3-4.577 4.313-7.33 2.713a5.09 5.09 0 01-2.253-6.072l1.481-4.242 8.953 5.18z" fill="#D5381D"/><path d="M118.531 67.684l1.496-4.282 8.962 5.174-.876 2.49c-1.034 2.97-4.52 4.258-7.242 2.69-2.348-1.36-3.096-3.907-2.34-6.072z" fill="#F8EEBC"/><path d="M154.282 60.863l-16.348 12.885-8.945-5.173 16.347-12.886 8.946 5.174zm-17.883-10.346c-.08.08.39-.303-16.364 12.885l-8.945-5.174c16.952-13.354 14.525-11.452 16.339-12.86l8.97 5.148z" fill="#C4260B"/><path d="M136.398 50.517l8.946 5.173-16.355 12.885-8.962-5.173c16.785-13.212 16.284-12.806 16.371-12.885z" fill="url(#paint5_linear)"/><path d="M182.694 99.583l16.348-12.87c-2.547 12.52-2.476 12.13-2.476 12.21-3.08 1.631-5.38 2.849-7.186 3.812-2.722 1.448-6.065-.135-6.686-3.152z" fill="#C4260B"/><path d="M173.749 94.41l-.844 2.419c-1.051 3.008-4.576 4.313-7.338 2.722a5.093 5.093 0 01-2.26-6.08l1.48-4.227 8.962 5.165z" fill="#D5381D"/><path d="M172.268 98.651l1.481-4.242 8.945 5.173-.851 2.42c-1.051 3-4.577 4.313-7.33 2.714a5.06 5.06 0 01-2.245-6.065zm-7.481-9.416l-.851 2.428c-1.051 3-4.576 4.306-7.33 2.714a5.075 5.075 0 01-2.252-6.073l1.48-4.226 8.953 5.157z" fill="#F8EEBC"/><path d="M155.842 84.087l-.844 2.404c-1.051 3-4.576 4.314-7.338 2.714a5.075 5.075 0 01-2.252-6.073l1.472-4.226 8.962 5.181z" fill="#D5381D"/><path d="M136.462 77.958l1.48-4.218 8.946 5.173-.836 2.396c-1.05 3.008-4.576 4.322-7.33 2.73a5.065 5.065 0 01-2.26-6.08z" fill="#F8EEBC"/><path d="M129.769 78.882a5.078 5.078 0 01-2.261-6.073l1.481-4.234 8.945 5.173-.843 2.42c-1.051 2.992-4.569 4.298-7.322 2.714z" fill="#D5381D"/><g clip-path="url(#clip0)"><path d="M92.541 110.911v7.179c-5.356 3.096-2.483 1.432-12.44 7.187v-7.187l12.44-7.179z" fill="#9F3759"/><path d="M88.41 120.478v23.271l-10.37 5.985v-23.256c2.635-1.536.709-.421 10.37-6z" fill="#8C3155"/><path d="M80.11 125.277c-2.484 1.44-1.529.891-4.147 2.395v-7.179l4.146-2.403v7.187z" fill="#E2AE4A"/><path d="M73.894 128.866c2.483-1.44 1.528-.891 4.147-2.395v23.255l-4.147 2.396v-23.256z" fill="#E2AE4A"/><path d="M75.955 120.494v7.179c-2.674 1.552-.27.167-12.44 7.187v-7.187l12.44-7.179z" fill="#9F3759"/><path d="M73.894 152.129l-10.37 5.985v-23.255l10.37-5.985v23.255z" fill="#8C3155"/><path d="M80.11 118.09c-2.77-1.591-5.547-3.191-8.31-4.799 1.72-.366 3.089-1.074 4.14-2.499.89-1.114 1.44-2.77.843-4.099a3.842 3.842 0 00-.438-.788c1.258-.724 2.523-1.448 3.773-2.188l12.44 7.187-12.448 7.186z" fill="#CD7E8E"/><path d="M72.755 103.884c-.366-.032-.923-.04-1.28.048 1.495-.868 3-1.735 4.488-2.603l4.146 2.396c-1.257.74-2.523 1.464-3.772 2.188-.971-1.313-2.388-1.965-3.582-2.029z" fill="#E2AE4A"/><path d="M72.756 101.337c.668-.717 1.074-1.035 1.202-1.162l2.005 1.162c-1.488.867-2.984 1.735-4.488 2.602-.271.032-.804.152-1.115.287v-.016c.645-.836 1.337-1.783 2.396-2.873zm-3.972 8.929c1.321-.748 2.61-1.512 3.932-2.26.056.04.103.064.151.103.708.518 1.146 1.17 1.257 1.489-1.528.485-3.772.668-5.34.668z" fill="#CD7E8E"/><path d="M66.651 108.906c2.086-1.337 3.98-2.253 6.065-.908-1.321.749-2.61 1.513-3.932 2.261-1.759.063-2.722-.048-3.748-.144.183-.175 1.329-1.002 1.615-1.209z" fill="#E2AE4A"/><path d="M63.524 134.859v23.255l-10.37-5.985v-23.255l10.37 5.985z" fill="#9F3759"/><path d="M63.523 134.86c-12.105-6.988-9.693-5.595-12.439-7.187v-7.179l12.44 7.179v7.187z" fill="#BB426A"/><path d="M65.696 113.769c.86-.056 2.57.111 5.078-.295 1.027-.143.788-.143 1.019-.183 2.77 1.6 5.547 3.208 8.309 4.799l-4.147 2.404c-13.41-7.768-11.604-6.685-12.567-7.266.008-.183.923.644 2.308.541z" fill="#E2AE4A"/><path d="M61.542 107.783c3.534-4.711 6.383-10.051 11.142-12.025.78-.334 2.794.589 3.502 1.074.239.167.923.732.971 1.019.127.51-.398.23-2.252 1.552-1.926 1.409-3.216 3.072-4.553 4.799v.016c-.016 0-.04 0-.047.016-1.552.541-2.866 1.409-4.179 2.364-.939.676-2.364 1.902-2.523 2.053-.748.653-.979.963-1.122 1.114.032-.103-.048-.557-.183-.772-.19-.453-.669-1.074-.756-1.21z" fill="#F3E187"/><path d="M67.797 108.213c-1.233.685-2.634 1.783-2.77 1.911.39.031 1.178.151 2.707.151 1.973 0 4.504-.08 6.383-.685-.04-.127-.263-.525-.558-.851-.589-.669-1.313-1.083-2.196-1.305-1.377-.247-2.316.111-3.566.779zm-6.152 2.818c.62-1.313 1.95-2.332 2.26-2.65.136-.096 3.311-2.913 5.651-3.852 1.178-.558 2.324-.725 3.192-.645 2.18.127 4.114 2.006 4.25 3.685.262 1.703-1.322 4.003-2.73 4.767-2.3 1.608-8.214 1.409-8.588 1.433-1.257.095-2.077-.557-2.3-.557-.422-.502-1.464-.948-2.085-1.162a3.77 3.77 0 01.35-1.019z" fill="#EBD863"/><path d="M59.4 115.687l-.015-.016c.278-.366.939-1.074 1.329-1.393.43-.374.613-.43.804-.541a.4.4 0 01.12-.04l1.758-.477v.016l.127.079a423.47 423.47 0 00-4.122 2.372z" fill="#EBD863"/><path d="M59.799 105.507c-1.449-1.846-3.86-4.655-5.905-5.794l9.63-5.555 6.088 3.502c-3.215 2.754-5.014 6.057-8.07 10.124-.151-.231-1.353-1.799-1.743-2.277z" fill="#CD7E8E"/><path d="M49.007 126.479c2.499 1.424 1.544.875 4.146 2.395v23.256l-4.146-2.396v-23.255z" fill="#EBD863"/><path d="M56.305 119.331c.86-.692 2.18-2.602 3.08-3.661l.016.016c.732-.422 4.035-2.316 4.122-2.379 2.571 1.496.406.215 12.44 7.186l-12.44 7.171-12.439-7.179c.398-.246.804-.461 1.202-.7h.016c.764.191 1.575.302 2.363.231.613-.048 1.115-.207 1.64-.685z" fill="#CD7E8E"/><path d="M51.084 120.493v7.179c-2.499-1.424-1.544-.875-4.147-2.395v-7.187l4.147 2.403z" fill="#EBD863"/><path d="M51.084 120.494l-4.147-2.404a27544.5 27544.5 0 007.33-4.226v.016c-1.146 1.337-2.268 3.024-3.151 3.804-.04.024-.064.048-.104.088-.533.517-.851 1.122-.811 1.154.477.318 1.042.605 2.093.875-.406.223-.812.446-1.21.693z" fill="#EBD863"/><path d="M49.819 102.499c2.005 0 4.823 2.969 6.104 4.513-1.568-.812-5.237-2.77-6.104-4.513z" fill="#E2AE4A"/><path d="M49.007 126.479v23.256l-10.362-5.985v-23.256c9.829 5.675 7.656 4.417 10.362 5.985z" fill="#9F3759"/><path d="M49.818 102.499c.2.39.764.979.876 1.114 1.647 1.464 3.064 2.276 5.22 3.398-1.28-1.56-4.082-4.512-6.096-4.512zm6.917 9.343c-6.28-2.976-13.085-6.16-8.484-11.373.254-.27.604-.573 1.018-.851.534-.319.494-.271.812-.398 1.21-.438 2.555-.175 3.661.43 2.236 1.114 5.102 4.639 6.59 6.557.43.542 1.838 2.348 2.053 3.001.048.135.088.294.088.438 0 .175.048.055-.143.31-.478.613-.924 1.329-1.035 2.109-.016-.016-.016-.016-.024-.016-1.377-.454-3.175-.748-4.536-.207z" fill="#EBD863"/><path d="M46.938 118.09v7.187c-9.949-5.739-7.211-4.163-12.44-7.187v-7.179l12.44 7.179z" fill="#BB426A"/><path d="M56.735 111.842c-1.067.454-1.688 1.194-2.467 2.014l-7.33 4.226-12.44-7.171 12.24-7.075c0 3.581 6.781 6.486 9.997 8.006z" fill="#CD7E8E"/><path d="M56.926 111.763c1.886-.677 5.555.358 6.462 1.448-2.069.565-1.782.462-2.109.645-1.695.915-4.003 5.109-5.587 5.897-1.36.685-4.13.08-5.507-.844-.04-.023.286-.636.812-1.154.127-.127.398-.302 1.122-1.201.708-.868 1.29-1.711 2.133-2.69v-.016c.915-.939 1.456-1.592 2.674-2.085z" fill="#F3E187"/><path d="M144.75 154.652v6.901c-4.878 1.162-1.448.342-15.599 3.732v-6.9l15.599-3.733z" fill="#648F66"/><path d="M138.272 145.659c-1.464.351-2.913.693-4.369 1.043.016-.016.024-.04.04-.048.589-.843.851-1.687.939-2.602.04-.502-.016-.979-.048-1.091h.016c.422-.095.844-.199 1.265-.294l2.157 2.992z" fill="#9ED2E9"/><path d="M129.152 165.286l-5.197 1.25v-6.901l5.197-1.249v6.9z" fill="#82C2E8"/><path d="M128.077 165.548c1.473-.358-.748.175 12.989-3.111v15.471l-12.989 3.112v-15.472z" fill="#72A368"/><path d="M125.458 145.214c1.099-.844 2.969-1.982 4.354-1.982.724-.064 1.663.207 2.021.446l-6.375 1.536zm-.15-3.24c1.026-2.436 2.61-6.208 4.616-7.927l6.192 8.611c-.422.096-.844.199-1.266.295h-.016c0-.12-.119-.526-.159-.661-.39-1.082-1.456-2.101-2.881-2.459-2.905-.756-5.714 1.679-6.486 2.141zm3.844 16.419c-1.958-2.714-3.908-5.42-5.858-8.142.127 0 .239-.016.334-.024 2.65-.334 6.805-.931 9.057-2.395.47-.326.852-.645 1.218-1.13 1.448-.35 2.905-.693 4.369-1.043l6.479 8.994-15.599 3.74z" fill="#84BF80"/><path d="M123.548 146.766c.86-.748 1.138-.963 1.815-1.48.175-.112.676-.199 6.478-1.616h.016c.327.159.717.477.828.828h-.016c-2.045 1.369-6.685 2.021-9.121 2.268z" fill="#9ED2E9"/><path d="M122.872 166.789c1.425-.326.31-.063 5.197-1.241v15.472l-5.197 1.249v-15.48z" fill="#82C2E8"/><path d="M121.463 150.785c.295-.087.717-.143.796-.446.518-.047.788-.055 1.043-.087 1.95 2.714 3.9 5.42 5.857 8.142l-5.197 1.249a2009.622 2009.622 0 01-3.589-4.99c.088-.27.549-2.435 1.09-3.868z" fill="#9ED2E9"/><path d="M123.549 146.765c2.427-.239 7.083-.899 9.12-2.26h.016c-.111-.35-.509-.669-.828-.828h-.015c-.16-.111-.542-.239-.669-.287-.844-.214-1.027-.191-1.799-.127-2.069.374-4.146 2.03-5.825 3.502zm-1.552 1.425s.047-1.489-.955-2.348c1.647-1.966 4.918-4.648 7.218-5.635 3.088-1.321 5.985.119 6.542 2.531.016.072.04.135.04.215.024.071.024.151.04.223.127 1.01-.167 2.196-.685 3.104-.254.421-.493.684-.827 1.026-2.38 2.117-7.943 2.738-11.103 3.025.072-.215-.087-.351-.239-.55-.095-.047-.063-.135-.597-.374.613-.35.566-1.217.566-1.217z" fill="#88ACFF"/><path d="M122.872 182.277l-13.004 3.112v-15.471l13.004-3.112v15.471z" fill="#72A368"/><path d="M118.431 144.656c1.162-2.316 3.502-9.844 6.59-12.288.31-.262 1.082-.223 1.488-.183.756.08 1.703.303 2.372.597.286.127.987.486 1.154.78.127.183.095.294-.04.422-.024.024-.048.04-.071.063-2.006 1.72-3.582 5.484-4.617 7.927-1.281.955-2.713 2.205-3.597 3.088-.04.04-.35.398-.668.78-.438-.382-1.091-.644-2.062-.581-.342-.39-.422-.477-.549-.605z" fill="url(#paint6_linear)"/><path d="M118.742 143.925c-1.56-2.181-3.128-4.354-4.704-6.542l8.611-2.062c-1.512 2.42-3.127 6.916-3.907 8.604z" fill="#84BF80"/><path d="M114.189 156.729c-.096-.047 1.385-5.539 1.417-5.642h.016c.071-.287.326-1.011.517-1.306.032-.095.032-.087.215-.294.127-.08.135-.151.469-.287.12-.063.311-.095.605-.175 2.006-.366 4.091.279 4.521.709.024.023.048.047.071.063.136.183.311.327.239.549-.071.303-.501.367-.796.446-.843 2.237-1.289 5.547-1.958 6.216-.66.645-4.09.637-5.316-.279z" fill="url(#paint7_linear)"/><path d="M123.955 159.643l-15.6 3.732-6.478-8.993c4.576-1.106 9.145-2.197 13.721-3.303-.04.151-.088.31-.135.486-.43 1.583-.765 3.064-.956 3.637.016 0-.374 1.504-.326 1.528 1.186.883 4.449.915 5.189.358.151-.072.335-.302.358-.406.207-.358.558-1.695.637-2.021 1.194 1.655 2.388 3.318 3.59 4.982z" fill="#84BF80"/><path d="M115.606 151.079c-4.577 1.106-9.145 2.196-13.721 3.303l-2.157-3.001c4.011-.971 8.014-1.926 12.034-2.889 1.862.724 4.321 1.266 4.377 1.29-.191.286-.454 1.018-.517 1.305h-.016v-.008zm-5.229-12.814l3.661-.883c1.576 2.181 3.136 4.353 4.704 6.542-.255.605-.247.597-.311.732-1.727-1.966-5.499-5.842-8.054-6.391z" fill="#9ED2E9"/><path d="M108.355 170.276l1.513-.359v15.472l-5.389-7.505v-12.988l3.876 5.38z" fill="#A2E79B"/><path d="M108.355 170.275v-6.9l15.6-3.732v6.9l-1.083.247v.015c-14.835 3.55-12.368 2.961-14.517 3.47z" fill="#648F66"/><path d="M107.91 141.625c.406-.064.931-.056 1.552.095.748.191 1.265.47 1.926.868 1.345.875 2.968 2.3 3.86 3.255-2.348-.669-6.694-2.07-8.277-3.924.143-.056.358-.191.939-.294z" fill="#84BF80"/><path d="M107.528 141.711c-.319.088-.438.159-.557.215.183.207.175.239.557.573.183.143.469.382.716.533 1.703 1.138 5.022 2.253 6.996 2.818-.629-.669-2.022-1.942-3.168-2.778-1.289-.963-3.016-1.822-4.544-1.361zm-2.595-.183c.645-2.706 2.825-3.955 5.42-3.279.016 0 .016 0 .024.016 2.754.597 6.749 4.887 8.595 6.996-1.615.095-2.133 1.138-2.26 2.125a5.385 5.385 0 00.096 1.814c-.335.136-.351.199-.47.287-.175.215-.175.199-.215.294-.008-.008.008.016-.995-.246-1.918-.478-5.173-1.592-6.773-2.436-2.554-1.345-3.995-2.73-3.422-5.571z" fill="url(#paint8_linear)"/><path d="M111.754 148.484c-4.019.971-8.031 1.926-12.034 2.89l-6.478-9.01 12.829-3.08c-1.401 1.568-1.56 3.836-.867 5.11.891 1.973 4.504 3.414 6.55 4.09z" fill="#84BF80"/><path d="M101.877 161.266v-6.884l6.478 8.993v6.9l-6.478-9.009z" fill="#93D48B"/><path d="M104.487 177.885l-2.156-3.001v-12.988l2.156 3v12.989z" fill="#C3E9F8"/><path d="M102.323 161.887v12.988l-5.396-7.505v-12.973c5.388 7.466 1.878 2.603 5.396 7.49z" fill="#A2E79B"/><path d="M99.72 158.266v-6.884l2.157 3v6.885l-2.157-3.001z" fill="#C3E9F8"/><path d="M96.927 154.382l-3.685-5.11v-6.9l6.478 9.009v6.885l-2.793-3.868v-.016z" fill="#93D48B"/><path d="M116.815 149.193s-.222-.883-.095-1.814c.127-.979.645-2.022 2.26-2.125.971-.064 1.624.199 2.062.581 1.002.859.955 2.347.955 2.347s.047.868-.573 1.226c-1.624-.637-3.9-.565-4.609-.215z" fill="url(#paint9_linear)"/></g><defs><linearGradient id="paint0_linear" x1="16.543" y1="33.519" x2="185.507" y2="64.913" gradientUnits="userSpaceOnUse"><stop stop-color="#FEB692"/><stop offset="1" stop-color="#EA5455"/></linearGradient><linearGradient id="paint1_linear" x1="135.414" y1="110.956" x2="181.825" y2="92.391" gradientUnits="userSpaceOnUse"><stop stop-color="#FFF7CC"/><stop offset="1" stop-color="#FFE4AD"/></linearGradient><linearGradient id="paint2_linear" x1="129.379" y1="95.865" x2="175.79" y2="77.3" gradientUnits="userSpaceOnUse"><stop stop-color="#FFF7CC"/><stop offset="1" stop-color="#FFE4AD"/></linearGradient><linearGradient id="paint3_linear" x1="123.346" y1="80.783" x2="169.757" y2="62.219" gradientUnits="userSpaceOnUse"><stop stop-color="#FFF7CC"/><stop offset="1" stop-color="#FFE4AD"/></linearGradient><linearGradient id="paint4_linear" x1="112.886" y1="94.783" x2="201.913" y2="94.783" gradientUnits="userSpaceOnUse"><stop stop-color="#E6ECED"/><stop offset="1" stop-color="#C8D1DD"/></linearGradient><linearGradient id="paint5_linear" x1="117.312" y1="65.699" x2="163.723" y2="47.135" gradientUnits="userSpaceOnUse"><stop stop-color="#FFF7CC"/><stop offset="1" stop-color="#FFE4AD"/></linearGradient><linearGradient id="paint6_linear" x1="118.432" y1="139" x2="130.113" y2="139" gradientUnits="userSpaceOnUse"><stop stop-color="#B5E1FF"/><stop offset="1" stop-color="#88ACFF"/></linearGradient><linearGradient id="paint7_linear" x1="114.184" y1="153.185" x2="122.272" y2="153.185" gradientUnits="userSpaceOnUse"><stop stop-color="#B5E1FF"/><stop offset="1" stop-color="#88ACFF"/></linearGradient><linearGradient id="paint8_linear" x1="104.808" y1="143.923" x2="118.978" y2="143.923" gradientUnits="userSpaceOnUse"><stop stop-color="#B5E1FF"/><stop offset="1" stop-color="#88ACFF"/></linearGradient><linearGradient id="paint9_linear" x1="116.682" y1="147.336" x2="121.994" y2="147.336" gradientUnits="userSpaceOnUse"><stop stop-color="#B5E1FF"/><stop offset="1" stop-color="#88ACFF"/></linearGradient><clipPath id="clip0"><path fill="#fff" transform="translate(34.498 94.158)" d="M0 0h127.149v93.396H0z"/></clipPath></defs></svg>