<svg width="18" height="18" fill="none" xmlns="http://www.w3.org/2000/svg"><circle cx="9" cy="9" r="8.5" stroke="#9B9B9B"/><path d="M10.68 9.9c-.538 0-.797.3-1.68.3-.883 0-1.14-.3-1.68-.3a2.52 2.52 0 00-2.52 2.52v.48a.9.9 0 00.9.9h6.6a.9.9 0 00.9-.9v-.48a2.52 2.52 0 00-2.52-2.52zm1.62 3H5.7v-.48c0-.892.727-1.62 1.62-1.62.274 0 .718.3 1.68.3.97 0 1.404-.3 1.68-.3.892 0 1.62.728 1.62 1.62v.48zM9 9.6a2.7 2.7 0 10-.002-5.4A2.7 2.7 0 009 9.6zm0-4.5c.992 0 1.8.808 1.8 1.8S9.992 8.7 9 8.7s-1.8-.808-1.8-1.8.808-1.8 1.8-1.8z" fill="#9B9B9B"/></svg>