<svg width="14" height="16" fill="none" xmlns="http://www.w3.org/2000/svg"><path d="M11.903 3.034A6.885 6.885 0 006.997 1 6.946 6.946 0 00.984 11.406L0 15l3.678-.966a6.917 6.917 0 003.316.844h.003c3.822 0 7.003-3.112 7.003-6.937 0-1.853-.787-3.594-2.097-4.907zM6.997 13.71a5.756 5.756 0 01-2.938-.803l-.209-.125-2.181.572.581-2.128-.138-.219a5.747 5.747 0 01-.88-3.069A5.774 5.774 0 017 2.173c1.54 0 2.988.6 4.075 1.69 1.088 1.091 1.756 2.538 1.753 4.079 0 3.18-2.653 5.768-5.831 5.768zm3.162-4.318c-.171-.088-1.025-.507-1.184-.563-.16-.06-.275-.087-.39.088a9.967 9.967 0 01-.55.68c-.1.117-.204.132-.376.045-1.018-.51-1.687-.91-2.359-2.063-.178-.306.178-.284.51-.947.056-.115.028-.215-.016-.303-.044-.087-.39-.94-.535-1.287-.14-.338-.284-.291-.39-.297-.1-.006-.216-.006-.332-.006a.642.642 0 00-.462.215c-.16.175-.606.594-.606 1.447 0 .853.622 1.678.706 1.794.088.115 1.222 1.865 2.963 2.618 1.1.476 1.53.516 2.08.435.335-.05 1.026-.419 1.17-.825.143-.406.143-.753.1-.825-.041-.078-.157-.122-.329-.206z" fill="#000"/></svg>