<svg width="14" height="14" viewBox="0 0 14 14" fill="none" xmlns="http://www.w3.org/2000/svg">
<path d="M5.25 5.6875C5.25 5.20434 4.85816 4.8125 4.375 4.8125H3.9375C2.9709 4.8125 2.1875 5.5959 2.1875 6.5625V7.875C2.1875 8.8416 2.9709 9.625 3.9375 9.625H4.375C4.85816 9.625 5.25 9.23316 5.25 8.75V5.6875ZM10.0625 9.625C11.0291 9.625 11.8125 8.8416 11.8125 7.875V6.5625C11.8125 5.5959 11.0291 4.8125 10.0625 4.8125H9.625C9.14184 4.8125 8.75 5.20434 8.75 5.6875V8.75C8.75 9.23316 9.14184 9.625 9.625 9.625H10.0625ZM7 0C3.09477 0 0.125234 3.24926 0 7V7.4375C0 7.67922 0.195781 7.875 0.4375 7.875H0.875C1.11672 7.875 1.3125 7.67922 1.3125 7.4375V7C1.3125 3.86395 3.86395 1.3125 7 1.3125C10.1361 1.3125 12.6875 3.86395 12.6875 7H12.6842C12.6864 7.06645 12.6875 11.5314 12.6875 11.5314C12.6875 12.1699 12.1699 12.6875 11.5314 12.6875H8.75C8.75 11.9626 8.16238 11.375 7.4375 11.375H6.5625C5.83762 11.375 5.25 11.9626 5.25 12.6875C5.25 13.4124 5.83762 14 6.5625 14H11.5314C12.8948 14 14 12.8948 14 11.5314V7C13.8748 3.24926 10.9052 0 7 0Z" fill="black"/>
</svg>
