<svg width="241" height="207" viewBox="0 0 241 207" fill="none" xmlns="http://www.w3.org/2000/svg">
<circle cx="89" cy="86" r="86" fill="url(#paint0_linear)"/>
<g clip-path="url(#clip0)">
<path d="M31.1002 115.097C31.7264 115.92 32.589 116.549 33.4796 117.065L140.745 179.228C141.984 179.954 143.334 180.471 144.781 180.778C146.158 181.071 147.633 181.238 149.122 181.238C152.072 181.252 155.077 180.638 157.512 179.228L208.55 149.647C209.997 148.81 211.556 147.372 211.931 145.739C211.987 145.473 212.015 145.194 212.015 144.915C212.015 148.237 212.015 149.229 212.015 152.551C212.015 154.645 210.401 156.334 208.55 157.409L157.512 186.99C156.274 187.716 154.924 188.232 153.477 188.539C149.331 189.433 144.405 189.112 140.759 186.99L33.4657 124.827C33.0065 124.562 32.5473 124.254 32.116 123.905C30.9611 122.984 30.001 121.434 30.001 119.941C30.001 116.59 30.001 115.557 30.001 112.207C30.0288 113.24 30.4602 114.273 31.1002 115.097Z" fill="#596876"/>
<path d="M187.331 164.319C187.665 164.137 187.957 164.109 188.179 164.207C188.43 164.332 188.597 164.612 188.597 165.044V165.589C188.597 166.399 188.026 167.376 187.331 167.781L178.704 172.778C178.356 172.988 178.036 173.002 177.813 172.876C177.577 172.75 177.438 172.457 177.438 172.052V171.508C177.438 170.698 178.008 169.721 178.704 169.33L187.331 164.319Z" fill="#1C1A2A"/>
<path d="M168.156 175.291C169.353 174.062 170.508 174.551 170.48 175.821C170.425 177.72 168.56 179.577 167.53 178.934C167.391 178.851 167.28 178.725 167.182 178.558C167.016 178.264 167.002 177.901 167.043 177.552C167.099 177.134 167.224 176.729 167.405 176.352C167.503 176.198 167.586 176.045 167.669 175.891C167.823 175.668 167.976 175.472 168.156 175.291Z" fill="#1C1A2A"/>
<path d="M33.1869 114.622C34.0635 115.683 34.7732 115.976 37.8622 117.777C37.9178 117.805 142.387 178.377 142.93 178.642C144.697 179.507 146.909 179.94 149.121 179.94L149.108 181.238C147.633 181.238 146.158 181.071 144.766 180.778C143.319 180.471 141.97 179.954 140.731 179.228L33.4652 117.065C32.5747 116.548 31.7259 115.92 31.0859 115.097C30.4597 114.273 30.0284 113.24 30.0005 112.207C29.9866 111.886 30.0145 111.565 30.084 111.258C30.4597 109.624 32.0181 108.186 33.4652 107.363L84.5031 77.7819C86.9382 76.372 89.9297 75.7578 92.8796 75.7717L92.8657 77.07C91.7804 77.07 90.6533 77.1817 89.568 77.405C87.3556 77.8797 86.2842 78.5497 84.6423 79.5409C82.9726 80.546 88.427 77.3073 65.4822 90.611C61.7531 92.7748 58.0241 94.9805 54.295 97.1442C50.566 99.308 46.8091 101.43 43.0801 103.622C41.5216 104.529 39.9772 105.464 38.4187 106.344C36.596 107.377 34.8984 108.284 34.0218 108.982C32.1016 110.532 31.5868 112.696 33.1869 114.622Z" fill="#717F90"/>
<path d="M58.9149 135.924L59.7776 135.436L50.3576 129.978L49.5088 130.466L58.9149 135.924Z" fill="#403D54"/>
<path d="M59.7777 136.622V135.436L58.915 135.924V137.111L59.7777 136.622Z" fill="#2F2D3D"/>
<path d="M58.9149 137.111V135.924L49.5088 130.466V131.666L58.9149 137.111Z" fill="#585858"/>
<path d="M162.66 180.317C162.841 180.205 162.994 179.954 162.994 179.758C162.994 179.549 162.841 179.479 162.66 179.577C162.479 179.688 162.326 179.94 162.326 180.135C162.326 180.344 162.479 180.428 162.66 180.317Z" fill="#1C1A2A"/>
<path d="M205.794 157.115C206.072 156.948 206.309 156.557 206.309 156.25V153.793C206.309 153.472 206.072 153.36 205.794 153.513C205.516 153.681 205.279 154.072 205.279 154.379V156.836C205.279 157.157 205.516 157.269 205.794 157.115Z" fill="#1C1A2A"/>
<path d="M203.735 158.302C204.013 158.134 204.249 157.743 204.249 157.436V154.979C204.249 154.658 204.013 154.546 203.735 154.7C203.456 154.867 203.22 155.258 203.22 155.565V158.022C203.22 158.343 203.456 158.469 203.735 158.302Z" fill="#1C1A2A"/>
<path d="M201.69 159.488C201.968 159.321 202.204 158.93 202.204 158.623V156.166C202.204 155.845 201.968 155.733 201.69 155.886C201.411 156.054 201.175 156.445 201.175 156.752V159.209C201.175 159.53 201.397 159.656 201.69 159.488Z" fill="#1C1A2A"/>
<path d="M199.63 160.675C199.908 160.507 200.145 160.116 200.145 159.809V157.352C200.145 157.031 199.908 156.919 199.63 157.073C199.352 157.24 199.115 157.631 199.115 157.938V160.395C199.115 160.717 199.352 160.842 199.63 160.675Z" fill="#1C1A2A"/>
<path d="M197.585 161.876C197.863 161.708 198.1 161.317 198.1 161.01V158.553C198.1 158.232 197.863 158.121 197.585 158.274C197.307 158.442 197.07 158.833 197.07 159.14V161.597C197.07 161.918 197.293 162.029 197.585 161.876Z" fill="#1C1A2A"/>
<path d="M195.526 163.062C195.804 162.895 196.04 162.504 196.04 162.197V159.74C196.04 159.419 195.804 159.307 195.526 159.461C195.247 159.628 195.011 160.019 195.011 160.326V162.783C195.011 163.104 195.247 163.23 195.526 163.062Z" fill="#1C1A2A"/>
<path d="M208.536 149.647L157.484 179.228C155.049 180.638 152.057 181.252 149.093 181.238L149.107 179.94C151.069 179.94 153.045 179.591 154.729 178.879C155.717 178.46 156.454 177.985 157.331 177.455C159.001 176.45 153.546 179.689 176.491 166.385C180.22 164.221 183.949 162.015 187.678 159.852C191.421 157.688 195.164 155.566 198.893 153.374C200.451 152.467 201.996 151.532 203.554 150.652C206.643 148.907 208.104 148.223 209.05 146.841C210.303 145.04 210.011 142.653 206.922 140.824C206.796 140.754 99.5305 78.5633 99.0435 78.326C97.3459 77.5024 95.1474 77.0278 92.8516 77.0278L92.8655 75.7295C94.3404 75.7295 95.8153 75.897 97.2068 76.1902C98.6539 76.4973 100.004 77.0138 101.242 77.7397L208.494 139.903C209.384 140.419 210.233 141.048 210.873 141.871C211.541 142.737 211.959 143.812 211.959 144.887C211.959 145.166 211.931 145.445 211.875 145.71C211.541 147.385 209.969 148.823 208.536 149.647Z" fill="#717F90"/>
<path d="M101.048 79.4986C99.7953 78.7727 99.1135 78.3679 99.0718 78.3539C97.3742 77.5303 95.1758 77.0557 92.8799 77.0557C91.7946 77.0557 90.6675 77.1673 89.5822 77.4047C87.3698 77.8793 86.2984 78.5494 84.6565 79.5405C83.112 80.4758 87.7177 77.7397 69.8794 88.07L65.4825 90.6107C61.7534 92.7745 58.0244 94.9801 54.2953 97.1439C53.2657 97.7302 52.2499 98.3305 51.2203 98.9168C48.507 100.48 45.7797 102.03 43.0803 103.621C41.5219 104.543 39.9774 105.464 38.419 106.343C36.5962 107.376 34.8987 108.284 34.0221 108.982C32.088 110.545 31.5732 112.723 33.1594 114.636C34.0499 115.697 34.7456 115.99 37.8346 117.791L83.1955 144.077C111.483 160.48 142.61 178.502 142.902 178.655C144.669 179.521 146.882 179.954 149.094 179.954C151.056 179.954 153.032 179.605 154.715 178.893C155.703 178.474 156.441 177.999 157.317 177.469C158.987 176.464 153.533 179.702 176.477 166.399C180.206 164.235 183.936 162.029 187.665 159.866C191.408 157.702 195.151 155.58 198.88 153.402C200.424 152.495 201.982 151.559 203.541 150.68C206.63 148.935 208.091 148.251 209.037 146.869C210.248 145.138 210.025 142.862 207.256 141.076C207.145 141.006 207.033 140.922 206.908 140.852C206.839 140.796 115.727 87.9723 101.048 79.4986Z" fill="#717F90"/>
<path d="M207.285 141.078C210.04 142.878 210.263 145.14 209.066 146.871C208.106 148.253 206.659 148.937 203.57 150.682C202.011 151.561 200.453 152.497 198.908 153.404C195.179 155.596 191.423 157.718 187.693 159.868C183.964 162.031 180.235 164.237 176.506 166.401C153.548 179.704 159.016 176.466 157.346 177.471C156.47 178.001 155.732 178.476 154.744 178.895C151.154 180.402 146.243 180.277 142.931 178.644C142.43 178.406 51.597 125.736 37.8496 117.779C34.7606 115.964 34.0649 115.685 33.1743 114.624C31.5742 112.697 32.089 110.533 34.037 108.97C35.0945 108.118 36.0129 107.783 43.0953 103.609C45.2103 102.367 83.1687 80.4359 84.6575 79.5425C86.2994 78.5514 87.3708 77.8813 89.5832 77.4067C92.9644 76.6807 96.5961 77.1554 99.0728 78.3699C99.1424 78.3978 96.2343 76.7087 207.285 141.078Z" fill="url(#paint1_linear)"/>
<path d="M67.6805 92.1039C68.1397 91.8247 68.8911 91.8247 69.3503 92.1039L69.9764 92.4669L58.6084 99.0559C58.1492 99.3212 57.3978 99.3212 56.9247 99.0559L56.3125 98.693L67.6805 92.1039Z" fill="#090000"/>
<path d="M69.3507 90.9454L70.1299 91.3922C70.603 91.6574 70.5891 92.0902 70.1299 92.3554L69.9629 92.4531L69.3368 92.0902C68.8776 91.811 68.1262 91.811 67.6671 92.0902L56.299 98.6792L56.132 98.5815C55.9094 98.4558 55.7842 98.2744 55.7842 98.1068C55.7842 98.1068 55.7842 98.1068 55.7842 98.0929C55.7842 97.9114 55.9094 97.7439 56.132 97.6043L67.6531 90.9175C68.1401 90.6663 68.8915 90.6663 69.3507 90.9454Z" fill="#1A2738"/>
<path d="M81.0524 84.831C81.9986 85.3755 83.5292 85.3755 84.4753 84.831C85.4215 84.2866 85.4215 83.3932 84.4753 82.8488C83.5292 82.3043 81.9986 82.3043 81.0524 82.8488C80.1062 83.4071 80.1062 84.2866 81.0524 84.831Z" fill="#717F90"/>
<g opacity="0.27">
<path opacity="0.27" d="M79.299 104.515L56.0342 118C55.2828 118.433 54.0583 118.433 53.293 118C52.5416 117.567 52.5416 116.855 53.293 116.408L76.5579 102.923C77.3092 102.49 78.5337 102.49 79.299 102.923C80.0643 103.37 80.0643 104.082 79.299 104.515Z" fill="#717F90"/>
<path opacity="0.27" d="M77.741 111.76L61.5029 121.169C60.7515 121.601 59.5271 121.601 58.7618 121.169C58.0104 120.736 58.0104 120.024 58.7618 119.577L74.9998 110.168C75.7512 109.736 76.9757 109.736 77.741 110.168C78.5063 110.615 78.5063 111.327 77.741 111.76Z" fill="#717F90"/>
<path opacity="0.27" d="M83.2088 114.929L66.9707 124.338C66.2193 124.77 64.9948 124.77 64.2295 124.338C63.4782 123.905 63.4782 123.193 64.2295 122.746L80.4676 113.337C81.219 112.905 82.4435 112.905 83.2088 113.337C83.974 113.784 83.974 114.496 83.2088 114.929Z" fill="#717F90"/>
</g>
<g opacity="0.27">
<path opacity="0.27" d="M124.688 97.8554L101.423 111.341C100.671 111.773 99.447 111.773 98.6817 111.341C97.9303 110.908 97.9303 110.196 98.6817 109.749L121.947 96.264C122.698 95.8313 123.922 95.8313 124.688 96.264C125.439 96.7107 125.439 97.4227 124.688 97.8554Z" fill="#717F90"/>
<path opacity="0.27" d="M123.13 105.101L106.892 114.51C106.14 114.942 104.916 114.942 104.15 114.51C103.399 114.077 103.399 113.365 104.15 112.918L120.388 103.509C121.14 103.076 122.364 103.076 123.13 103.509C123.881 103.956 123.881 104.668 123.13 105.101Z" fill="#717F90"/>
<path opacity="0.27" d="M128.597 108.27L112.359 117.678C111.608 118.111 110.384 118.111 109.618 117.678C108.867 117.246 108.867 116.534 109.618 116.087L125.856 106.678C126.608 106.245 127.832 106.245 128.597 106.678C129.349 107.125 129.349 107.837 128.597 108.27Z" fill="#717F90"/>
</g>
<g opacity="0.27">
<path opacity="0.27" d="M115.045 127.158L91.7803 140.643C91.0289 141.076 89.8044 141.076 89.0391 140.643C88.2877 140.211 88.2877 139.499 89.0391 139.052L112.304 125.567C113.055 125.134 114.28 125.134 115.045 125.567C115.81 126.013 115.81 126.711 115.045 127.158Z" fill="#717F90"/>
<path opacity="0.27" d="M113.501 134.403L97.2627 143.812C96.5113 144.245 95.2868 144.245 94.5215 143.812C93.7702 143.379 93.7702 142.668 94.5215 142.221L110.76 132.812C111.511 132.379 112.735 132.379 113.501 132.812C114.252 133.245 114.252 133.957 113.501 134.403Z" fill="#717F90"/>
<path opacity="0.27" d="M118.969 137.572L102.731 146.981C101.98 147.414 100.756 147.414 99.9903 146.981C99.2389 146.548 99.2389 145.836 99.9903 145.39L116.228 135.981C116.98 135.548 118.204 135.548 118.969 135.981C119.721 136.428 119.721 137.126 118.969 137.572Z" fill="#717F90"/>
</g>
<path opacity="0.69" d="M102.953 125.105L86.8404 134.445C85.4351 135.254 83.1531 135.254 81.7338 134.445L72.5364 129.112C71.1311 128.302 71.1311 126.976 72.5364 126.152L88.6493 116.813C90.0546 116.004 92.3366 116.004 93.7558 116.813L102.953 122.146C104.359 122.97 104.359 124.296 102.953 125.105Z" fill="#FCFCFC"/>
<g opacity="0.27">
<path opacity="0.27" d="M162.674 120.666L139.409 134.151C138.658 134.584 137.433 134.584 136.668 134.151C135.917 133.718 135.917 133.006 136.668 132.56L159.933 119.075C160.684 118.642 161.909 118.642 162.674 119.075C163.439 119.521 163.439 120.233 162.674 120.666Z" fill="#717F90"/>
<path opacity="0.27" d="M161.116 127.911L144.878 137.32C144.127 137.753 142.902 137.753 142.137 137.32C141.385 136.887 141.385 136.175 142.137 135.729L158.375 126.32C159.126 125.887 160.351 125.887 161.116 126.32C161.881 126.766 161.881 127.478 161.116 127.911Z" fill="#717F90"/>
<path opacity="0.27" d="M166.597 131.08L150.359 140.489C149.608 140.922 148.384 140.922 147.618 140.489C146.867 140.056 146.867 139.344 147.618 138.898L163.856 129.489C164.608 129.056 165.832 129.056 166.597 129.489C167.349 129.935 167.349 130.647 166.597 131.08Z" fill="#717F90"/>
</g>
<path opacity="0.69" d="M140.954 147.916L124.841 157.255C123.436 158.065 121.154 158.065 119.735 157.255L110.537 151.922C109.132 151.113 109.132 149.787 110.537 148.963L126.65 139.624C128.056 138.814 130.338 138.814 131.757 139.624L140.954 144.957C142.36 145.766 142.36 147.092 140.954 147.916Z" fill="#FCFCFC"/>
<path opacity="0.69" d="M151.682 118.949L135.569 128.288C134.164 129.098 131.882 129.098 130.462 128.288L121.265 122.956C119.86 122.146 119.86 120.82 121.265 119.996L137.378 110.657C138.783 109.847 141.065 109.847 142.484 110.657L151.682 115.99C153.087 116.813 153.087 118.14 151.682 118.949Z" fill="#FCFCFC"/>
<g opacity="0.27">
<path opacity="0.27" d="M157.693 150.652L134.428 164.138C133.676 164.57 132.452 164.57 131.687 164.138C130.935 163.705 130.935 162.993 131.687 162.546L154.951 149.061C155.703 148.628 156.927 148.628 157.693 149.061C158.444 149.508 158.444 150.206 157.693 150.652Z" fill="#717F90"/>
<path opacity="0.27" d="M156.135 157.897L139.896 167.306C139.145 167.739 137.921 167.739 137.155 167.306C136.404 166.874 136.404 166.162 137.155 165.715L153.393 156.306C154.145 155.873 155.369 155.873 156.135 156.306C156.886 156.739 156.886 157.451 156.135 157.897Z" fill="#717F90"/>
<path opacity="0.27" d="M161.602 161.066L145.364 170.475C144.613 170.908 143.388 170.908 142.623 170.475C141.872 170.043 141.872 169.331 142.623 168.884L158.861 159.475C159.613 159.042 160.837 159.042 161.602 159.475C162.354 159.908 162.354 160.62 161.602 161.066Z" fill="#717F90"/>
</g>
<path opacity="0.69" d="M194.316 142.444L178.203 151.783C176.797 152.593 174.515 152.593 173.096 151.783L163.899 146.451C162.493 145.641 162.493 144.315 163.899 143.491L180.012 134.152C181.417 133.343 183.699 133.343 185.118 134.152L194.316 139.485C195.721 140.308 195.721 141.621 194.316 142.444Z" fill="#FCFCFC"/>
<path opacity="0.69" d="M112.582 96.293L96.4693 105.632C95.064 106.442 92.782 106.442 91.3627 105.632L82.1653 100.299C80.76 99.4898 80.76 98.1636 82.1653 97.3399L98.2782 88.0008C99.6835 87.1911 101.965 87.1911 103.385 88.0008L112.582 93.3335C113.988 94.1571 113.988 95.4833 112.582 96.293Z" fill="#FCFCFC"/>
<path d="M173.513 154.645C172.929 153.611 171.329 152.9 170.146 152.676C168.601 152.369 167.057 152.648 165.958 153.29C165.109 153.793 164.678 154.351 164.678 154.993C164.678 155.231 164.678 155.482 164.678 155.719C164.678 156.585 165.526 157.255 166.278 157.688C167.335 158.302 168.866 158.665 170.424 158.456C171.579 158.302 173.04 157.716 173.569 156.683C173.666 156.487 173.722 156.292 173.722 156.096C173.722 155.859 173.722 155.608 173.722 155.37C173.708 155.105 173.638 154.882 173.513 154.645ZM170.021 151.769L176.282 155.398L177.047 154.952V154.226L175.489 153.318L179.093 153.765L180.039 153.221V152.495L175.294 151.95C175.336 150.443 175.322 150.889 175.322 149.968L174.334 150.54C174.334 151.448 174.334 150.987 174.348 152.662L170.786 150.596L170.021 151.043V151.769ZM183.017 159.642C178.495 162.643 171.523 163.146 166.208 161.75C163.648 161.066 160.754 159.754 159.112 157.66C157.303 155.356 157.414 152.816 159.098 150.694C163.244 145.431 175.211 144.161 182.349 148.265C182.349 148.265 182.349 148.265 182.363 148.265C183.462 148.893 184.478 149.675 185.257 150.666C187.775 153.863 186.481 157.339 183.017 159.642Z" fill="#C5BED1"/>
<path d="M154.618 153.304C155.397 154.295 156.427 155.077 157.526 155.719C162.424 158.539 169.715 158.86 175.128 156.962C177.215 156.236 179.399 155.035 180.763 153.304C181.556 152.299 182.071 151.14 182.071 149.828C182.071 151.085 182.071 152.327 182.071 153.583C182.071 156.627 179.357 158.874 176.589 160.144C171.371 162.532 163.968 162.532 158.75 160.13C155.995 158.86 153.296 156.613 153.296 153.583C153.296 152.341 153.296 151.098 153.296 149.842C153.31 151.126 153.839 152.313 154.618 153.304Z" fill="#D2448D"/>
<path d="M175.558 148.153V148.879L174.612 149.438V148.712L175.558 148.153Z" fill="#E8ACD5"/>
<path d="M174.613 148.711V149.437L171.009 148.976L170.786 148.865V148.236L174.613 148.711Z" fill="#E8ACD5"/>
<path d="M172.567 149.884V150.61L171.802 151.056V150.33L172.567 149.884Z" fill="#E8ACD5"/>
<path d="M171.803 150.331V151.057L165.541 147.427V146.701L171.803 150.331Z" fill="#E8ACD5"/>
<path d="M172.568 149.884L171.802 150.33L165.541 146.701L166.306 146.254L169.868 148.32C169.882 148.334 169.882 148.488 169.854 146.198L170.842 145.626L170.787 147.608C171.176 147.65 169.451 147.455 175.545 148.153L174.599 148.697L170.787 148.223L170.759 148.837C170.801 148.865 170.926 148.934 172.568 149.884Z" fill="#FBFAFC"/>
<path d="M169.02 150.303C168.435 149.27 166.835 148.558 165.653 148.334C164.108 148.027 162.564 148.306 161.464 148.949C160.616 149.451 160.184 150.01 160.184 150.652C160.184 150.889 160.184 151.14 160.184 151.378C160.184 152.243 161.033 152.913 161.784 153.346C162.842 153.96 164.372 154.323 165.931 154.114C167.086 153.96 168.547 153.374 169.075 152.341C169.173 152.145 169.229 151.95 169.229 151.755C169.229 151.517 169.229 151.266 169.229 151.029C169.215 150.763 169.159 150.54 169.02 150.303ZM165.541 147.427L171.803 151.057L172.568 150.61V149.884L171.01 148.977L174.613 149.423L175.56 148.879V148.153L170.815 147.608C170.857 146.101 170.843 146.548 170.843 145.626L169.855 146.199C169.855 147.106 169.855 146.645 169.869 148.32L166.307 146.254L165.541 146.701V147.427ZM178.537 155.3C174.015 158.302 167.044 158.804 161.729 157.408C159.168 156.724 156.274 155.412 154.632 153.318C152.823 151.015 152.935 148.474 154.618 146.352C158.765 141.089 170.731 139.819 177.869 143.923C177.869 143.923 177.869 143.923 177.883 143.923C178.983 144.551 179.998 145.333 180.778 146.324C183.296 149.521 182.002 152.997 178.537 155.3Z" fill="#FF73B5"/>
<path d="M168.115 151.127C168.143 150.443 167.447 149.912 166.849 149.577C165.151 148.6 163.342 148.684 162.187 149.34C161.603 149.675 161.297 150.094 161.283 150.568C161.255 151.21 162.118 151.783 162.66 152.104C164.247 153.025 166.069 152.955 167.224 152.271C167.683 152.02 168.087 151.657 168.115 151.127ZM169.214 151.001C169.214 151.727 168.56 152.327 167.934 152.704C166.125 153.751 163.551 153.639 161.784 152.606C161.032 152.174 160.184 151.517 160.184 150.638C160.184 149.996 160.615 149.437 161.464 148.935C163.203 147.93 165.708 147.93 167.697 149.088C168.407 149.493 169.214 150.177 169.214 151.001Z" fill="#FBFAFC"/>
<path d="M166.849 150.303C167.503 150.68 167.892 151.057 168.045 151.448C167.628 152.536 165.04 153.486 162.66 152.104C161.951 151.685 161.52 151.294 161.353 150.931C161.784 149.814 164.344 148.851 166.849 150.303Z" fill="#FF73B5"/>
<path d="M168.101 151.015C168.115 151.14 168.087 151.308 168.032 151.461C167.878 151.07 167.489 150.693 166.835 150.317C164.344 148.865 161.77 149.814 161.339 150.945C161.283 150.819 161.255 150.707 161.269 150.582C161.283 150.107 161.589 149.688 162.174 149.353C163.328 148.683 165.137 148.599 166.835 149.591C167.656 150.051 168.073 150.526 168.101 151.015Z" fill="#E8ACD5"/>
<path d="M161.784 152.605C163.537 153.624 166.111 153.75 167.934 152.703C168.56 152.34 169.214 151.726 169.214 151C169.214 151.237 169.214 151.489 169.214 151.726C169.214 151.921 169.159 152.117 169.061 152.312C168.546 153.345 167.071 153.932 165.917 154.085C164.372 154.294 162.841 153.945 161.77 153.317C161.019 152.885 160.17 152.228 160.17 151.349C160.17 151.112 160.17 150.86 160.17 150.623C160.184 151.503 161.033 152.159 161.784 152.605Z" fill="#E8ACD5"/>
<path d="M99.4327 132.644C113.98 132.644 125.773 125.813 125.773 117.386C125.773 108.959 113.98 102.128 99.4327 102.128C84.8856 102.128 73.0928 108.959 73.0928 117.386C73.0928 125.813 84.8856 132.644 99.4327 132.644Z" fill="#B0A7C2"/>
<path d="M115.101 108.312C123.756 113.324 123.756 121.462 115.101 126.474C106.446 131.485 92.3929 131.485 83.7381 126.474C75.0834 121.462 75.0834 113.324 83.7381 108.312C92.4068 103.287 106.446 103.287 115.101 108.312Z" fill="#312E61"/>
<path d="M122.948 100.857C122.948 102.881 122.461 106.511 121.807 110.308C120.694 116.813 116.033 122.16 109.743 124.086C104.998 125.538 100.045 126.153 96.3298 126.153H96.1071C91.3345 126.125 86.2001 123.416 82.471 119.536C79.6186 116.548 77.5871 112.877 77.2531 109.191C77.1418 108.033 77.0723 106.762 77.0723 105.366C77.0723 98.7912 80.9405 93.6121 86.1305 90.3595C86.6036 91.0016 87.2158 91.4902 87.9394 91.7973C88.6629 92.1184 89.5117 92.272 90.4579 92.272C91.251 92.272 91.9606 92.0905 92.559 91.7973C93.4495 95.2175 97.1785 97.2696 100.713 97.2696C105.666 97.2696 107.684 93.9332 108.491 89.131C109.159 88.9216 109.771 88.5726 110.286 88.0701C111.566 86.8276 112.61 85.1385 113.458 83.2539C120.346 83.6727 122.948 93.9751 122.948 100.857Z" fill="#716DE1"/>
<path d="M118.273 54.4551C119.553 56.6747 120.499 58.7826 120.499 61.3233C120.499 63.6686 119.58 67.4238 117.257 67.4238C117.09 67.4238 116.923 67.4098 116.756 67.3679C117.062 66.3349 117.145 65.2181 117.145 64.1013C117.145 62.5937 116.992 61.072 116.992 59.6761C116.992 58.0009 118.328 56.9539 118.328 55.2927C118.328 55.0135 118.3 54.7343 118.273 54.4551Z" fill="#283C48"/>
<path d="M115.601 62.3569C115.559 62.4127 115.518 62.4546 115.476 62.5104C114.947 62.9013 114.446 63.3341 113.987 63.8087C113.389 64.1996 112.651 64.5765 111.733 64.9394C111.524 65.0232 111.204 64.8417 111.204 64.6044C111.204 62.5942 113.931 61.0167 115.323 59.3136C115.364 59.2578 115.406 59.2159 115.448 59.1601C115.476 59.1182 115.518 59.0763 115.545 59.0344C115.712 58.7971 116.074 58.8669 116.144 59.1321C116.38 59.886 116.533 61.0865 115.601 62.3569Z" fill="#7F542E"/>
<path d="M115.602 62.3564C115.602 62.3845 115.602 62.3985 115.602 62.4266C115.56 62.4547 115.518 62.4827 115.49 62.5108C115.518 62.4687 115.56 62.4126 115.602 62.3564Z" fill="#D49063"/>
<path d="M115.462 59.1594C115.42 59.2153 115.379 59.2572 115.337 59.313C114.029 56.7025 111.677 56.2 109.813 55.9068C108.616 55.7114 107.392 55.851 106.251 56.2698C104.539 56.9119 102.689 57.3167 101.325 58.601C101.047 58.8663 100.782 59.1594 100.532 59.4945C100.504 59.5364 100.462 59.5922 100.434 59.6341C99.377 60.9184 96.455 60.5973 100.142 51.7468C101.548 48.3964 99.3213 46.4979 97.6377 44.013C99.5718 43.0358 101.701 42.2959 104.024 41.8632C105.026 41.8213 106.084 41.584 107.099 41.584C109.994 41.584 111.246 44.0409 112.693 46.4281C112.916 46.9864 113.097 47.4332 113.305 47.6844C113.486 47.9078 115.045 48.8989 116.38 50.5043C117.271 51.5792 118.064 52.9054 118.287 54.441C118.328 54.7202 118.342 54.9854 118.342 55.2786C118.342 56.9398 117.006 57.9868 117.006 59.662C117.006 61.058 117.16 62.5796 117.16 64.0873C117.16 65.218 117.076 66.3208 116.77 67.3539C116.603 67.8983 116.38 68.4288 116.074 68.9174C115.866 67.4237 115.532 66.8653 115.532 64.8551C115.532 64.0314 115.587 63.2218 115.615 62.3981C115.615 62.3702 115.615 62.3562 115.615 62.3283C116.561 61.058 116.394 59.8435 116.172 59.0896C116.088 58.8104 115.74 58.7546 115.573 58.9919C115.518 59.0757 115.49 59.1176 115.462 59.1594Z" fill="#A26D42"/>
<path d="M109.813 55.907C111.678 56.2002 114.029 56.7028 115.337 59.3132C113.946 61.0163 111.219 62.6078 111.219 64.604C111.219 64.8413 111.525 65.0228 111.747 64.9391C112.666 64.5761 113.403 64.1992 114.002 63.8083C112.554 65.2601 111.441 67.047 111.01 68.9874C110.954 69.2666 110.899 69.5458 110.871 69.825C110.829 70.1321 110.815 70.4253 110.815 70.7324C110.815 76.0092 113.431 75.2414 113.431 77.4192C113.431 78.1311 112.93 79.6388 111.72 79.6388C110.815 79.6388 109.813 78.9408 109.159 78.9408C109.159 78.9408 109.159 78.9408 109.145 78.9408C108.589 78.9548 108.491 79.7505 109.02 79.904C109.869 80.1693 110.773 80.5881 110.773 81.5234C110.773 81.6909 110.746 81.8584 110.69 82.0678C109.299 82.7518 108.06 82.7518 106.571 82.7518C106.084 82.7518 105.583 82.682 105.069 82.5424C106.279 83.394 108.102 84.0361 109.813 84.0361C109.925 84.0361 110.022 84.0361 110.119 84.0222C109.424 84.2874 108.519 84.7621 107.392 85.8788C106.585 86.6746 104.776 87.4982 102.759 87.4982C100.755 87.4982 98.3896 86.9119 96.386 86.0882C96.0103 85.9207 95.6346 85.7393 95.2728 85.5438C94.7719 81.0906 92.1143 77.3354 92.1143 73.4965C92.1143 72.9241 92.1699 72.3378 92.2951 71.7236C92.4899 70.8301 93.1022 70.0623 93.937 69.6994C96.9147 68.3872 98.1531 62.7474 100.421 59.6064C100.463 59.5645 100.491 59.5087 100.519 59.4668C100.769 59.1318 101.033 58.8386 101.312 58.5734C102.675 57.2891 104.526 56.8842 106.237 56.2421C107.392 55.8512 108.617 55.7116 109.813 55.907ZM111.65 75.4229C111.427 75.2275 111.149 75.1437 110.871 75.1437C110.161 75.1437 109.465 75.6882 109.465 76.428C109.465 76.7072 109.563 76.9306 109.66 77.1958C109.772 76.4001 110.926 75.6323 111.65 75.4229ZM106.376 67.4518C106.376 66.6143 105.848 66.0279 104.721 66.0279C99.4471 66.0279 95.6485 69.8948 94.7302 70.9278C97.2626 69.6854 102.286 68.7641 102.3 68.7641C103.482 68.5547 106.376 68.9176 106.376 67.4518ZM102.494 73.1475C102.578 72.8962 102.3 72.6728 102.077 72.8124C101.966 72.8822 101.854 72.9381 101.743 73.0079C101.075 73.3848 99.461 73.9571 98 74.362C97.4574 74.5155 96.9425 74.6412 96.5112 74.7249C96.2051 74.7808 96.0938 75.1577 96.3164 75.381C97.0678 76.1209 98.0279 76.7631 98.9601 76.8887C99.0714 76.9027 99.1828 76.9166 99.2941 76.9166C101.186 76.9166 102.063 74.5295 102.494 73.1475Z" fill="#E6A57A"/>
<path d="M114.697 66.6278C114.836 66.5021 115.059 66.6138 115.045 66.7953C114.906 68.275 114.446 70.1038 112.095 70.1038H112.081C111.803 69.8525 111.636 69.5174 111.636 69.1126C111.636 68.973 111.664 68.8194 111.705 68.6519C113.069 67.9958 114.057 67.2141 114.697 66.6278Z" fill="#655FBF"/>
<path d="M113.987 63.808C114.446 63.3474 114.947 62.9006 115.476 62.5098C115.128 62.9425 114.641 63.3892 113.987 63.808Z" fill="#7F542E"/>
<path d="M112.47 81.2158C112.456 81.9278 111.9 82.4164 111.232 82.5141C111.441 82.556 111.663 82.5699 111.872 82.5978C111.816 83.7565 111.232 83.6169 110.091 84.0497C109.994 84.0497 109.882 84.0636 109.785 84.0636C108.087 84.0636 106.251 83.4215 105.04 82.5699C105.569 82.7095 106.07 82.7793 106.543 82.7793C108.032 82.7793 109.27 82.7793 110.661 82.0953C111.274 81.7603 111.886 81.6346 112.47 81.2158Z" fill="#B25055"/>
<path d="M111.622 69.1264C111.622 69.5173 111.789 69.8523 112.067 70.1175C111.65 70.1175 111.232 70.0198 110.843 69.8383C110.871 69.5592 110.926 69.28 110.982 69.0008C111.232 68.903 111.455 68.7914 111.678 68.6797C111.65 68.8332 111.622 68.9868 111.622 69.1264Z" fill="#F0DFBE"/>
<path d="M110.87 75.1436C111.148 75.1436 111.427 75.2273 111.649 75.4227C110.926 75.6182 109.771 76.386 109.66 77.1956C109.576 76.9304 109.465 76.6931 109.465 76.4279C109.465 75.688 110.161 75.1436 110.87 75.1436Z" fill="#F1BC98"/>
<path d="M77.2811 68.2612C76.1541 68.7637 75.681 69.7688 75.681 71.0252C75.681 72.8958 76.7246 75.2969 78.1856 77.2653C78.3665 77.5724 78.5752 77.8237 78.7978 78.047C80.2171 79.7362 81.9146 80.9646 83.3478 80.9646C84.5444 80.9646 85.8802 80.1271 85.8802 78.061C85.8802 73.6636 80.5928 68.2053 77.6847 68.2053C77.5316 68.2053 77.3925 68.2193 77.2811 68.2612ZM111.246 41.6118C109.423 40.7463 107.489 40.2158 104.985 40.2158C91.6825 40.2158 83.1808 55.1947 82.6382 63.1937C82.2764 68.4985 87.6613 73.3426 87.6613 78.3542C87.6613 80.5598 86.7568 82.6817 84.4888 82.6817C83.5287 82.6817 82.4434 82.3327 81.372 81.8441C78.283 79.9875 75.514 76.0229 74.5818 72.854C74.373 72.1281 74.2617 71.444 74.2617 70.8437C74.2617 68.68 75.347 66.9489 76.7385 65.2738C77.2533 64.6595 77.796 64.0593 78.3525 63.445C80.0223 58.6708 84.0714 45.9254 93.0322 40.0204C95.2585 38.5546 97.7909 37.5076 100.657 37.1167C101.478 37.0051 102.341 36.9492 103.218 36.9492C104.595 36.9492 105.736 37.2703 106.849 37.731C108.129 38.5406 109.702 39.8249 111.246 41.6118Z" fill="#596876"/>
<path d="M107.586 89.327C107.892 89.2991 108.198 89.2293 108.491 89.1455C107.684 93.9477 105.666 97.2841 100.712 97.2841C97.1782 97.2841 93.4491 95.232 92.5586 91.8118C92.7673 91.7002 92.976 91.5745 93.1708 91.4489C94.0196 94.2129 97.0808 95.916 100.184 95.916C103.495 95.9021 106.849 93.9756 107.586 89.327Z" fill="#9F3759"/>
<path d="M106.195 89.257C106.654 89.3547 107.127 89.3826 107.586 89.3268C106.849 93.9615 103.495 95.9019 100.184 95.9019C97.0808 95.9019 94.0197 94.1988 93.1709 91.4347C94.6041 90.4017 95.3415 88.5729 95.3415 86.9676C95.3415 86.4929 95.3137 86.0183 95.2581 85.5576C95.6198 85.7531 95.9955 85.9206 96.3712 86.1021C99.975 87.7912 103.843 88.7684 106.195 89.257Z" fill="#C78154"/>
<path d="M104.706 66.0273C105.833 66.0273 106.362 66.6137 106.362 67.4512C106.362 68.917 103.468 68.5541 102.285 68.7635C102.271 68.7635 97.2482 69.6988 94.7158 70.9272C95.6342 69.8942 99.4328 66.0273 104.706 66.0273Z" fill="#7F542E"/>
<path d="M102.062 72.8262C102.285 72.6866 102.563 72.91 102.48 73.1613C102.049 74.5433 101.172 76.9304 99.2935 76.9304C99.1822 76.9304 99.0709 76.9165 98.9596 76.9025C98.3334 76.6931 97.8047 76.0928 97.8047 75.1575C97.8047 74.8644 97.8603 74.5852 97.9856 74.3758C99.4466 73.9709 101.061 73.3986 101.729 73.0217C101.854 72.9519 101.965 72.8821 102.062 72.8262Z" fill="#655FBF"/>
<path d="M95.2588 85.5712C95.3144 86.0319 95.3423 86.5065 95.3423 86.9811C95.3423 88.5865 94.6187 90.4013 93.1716 91.4483C92.9768 91.5879 92.782 91.7135 92.5594 91.8112C91.9611 92.1184 91.2514 92.2859 90.4583 92.2859C88.566 92.2859 87.0771 91.6716 86.131 90.3734C85.6022 89.6614 85.2543 88.7261 85.0874 87.5814C79.2712 86.2971 74.5264 79.7918 74.5264 73.7891C74.5264 73.4819 74.5403 73.1609 74.5681 72.8538C75.5004 76.0226 78.2693 79.9872 81.3583 81.8439C82.4436 82.5 83.5707 82.8909 84.6699 82.8909C87.4946 82.8909 89.6235 81.467 89.6235 78.0049C89.6235 74.3893 87.105 70.9552 85.8109 67.7584C85.3657 66.3066 85.1291 64.9525 85.1291 63.3192C85.1291 56.2136 89.6235 48.075 97.6242 44.0127C99.3079 46.4975 101.52 48.3961 100.129 51.7465C96.4276 60.597 99.3635 60.9181 100.421 59.6338C98.153 62.7747 96.9146 68.4145 93.9369 69.7267C93.1021 70.0897 92.4898 70.8575 92.295 71.7509C92.1698 72.3512 92.1141 72.9375 92.1141 73.5238C92.1002 77.3628 94.7579 81.118 95.2588 85.5712Z" fill="#C48B5E"/>
<path d="M96.3721 86.1161C98.3757 86.9536 100.741 87.526 102.745 87.526C104.762 87.526 106.571 86.7024 107.378 85.9067C108.505 84.7899 109.41 84.3152 110.106 84.05C111.247 83.6172 111.817 83.7568 111.887 82.5982C111.678 82.5703 111.455 82.5563 111.247 82.5144C111.914 82.4167 112.457 81.9281 112.485 81.2161C111.914 81.6349 111.288 81.7606 110.69 82.0956C110.746 81.9002 110.773 81.7187 110.773 81.5512C110.773 80.6019 109.883 80.1831 109.02 79.9318C108.491 79.7643 108.589 78.9686 109.145 78.9686H109.159C109.813 78.9686 110.815 79.6666 111.72 79.6666C112.93 79.6666 113.431 78.145 113.431 77.447C113.431 75.2692 110.815 76.037 110.815 70.7602C110.815 70.4531 110.829 70.146 110.871 69.8528C111.26 70.0343 111.678 70.132 112.095 70.132H112.109C114.461 70.132 114.92 68.3033 115.059 66.8235C115.073 66.6421 114.85 66.5304 114.711 66.656C114.085 67.2423 113.097 68.0241 111.72 68.6942C111.497 68.8058 111.26 68.9175 111.024 69.0152C111.455 67.0609 112.568 65.288 114.016 63.8361C114.669 63.4034 115.156 62.9706 115.504 62.5379C115.546 62.5099 115.588 62.482 115.616 62.4541C115.588 63.2777 115.532 64.0874 115.532 64.911C115.532 66.9213 115.88 67.4796 116.075 68.9734C116.158 69.6155 116.228 70.4391 116.228 71.6397C116.228 72.4773 116.186 73.3288 116.13 74.1664C115.602 77.0282 114.767 80.3925 113.459 83.2962C112.61 85.1807 111.567 86.8699 110.286 88.1123C109.772 88.6149 109.159 88.9639 108.505 89.1733C108.213 89.257 107.907 89.3268 107.601 89.3547C107.142 89.3966 106.669 89.3827 106.21 89.2849C103.844 88.7684 99.9759 87.7912 96.3721 86.1161Z" fill="#D49063"/>
<path d="M97.8188 75.1431C97.8188 76.0784 98.3476 76.6787 98.9737 76.8881C98.0275 76.7624 97.0814 76.1203 96.33 75.3804C96.1074 75.171 96.2187 74.7941 96.5248 74.7243C96.9561 74.6405 97.471 74.5149 98.0136 74.3613C97.8745 74.5707 97.8188 74.8639 97.8188 75.1431Z" fill="#F0DFBE"/>
<path d="M95.8428 36C96.9142 36 98.6813 36.4188 100.629 37.1168C97.7491 37.5077 95.2306 38.5547 93.0043 40.0204C91.3345 39.2247 89.4004 38.792 87.2159 38.792C86.7567 38.792 86.2419 38.8339 85.7549 38.8478C88.8021 37.0051 92.2807 36 95.8428 36Z" fill="#A26D42"/>
<path d="M87.2164 38.8057C89.4009 38.8057 91.335 39.2384 93.0047 40.0341C84.0439 45.9391 79.9948 58.6845 78.3251 63.4588C77.7685 64.073 77.2258 64.6733 76.711 65.2875C75.7509 62.9283 75.25 60.6947 75.25 58.852C75.25 49.5966 79.6609 42.5469 85.7414 38.8475C86.2424 38.8336 86.7433 38.8057 87.2164 38.8057Z" fill="#C48B5E"/>
<path d="M84.4747 82.6817C86.7428 82.6817 87.6472 80.5598 87.6472 78.3541C87.6472 73.3426 82.2763 68.4985 82.6241 63.1937C83.1668 55.1808 91.6685 40.2158 104.971 40.2158C107.489 40.2158 109.423 40.7463 111.232 41.6118C113.124 43.8035 115.003 46.749 116.339 50.5182C115.003 48.9268 113.444 47.9217 113.264 47.6983C113.055 47.447 112.874 47.0003 112.651 46.4419C111.204 44.0408 109.952 41.5978 107.058 41.5978C106.042 41.5978 104.985 41.8352 103.983 41.877C101.659 42.3098 99.5301 43.0497 97.596 44.0269C89.5813 48.0752 85.1009 56.2278 85.1009 63.3333C85.1009 64.9666 85.3374 66.3207 85.7827 67.7726C87.0767 70.9694 89.5952 74.4035 89.5952 78.0191C89.5952 81.4672 87.4524 82.905 84.6417 82.905C83.5425 82.905 82.4154 82.5142 81.3301 81.8581C82.4432 82.3327 83.5146 82.6817 84.4747 82.6817Z" fill="#283C48"/>
<path d="M82.638 76.8878C82.638 78.0325 81.9701 78.9957 80.7874 78.9957C80.69 78.9957 80.5926 78.9817 80.4534 78.9538C79.2568 78.1721 77.9627 76.79 77.3644 75.4499C76.9609 74.5285 77.1835 73.4257 77.9906 72.8115C78.3106 72.5742 78.7002 72.4346 79.1176 72.4346C80.3699 72.4346 82.638 75.0451 82.638 76.8878Z" fill="#1A2738"/>
<path d="M78.7975 78.0468C78.5888 77.7955 78.3801 77.5303 78.1853 77.265C76.7382 75.2967 75.6807 72.8956 75.6807 71.025C75.6807 69.7686 76.1538 68.7635 77.2808 68.2609C77.3921 68.233 77.5313 68.2051 77.6982 68.2051C80.5924 68.2051 85.8938 73.6634 85.8938 78.0607C85.8938 80.1268 84.558 80.9644 83.3614 80.9644C81.9143 80.9644 80.2307 79.7359 78.7975 78.0468ZM77.3643 75.4642C77.9626 76.8043 79.2567 78.1864 80.4533 78.9681C80.5785 78.996 80.6898 79.01 80.7872 79.01C81.97 79.01 82.6379 78.0607 82.6379 76.9021C82.6379 75.0454 80.3698 72.4489 79.1175 72.4489C78.7001 72.4489 78.3105 72.5885 77.9905 72.8397C77.1834 73.44 76.9608 74.5429 77.3643 75.4642Z" fill="#C95B68"/>
<path d="M122.948 100.857C122.948 102.881 122.461 106.511 121.807 110.308C120.693 116.813 116.032 122.16 109.743 124.086C104.998 125.538 100.045 126.153 96.3294 126.153H96.1068C91.3342 126.125 86.1998 123.416 82.4707 119.536C82.8742 119.591 83.2917 119.647 83.7091 119.717C121.431 125.496 108.477 89.131 108.477 89.131C109.145 88.9216 109.757 88.5726 110.272 88.0701C111.552 86.8276 112.595 85.1385 113.444 83.2539C120.346 83.6727 122.948 93.9751 122.948 100.857Z" fill="#655FBF"/>
<path d="M103.816 85.2069C103.427 86.0445 102.842 86.2678 102.258 86.3516C102.063 86.3795 101.896 86.4074 101.771 86.4214C100.616 86.6308 101.729 86.5331 98.6958 86.7704C97.6522 86.8402 98.167 86.8402 96.9008 86.7983C94.7441 86.6866 95.565 86.7843 93.3109 86.4074C92.7265 86.3376 92.1421 86.1422 91.5577 85.9747C90.9872 85.7932 90.3889 85.6675 89.8462 85.4023C85.5606 83.769 81.5394 80.1255 79.5496 75.9515C79.4522 75.7561 79.5357 75.5327 79.7305 75.4489C79.7722 75.421 79.8279 75.4071 79.8835 75.4071C80.0088 75.3931 80.1201 75.4629 80.2036 75.5606C82.9169 79.4135 86.799 82.2195 90.5698 83.42C91.0707 83.6294 91.6134 83.7132 92.1282 83.8667C92.6569 84.0063 93.1718 84.1459 93.7144 84.1878C95.6346 84.453 94.8971 84.3972 96.9426 84.4391C98.0001 84.481 97.3182 84.5089 100.199 84.2576C101.757 84.1459 102.369 83.4061 103.621 84.467C103.928 84.7322 103.886 85.0533 103.816 85.2069Z" fill="#504A5E"/>
<path d="M103.816 85.2081C103.427 86.0457 102.842 86.2691 102.258 86.3528C102.063 86.3808 101.896 86.4087 101.771 86.4226C101.98 86.283 102.091 86.1016 102.091 85.8782C102.091 85.1244 101.326 84.9708 100.588 84.9708C100.073 84.9708 100.004 85.0267 98.8071 85.0267C90.1524 85.0267 84.4335 82.0113 79.8975 75.3944C80.0227 75.3804 80.134 75.4502 80.2175 75.5479C82.9308 79.4008 86.8129 82.2068 90.5837 83.4073C91.0846 83.6167 91.6273 83.7005 92.1421 83.854C92.6709 83.9936 93.1857 84.1332 93.7283 84.1751C95.6485 84.4403 94.9111 84.3845 96.9565 84.4264C98.014 84.4683 97.3322 84.4962 100.212 84.2449C101.771 84.1332 102.383 83.3934 103.635 84.4543C103.928 84.7335 103.886 85.0546 103.816 85.2081Z" fill="#383442"/>
<path d="M150.4 130.422C162.778 128.591 175.608 110.44 175.608 95.6308C175.637 81.6373 164.223 77.8944 152.424 88.0559C144.33 95.0378 138.238 106.956 138.208 117.206C138.193 125.634 142.581 131.578 150.4 130.422ZM177.557 85.7064C176.097 82.045 173.54 79.3619 169.79 78.391C169.678 78.3539 169.56 78.3317 169.449 78.3169C166.247 77.5831 162.904 78.302 159.873 79.5324C151.727 82.838 144.189 91.7025 140.268 99.4182C136.385 106.578 133.635 116.836 135.503 124.729C135.51 124.766 135.525 124.796 135.532 124.833C135.71 125.367 135.74 125.797 136.266 127.146C137.326 129.821 139.09 132.186 141.625 133.52C142.262 133.839 142.914 134.15 143.619 134.343C144.997 134.787 147.021 135.002 149.259 134.676C156.018 133.675 163.052 128.413 168.581 121.224C168.589 121.216 168.589 121.209 168.596 121.201C174.652 113.33 178.884 103.139 178.928 93.7185C178.913 90.9984 178.573 88.2412 177.557 85.7064Z" fill="#9F3759"/>
<path d="M143.026 128.902C145.302 129.955 147.851 129.977 150.32 129.384C162.386 126.478 174.245 109.083 174.245 94.845C174.245 90.4202 173.022 85.6767 169.427 83.1641C174 85.2838 175.623 90.5536 175.609 95.6381C175.609 110.447 162.779 128.598 150.401 130.429C147.8 130.807 145.183 130.429 143.026 128.902Z" fill="#EBD863"/>
<path d="M169.16 104.829C168.404 107.431 167.27 109.914 165.869 112.211L165.276 111.811C167.603 108.001 169.293 103.317 169.256 98.8107C169.197 91.8659 164.683 88.5083 158.62 91.0209C158.568 90.68 158.524 90.3539 158.479 90.0648C167.166 86.2552 172.436 93.6299 169.16 104.829Z" fill="#F3E187"/>
<path d="M163.342 77.3756C156.583 78.3243 150.157 83.4459 145.695 88.597C141.433 93.5333 137.994 99.4849 135.859 105.659C133.628 112.092 132.42 120.208 134.97 126.531C133.347 124.411 132.487 121.728 132.116 119.045C130.649 108.298 136.993 92.2659 148.444 82.927C152.551 79.5843 158.117 76.6789 163.342 77.3756Z" fill="#D69F98"/>
<path d="M160.548 108.105L159.644 108.624L155.537 117.718V118.889L159.436 116.636V119.119L160.54 118.481V115.998L161.756 115.294V114.123L160.54 114.82V108.105H160.548ZM143.026 108.787L144.264 108.935C143.449 112.456 143.271 116.969 145.191 120.008C145.865 121.083 146.821 122.017 147.948 122.565L148.541 121.483C147.51 120.979 146.636 120.134 146.006 119.156C144.227 116.384 144.331 112.27 145.042 109.031L155.545 110.291C155.612 110.336 155.819 110.447 155.886 110.491C157.672 111.537 160.748 108.268 160.748 105.363C160.607 104.429 159.31 95.6753 158.621 91.0207C164.684 88.5081 169.19 91.8657 169.257 98.8105C169.294 103.317 167.604 107.994 165.276 111.811L165.869 112.211C167.27 109.913 168.404 107.43 169.16 104.829C172.451 93.563 167.115 86.2772 158.48 90.0646C158.421 89.657 158.369 89.3086 158.324 89.0195L157.828 88.7305L156.96 89.2345C156.886 89.8126 156.812 90.3833 156.746 90.9614C151.98 93.7779 147.14 99.6777 144.864 106.763L142.856 107.379L142.522 108.498L143.026 108.787ZM169.42 83.1642C173.014 85.6768 174.237 90.4204 174.237 94.8452C174.237 109.083 162.378 126.479 150.312 129.384C147.851 129.977 145.294 129.955 143.019 128.902C141.462 127.813 140.21 126.182 139.358 124.033C135.711 114.835 140.958 97.9359 152.417 88.056C155.5 85.4026 159.399 83.0234 163.409 82.4305C165.64 82.1044 167.671 82.3564 169.42 83.1642ZM154.722 121.854C154.722 121.446 154.722 121.038 154.722 120.631C153.247 121.483 151.78 122.328 150.312 123.173C151.276 120.786 154.707 117.073 154.707 114.316C154.707 112.782 153.736 111.996 151.906 113.049C150.208 114.027 149.141 115.68 148.985 117.74C149.363 117.562 149.741 117.392 150.119 117.221C150.127 115.865 150.861 114.716 151.883 114.123C152.936 113.515 153.573 113.975 153.573 114.946C153.573 117.592 148.696 122.365 148.778 125.285C150.757 124.144 152.743 122.995 154.722 121.854Z" fill="#CD7E8E"/>
<path d="M159.442 110.788V115.472L156.626 117.096L159.442 110.788Z" fill="#CD7E8E"/>
<path d="M159.443 110.787L156.626 117.094L159.443 115.471V110.787ZM155.544 117.724L159.65 108.63L160.554 108.111V114.841L161.77 114.145V115.316L160.554 116.02V118.503L159.45 119.14V116.657L155.551 118.91V117.724H155.544Z" fill="#F3E187"/>
<path d="M158.332 89.0195C158.435 89.7162 160.629 104.599 160.748 105.355C160.748 107.364 159.199 109.765 157.524 110.477C156.056 111.092 155.056 110.225 155.056 108.646C155.419 105.748 157.22 91.4951 157.472 89.5235L158.332 89.0195Z" fill="#BB426A"/>
<path d="M157.835 88.7305L158.332 89.0195L157.457 89.5161L156.968 89.2345L157.835 88.7305Z" fill="#8C3155"/>
<path d="M156.611 92.0508C156.122 95.9271 155.633 99.7887 155.151 103.628L145.738 106.504C147.865 100.041 152.283 94.6671 156.611 92.0508Z" fill="#CD7E8E"/>
<path d="M157.457 89.515L156.96 89.2334C156.908 89.6336 154.566 108.23 154.544 108.356C154.544 109.356 154.952 109.957 155.381 110.201C155.567 110.305 155.507 110.283 155.626 110.298C155.255 109.949 155.041 109.371 155.041 108.645C155.411 105.747 157.212 91.4866 157.457 89.515Z" fill="#8C3155"/>
<path d="M148.985 117.74C149.141 115.68 150.208 114.027 151.905 113.048C153.728 111.996 154.707 112.774 154.707 114.316C154.707 117.073 151.275 120.786 150.312 123.173C151.779 122.321 153.247 121.476 154.722 120.631C154.722 121.038 154.722 121.446 154.722 121.854C152.743 122.995 150.756 124.144 148.777 125.285C148.696 122.365 153.573 117.592 153.573 114.946C153.573 113.975 152.935 113.515 151.883 114.123C150.86 114.716 150.126 115.865 150.119 117.221C149.741 117.392 149.363 117.57 148.985 117.74Z" fill="#F3E187"/>
<path d="M148.533 121.476L147.94 122.558C146.814 122.01 145.857 121.076 145.183 120.001C143.271 116.962 143.441 112.441 144.256 108.928L145.035 109.017C144.323 112.256 144.219 116.369 145.998 119.141C146.628 120.127 147.51 120.979 148.533 121.476Z" fill="#F3E187"/>
<path d="M145.731 106.504L144.864 106.771C147.14 99.685 151.98 93.7778 156.745 90.9688C156.701 91.3319 156.656 91.6951 156.605 92.0583C152.283 94.6672 147.866 100.048 145.731 106.504Z" fill="#F3E187"/>
<path d="M155.152 103.628C155.129 103.784 155.115 103.932 155.092 104.087L143.352 107.667L142.855 107.378C142.93 107.356 145.264 106.645 155.152 103.628Z" fill="#8C3155"/>
<path d="M143.352 107.667L143.026 108.786L142.529 108.497L142.855 107.378L143.352 107.667Z" fill="#8C3155"/>
<path d="M143.026 108.786L143.352 107.667L155.093 104.087C154.915 105.517 154.73 106.94 154.552 108.356C154.552 109.357 154.959 109.957 155.389 110.202C155.634 110.335 156.968 110.461 143.026 108.786Z" fill="#BB426A"/>
<path d="M172.466 79.4801C170.235 78.183 167.544 77.7457 164.572 78.183C150.305 80.2954 134.947 101.286 134.903 119.111C134.888 124.655 136.511 130.547 141.292 133.349C140.854 133.097 140.417 132.845 139.98 132.593C137.334 131.059 135.058 128.19 134.05 123.521C132.82 117.762 133.924 111.21 135.852 105.658C137.994 99.4845 141.425 93.5328 145.694 88.604C150.156 83.4454 156.59 78.3312 163.342 77.3751C165.973 76.9897 168.73 77.3158 171.102 78.687C171.176 78.7389 171.465 78.8945 172.466 79.4801Z" fill="#BB426A"/>
<path d="M134.97 126.529C135.022 126.648 135.074 126.774 135.125 126.885C124.208 114.923 136.504 85.6832 153.959 78.4641C157.072 77.1818 160.496 76.5815 163.75 77.3227C163.616 77.3375 163.476 77.3523 163.342 77.3746C158.117 76.6778 152.551 79.5758 148.437 82.926C134.399 94.3772 127.462 116.761 134.97 126.529Z" fill="#D8B7AC"/>
</g>
<defs>
<linearGradient id="paint0_linear" x1="19.5431" y1="33.5186" x2="188.507" y2="64.913" gradientUnits="userSpaceOnUse">
<stop stop-color="#FEB692"/>
<stop offset="1" stop-color="#EA5455"/>
</linearGradient>
<linearGradient id="paint1_linear" x1="32.2321" y1="128.507" x2="209.764" y2="128.507" gradientUnits="userSpaceOnUse">
<stop stop-color="#C4B8E9"/>
<stop offset="0.4166" stop-color="#B2CFDE"/>
<stop offset="1" stop-color="#FFCADE"/>
</linearGradient>
<clipPath id="clip0">
<rect width="182" height="153" fill="white" transform="translate(30 36)"/>
</clipPath>
</defs>
</svg>
