<svg width="241" height="207" viewBox="0 0 241 207" fill="none" xmlns="http://www.w3.org/2000/svg">
<circle cx="92" cy="86" r="86" fill="url(#paint0_linear)"/>
<path d="M99.1585 137.871C99.6939 138.091 100.306 138.225 100.918 138.292C101.272 138.33 101.625 138.33 101.979 138.32C102.065 138.32 102.142 138.311 102.228 138.301C102.4 138.292 102.572 138.272 102.734 138.244C102.84 138.225 102.935 138.215 103.031 138.186C103.136 138.167 103.232 138.148 103.327 138.129C103.452 138.091 103.576 138.062 103.691 138.024C103.901 137.957 104.111 137.88 104.302 137.785H104.312L104.331 137.794C105.297 137.23 106.377 136.982 107.257 137.307C107.324 137.335 107.391 137.355 107.458 137.393C107.505 137.422 107.553 137.45 107.601 137.469C107.878 137.613 108.136 137.842 108.337 138.148C110.402 141.093 112.477 144.047 114.552 146.992C115.135 147.834 115.728 148.665 116.311 149.507C116.445 149.708 116.608 149.861 116.78 149.975C116.809 149.995 116.837 150.014 116.875 150.033C117.593 150.444 118.539 150.272 119.371 149.784V151.056C118.29 151.687 117.028 151.935 116.091 151.381C116.053 151.352 116.015 151.333 115.967 151.304C115.738 151.161 115.537 150.96 115.355 150.702C112.697 146.916 110.039 143.13 107.372 139.353C106.664 138.339 105.392 138.454 104.312 139.085C103.098 139.783 101.31 139.907 99.8947 139.506C99.6653 139.152 99.3976 138.827 99.082 138.559C99.082 138.349 99.082 138.139 99.082 137.928C99.1203 137.89 99.1394 137.871 99.1585 137.871Z" fill="#688499"/>
<path d="M152.07 88.3912C152.195 88.4677 152.338 88.5346 152.481 88.5824L153.83 89.3569V100.639L153.696 100.716L138.732 92.0723H138.723L138.599 91.9958V90.8484V80.6084L152.07 88.3912Z" fill="#F6C54C"/>
<path d="M154.317 64.7459V77.6153L137.709 68.0159V67.1362V55.1465L154.317 64.7459Z" fill="#D5624E"/>
<path d="M138.598 80.6091L136.657 79.5V70.0918L152.07 78.9933V88.3537L138.598 80.5804V80.6091Z" fill="#E0852F"/>
<path d="M136.657 67.7397L137.709 67.1373V68.017L154.326 77.6164L168.457 69.4607V65.9326L171.584 67.7301C172.129 68.0456 172.425 68.4663 172.425 68.9157V68.9253C172.425 69.346 172.158 69.7571 171.584 70.0917L156.162 78.9932C155.033 79.6529 153.207 79.6529 152.079 78.9932L136.657 70.0917C136.074 69.7571 135.815 69.3364 135.815 68.9253V68.9157C135.815 68.4855 136.121 68.0456 136.657 67.7397Z" fill="#EFA467"/>
<path d="M136.657 70.0903V79.4985C136.035 79.1352 135.815 78.6763 135.815 78.3129C135.815 75.1864 135.815 72.0503 135.815 68.9238C135.815 69.335 136.074 69.7557 136.657 70.0903Z" fill="#F6C54C"/>
<path d="M83.1046 94.9409C79.806 93.0478 76.5265 91.1547 73.2374 89.252C72.9793 89.099 72.7402 88.7453 72.7402 88.1429C72.7402 87.4832 73.0175 86.833 73.3808 86.2593C73.6581 85.81 74.0023 85.4084 74.4995 85.1598C74.8628 84.9686 75.3218 84.873 75.666 85.0642C78.9455 86.9573 82.2154 88.8504 85.4949 90.7435L85.4853 90.7531C85.4279 90.734 85.3706 90.7149 85.3037 90.7053C84.7778 90.6193 84.1563 91.0495 83.7834 91.432C83.1811 92.0534 82.703 93.0096 82.703 93.8892C82.703 94.3959 82.856 94.7497 83.1046 94.9409Z" fill="#717F90"/>
<path d="M122.927 151.821V153.083L119.39 151.037V149.766L122.927 151.821Z" fill="#688499"/>
<path d="M116.081 113.996C116.081 115.927 116.081 117.849 116.081 119.781C116.072 119.781 115.403 119.389 114.705 118.987C113.968 118.566 113.213 118.126 113.204 118.117C111.75 117.275 110.297 116.444 108.853 115.602V115.593C108.251 115.249 107.648 114.904 107.056 114.56V113.049V111.271C107.553 110.449 108.069 109.684 108.595 108.967C109.446 109.454 110.297 109.942 111.138 110.439H111.148C111.177 110.975 111.396 111.3 111.635 111.434C113.117 112.275 114.599 113.135 116.081 113.996Z" fill="#E06C00"/>
<path d="M138.12 140.988C136.734 141.791 134.812 142.087 133.034 141.886C131.934 141.762 130.882 141.447 130.031 140.959L117.793 133.893C117.573 133.769 117.363 133.626 117.153 133.463C116.741 133.147 116.369 132.66 116.196 132.144L116.187 132.153C115.173 132.736 114.15 133.329 113.137 133.912C112.601 134.228 112.076 134.534 111.54 134.84C110.125 135.662 108.71 136.475 107.295 137.287C107.352 137.326 107.41 137.354 107.467 137.393C107.515 137.421 107.563 137.45 107.61 137.469C107.888 137.613 108.146 137.842 108.347 138.148C110.412 141.093 112.487 144.047 114.561 146.992C115.145 147.833 115.737 148.665 116.321 149.507C116.455 149.707 116.617 149.86 116.789 149.975C116.818 149.994 116.847 150.013 116.885 150.033C117.602 150.444 118.548 150.272 119.38 149.784L122.927 151.84L138.493 142.852C138.522 142.125 138.589 141.399 138.694 140.682L138.12 140.988Z" fill="#A5B3BF"/>
<path d="M153.695 100.706L135.414 111.271C134.687 111.692 133.483 111.663 132.746 111.233L120.508 104.177C119.762 103.747 119.714 103.049 120.451 102.638L138.732 92.082H138.741L153.695 100.706Z" fill="#EA8071"/>
<path d="M118.529 102.438C121.226 100.879 123.932 99.3113 126.637 97.7528C130.624 95.4581 134.611 93.1539 138.598 90.8496V91.997L138.723 92.0734L120.442 102.629C119.715 103.05 119.753 103.738 120.499 104.168L132.737 111.225C133.483 111.655 134.678 111.683 135.405 111.263L153.686 100.707L153.82 100.784L165.523 94.0239C166.967 94.9322 168.104 96.9592 168.104 98.6515L138.12 115.967C135.864 117.267 132.24 117.2 130.022 115.929L117.784 108.863C116.885 108.347 116.072 107.524 116.072 106.492C116.082 104.885 116.961 103.337 118.529 102.438Z" fill="#D5624E"/>
<path d="M117.793 108.872L130.031 115.938C132.239 117.21 135.863 117.276 138.129 115.976V129.725C137.718 130.423 137.336 131.131 136.982 131.829H136.991C136.991 131.829 137.02 131.838 137.058 131.867C137.077 131.886 137.097 131.896 137.125 131.905C137.135 131.915 137.154 131.924 137.173 131.934C137.412 132.068 137.833 132.316 138.139 132.488V140.979C136.752 141.782 134.831 142.078 133.052 141.877C131.953 141.753 130.901 141.438 130.05 140.95L117.812 133.884C117.592 133.76 117.381 133.617 117.171 133.454C116.76 133.138 116.387 132.651 116.215 132.135C116.138 131.924 116.1 131.714 116.1 131.513C116.1 127.603 116.1 123.682 116.1 119.772C116.1 117.841 116.1 115.919 116.1 113.987C117.936 115.049 119.772 116.11 121.607 117.162L121.617 117.152C121.693 117.2 121.77 117.238 121.846 117.257C122.095 117.324 122.353 117.267 122.583 117.162C123.988 116.578 124.916 114.322 124.361 113.356C124.265 113.194 124.151 113.07 124.017 112.983H124.007C121.359 111.454 118.72 109.933 116.081 108.413C116.081 107.773 116.081 107.132 116.081 106.501C116.081 107.534 116.903 108.356 117.793 108.872Z" fill="#E06C00"/>
<path d="M113.204 118.108C113.213 118.117 113.969 118.557 114.705 118.978C113.012 122.668 112.152 126.149 112.334 130.183C112.391 131.493 112.668 132.727 113.146 133.903C112.611 134.218 112.085 134.524 111.55 134.83C111.464 134.773 111.368 134.725 111.282 134.668C109.045 133.377 107.687 131.168 107.065 128.701V121.129C107.448 119.303 108.022 117.486 108.863 115.603C110.307 116.434 111.76 117.266 113.204 118.108Z" fill="#344E5D"/>
<path d="M137.48 94.3096C137.843 96.1358 138.837 97.4552 138.837 100.113C138.837 101.414 138.608 102.743 138.245 103.986C136.973 101.194 136.973 100.285 136.074 99.1284C136.591 97.5699 136.983 95.935 137.48 94.3096Z" fill="#716DE1"/>
<path d="M131.589 68.5031C130.671 71.0177 127.803 73.0351 124.791 74.2972C128.243 71.6965 130.518 67.7764 131.685 65.1758C131.828 65.6921 131.895 66.2562 131.895 66.8203C131.895 67.394 131.79 67.9581 131.589 68.5031Z" fill="#BE5A54"/>
<path d="M129.085 106.825C128.224 107.16 127.259 107.446 126.159 107.666C126.13 107.714 126.111 107.762 126.083 107.8C126.169 107.379 126.216 106.959 126.216 106.557C126.216 104.253 124.247 102.666 122.774 102.35C123.979 101.538 126.341 100.065 128.129 99.1377C129.821 86.4596 129.85 86.7846 131.045 84.2605C131.102 80.4742 134.975 77.625 138.799 77.625C139.21 77.625 139.621 77.7015 140.004 77.8258C140.281 79.2313 140.453 81.1148 140.453 83.7633C140.453 86.1536 139.698 88.955 138.789 91.4027C138.34 92.1867 137.9 92.9707 137.642 93.7643C137.585 93.946 137.527 94.1276 137.47 94.3093C136.973 95.9347 136.59 97.5697 136.064 99.1281C135.003 102.322 133.378 105.18 129.085 106.825Z" fill="#ACBED0"/>
<path d="M127.956 55.1468C128.377 55.4241 128.865 55.6536 129.362 56.0743C123.338 56.8009 118.347 61.5146 117.716 63.0635C117.181 62.8532 116.684 62.5281 116.187 62.2508C116.588 60.8357 119.131 56.4471 124.61 54.8887H124.62C125.738 54.8887 126.866 54.9938 127.956 55.1468Z" fill="#DA926E"/>
<path d="M123.739 136.952C123.309 136.952 122.41 137.134 121.349 136.761C121.56 135.642 122.908 135.728 122.975 135.413C122.975 135.394 122.984 135.374 122.984 135.365C122.984 134.992 122.085 134.763 122.085 134.418C122.085 133.663 124.122 134.38 124.122 132.334C124.122 129.437 123.491 128.911 121.397 120.918C121.32 120.182 121.282 119.579 121.282 119.273C121.282 112.676 129.916 113.078 129.916 108.46C129.916 107.771 129.667 107.121 129.094 106.815C133.377 105.171 135.012 102.321 136.073 99.1279C136.982 100.285 136.972 101.193 138.244 103.985C138.225 104.071 138.206 104.148 138.177 104.234C138.272 104.664 138.32 105.113 138.32 105.563C138.32 108.574 137.718 111.433 135.882 113.326C132.995 115.267 128.252 117.715 125.69 118.843C126.139 119.723 126.962 121.539 126.962 123.413C126.962 124.293 126.799 125.173 126.799 126.052C126.799 127.123 127.268 127.764 127.277 128.634V128.643C127.277 129.198 127.029 129.705 127.029 130.25C127.029 130.948 127.755 132.066 127.813 133.95C127.593 134.485 127.296 135.03 126.895 135.508C126.359 136.139 125.642 136.637 124.705 136.847C124.409 136.914 124.093 136.952 123.739 136.952Z" fill="#3A5589"/>
<path d="M123.224 108.775C122.726 106.93 121.55 105.429 119.571 105.4C119.552 105.4 119.543 105.4 119.533 105.4C118.883 105.4 118.386 105.591 118.061 105.773C118.07 105.744 118.089 105.735 118.089 105.706C118.663 105.123 119.609 103.909 120.738 103.039C120.948 102.876 121.168 102.723 121.397 102.589C121.579 102.474 121.761 102.388 121.952 102.312C122.076 102.302 122.181 102.283 122.267 102.283C122.43 102.283 122.602 102.302 122.784 102.341C124.256 102.656 126.226 104.243 126.226 106.547C126.226 106.949 126.178 107.37 126.092 107.79C126.092 107.79 126.092 107.8 126.082 107.8C125.652 108.469 124.849 108.584 124.027 108.584C123.778 108.584 123.53 108.574 123.291 108.555C123.271 108.632 123.243 108.708 123.224 108.775Z" fill="#716DE1"/>
<path d="M121.387 102.599C121.569 101.002 121.932 99.1665 121.932 95.0552C121.932 93.9747 121.273 90.3128 120.929 87.9799C120.919 87.8843 120.919 87.7886 120.919 87.6835C120.919 84.6143 122.573 81.0289 122.736 75.579C123.462 75.2061 124.141 74.7663 124.791 74.2882C127.793 73.0262 130.671 71.0087 131.589 68.4941C136.332 71.4007 138.483 74.0014 139.974 77.692C139.984 77.7303 139.994 77.7876 140.003 77.8259C139.621 77.7016 139.21 77.6251 138.798 77.6251C134.974 77.6251 131.092 80.4743 131.044 84.2606C129.849 86.7847 129.82 86.4501 128.128 99.1378C126.331 100.065 123.979 101.538 122.774 102.35C122.592 102.312 122.42 102.293 122.258 102.293C122.171 102.293 122.057 102.303 121.942 102.322C121.76 102.398 121.569 102.484 121.387 102.599Z" fill="#716DE1"/>
<path d="M121.349 136.76C122.411 137.124 123.3 136.951 123.74 136.951C123.615 139.638 123.405 146.312 120.728 146.312C120.393 146.312 119.963 146.035 119.963 145.537C119.963 145.088 121.397 141.57 121.397 139.122C121.397 138.204 121.168 137.458 121.053 136.655V136.646C121.158 136.693 121.254 136.732 121.349 136.76Z" fill="#DA926E"/>
<path d="M120.833 97.1016C120.833 93.9081 119.743 88.334 119.743 86.1062C119.743 85.915 119.743 85.7333 119.753 85.5612C120.173 81.0196 121.445 79.4516 121.598 76.1147V76.1052C121.99 75.9522 122.372 75.7801 122.745 75.5889C122.583 81.0388 120.929 84.6242 120.929 87.6934C120.929 87.789 120.929 87.8941 120.938 87.9897C121.292 90.3131 121.942 93.9846 121.942 95.065C121.942 99.1764 121.579 101.012 121.397 102.609C121.168 102.743 120.948 102.896 120.738 103.058C120.623 102.829 120.518 102.59 120.403 102.351C120.718 100.524 120.833 97.2832 120.833 97.1016Z" fill="#E2AE4A"/>
<path d="M121.397 139.123C121.397 141.571 119.963 145.089 119.963 145.539C119.963 146.036 120.393 146.313 120.728 146.313C123.405 146.313 123.615 139.63 123.74 136.953C124.093 136.953 124.409 136.914 124.705 136.847V136.857C124.791 138.654 125.346 140.49 125.346 142.278C125.346 145.816 118.816 151.82 118.749 151.82C118.72 151.82 118.691 151.82 118.663 151.811C118.261 151.782 117.974 151.648 117.773 151.447C117.716 151.151 117.678 150.845 117.678 150.53C117.678 147.843 119.829 144.85 120.364 140.595C120.288 139.821 120.116 139.113 120.116 137.813C120.116 137.268 120.154 136.733 120.24 136.197C120.517 136.398 120.795 136.551 121.053 136.656V136.666C121.168 137.459 121.397 138.205 121.397 139.123Z" fill="#BE5A54"/>
<path d="M112.677 98.1816C114.226 98.1816 116.157 98.5067 118.251 98.6023C118.634 99.1091 118.978 99.6445 119.294 100.199C118.902 100.276 118.5 100.381 118.098 100.409C95.9069 102.36 103.202 108.508 98.0295 108.508C97.6948 108.508 97.408 108.393 97.1689 108.211C97.8765 100.17 108.403 98.1816 112.677 98.1816Z" fill="#42609F"/>
<path d="M118.366 152.823C118.07 152.384 117.879 151.925 117.783 151.456C117.984 151.666 118.271 151.8 118.672 151.819C118.701 151.829 118.73 151.829 118.758 151.829C118.816 151.829 125.356 145.815 125.356 142.287C125.356 140.499 124.801 138.663 124.715 136.866V136.856C125.662 136.655 126.369 136.149 126.905 135.518C126.943 136.091 127.019 136.665 127.019 137.248C127.019 137.698 126.914 138.156 126.914 138.606C126.914 139.811 127.727 140.814 127.727 142.163C127.727 143.616 127.163 144.17 126.666 144.792C125.547 148.884 124.074 153.043 119.705 153.043C119.036 153.043 118.644 152.995 118.366 152.823Z" fill="#8B3442"/>
<path d="M117.4 115.373C117.831 114.818 117.945 113.442 119.007 110.831C118.653 112.304 118.223 113.805 118.223 114.398C118.223 114.914 118.385 115.296 118.968 115.296C119.045 115.296 119.112 115.287 119.179 115.277C119.724 114.436 120.23 112.208 120.842 110.803C120.441 112.954 120.135 113.174 120.135 113.862C120.135 114.331 120.364 114.828 120.804 114.828C120.842 114.828 120.871 114.828 120.9 114.818C122.066 113.442 122.057 112.179 122.602 110.372C122.764 109.837 123.032 109.311 123.223 108.776C123.252 108.709 123.271 108.632 123.29 108.565C123.529 108.575 123.778 108.594 124.026 108.594C124.839 108.594 125.642 108.479 126.082 107.81C126.091 107.81 126.091 107.8 126.091 107.8C126.12 107.762 126.149 107.714 126.168 107.667C127.267 107.437 128.233 107.16 129.094 106.825C129.677 107.122 129.916 107.772 129.916 108.47C129.916 113.097 121.282 112.686 121.282 119.283C121.282 119.58 121.32 120.192 121.397 120.928C123.491 128.921 124.122 129.447 124.122 132.344C124.122 134.39 122.085 133.673 122.085 134.428C122.085 134.782 122.984 135.002 122.984 135.375C122.984 135.385 122.974 135.404 122.974 135.423C122.917 135.738 121.559 135.652 121.349 136.771C121.253 136.742 121.148 136.694 121.053 136.656C120.785 136.541 120.517 136.388 120.24 136.197C120.01 136.035 119.771 135.834 119.532 135.595C119.016 133.415 118.873 129.638 118.844 128.539C118.586 127.64 118.203 126.741 117.983 125.89C117.974 125.833 115.612 115.899 115.612 115.832C115.612 115.258 115.794 114.646 116.282 113.776C116.272 113.958 116.262 114.13 116.262 114.302C116.262 115 116.693 115.43 117.142 115.43C117.219 115.421 117.314 115.402 117.4 115.373Z" fill="#42609F"/>
<path d="M124.61 54.8885C119.131 56.4565 116.597 60.8451 116.186 62.2506C116.693 62.5279 117.18 62.8529 117.716 63.0633C118.347 61.5048 123.347 56.7911 129.361 56.0741C129.782 56.4374 130.203 56.9441 130.595 57.7473C125.269 58.4739 122.391 64.8417 118.882 64.8417C118.624 64.8417 118.357 64.813 118.127 64.813C115.632 64.813 114.886 63.4744 114.752 61.1797V61.1702C114.771 61.1319 114.781 61.0937 114.8 61.0554C114.867 58.5408 118.146 54.8789 124.533 54.8789C124.571 54.8885 124.59 54.8885 124.61 54.8885Z" fill="#BE5A54"/>
<path d="M118.262 98.6028C118.185 98.488 118.089 98.3733 117.994 98.2586C116.894 95.5719 117.152 92.6939 116.77 89.883C115.881 87.4927 114.236 82.0141 114.236 80.3504C114.236 79.9489 114.265 79.5569 114.313 79.184C114.523 77.4725 115.154 76.0479 115.374 74.4512H115.384C115.508 74.7858 115.642 75.1013 115.785 75.4169C116.388 76.0192 117.028 76.5164 117.717 76.9466C119.113 76.8893 120.413 76.5929 121.608 76.1053V76.1148C121.445 79.4517 120.174 81.0102 119.763 85.5613C119.753 85.7334 119.753 85.9151 119.753 86.1063C119.753 88.334 120.843 93.9178 120.843 97.1017C120.843 97.2833 120.728 100.525 120.413 102.341C120.069 101.615 119.715 100.888 119.313 100.199C118.988 99.6449 118.644 99.1095 118.262 98.6028Z" fill="#716DE1"/>
<path d="M90.0648 83.1519C90.0553 83.1423 90.0457 83.1423 90.0361 83.1328C91.9484 81.1345 97.3026 80.5034 99.7886 79.7863C100.391 79.6142 101.022 79.2605 101.653 78.9641C106.491 75.8089 112.524 68.5806 113.748 67.6914C113.91 69.9861 114.532 72.2999 115.383 74.4416H115.373C115.153 76.0383 114.532 77.463 114.312 79.1744C111.291 80.6468 109.522 84.0506 104.387 86.6895C98.842 87.2249 97.0827 88.879 93.459 88.879C92.7706 88.879 92.1205 88.7834 91.5372 88.5635C91.5086 88.554 91.499 88.5444 91.4703 88.5348C91.652 88.0281 91.738 87.4927 91.738 86.9572C91.738 85.5326 91.1357 84.0889 90.0648 83.1519Z" fill="#ACBED0"/>
<path d="M116.072 74.5652C114.81 72.1367 114.055 69.0962 114.055 66.3808C114.055 65.9506 114.064 65.6446 114.093 65.4056C114.867 66.9545 115.843 67.7098 118.338 67.7098C124.065 67.7098 125.624 64.0957 127.278 64.0957C128.024 64.0957 128.406 65.0231 128.406 65.7689C128.406 67.031 124.878 74.6035 117.105 74.6035C116.77 74.5939 116.416 74.5843 116.072 74.5652Z" fill="#283C48"/>
<path d="M115.383 74.4409C114.532 72.2992 113.911 69.9854 113.748 67.6907C113.72 67.2892 113.71 66.878 113.71 66.4764C113.71 64.6503 114.025 62.8432 114.771 61.1795C114.905 63.4742 115.651 64.8128 118.146 64.8128C118.376 64.8128 118.653 64.8415 118.902 64.8415C122.411 64.8415 125.289 58.4737 130.614 57.7471C131.217 58.99 131.762 60.9501 132.106 64.1818C131.991 64.4782 131.857 64.8032 131.695 65.157C130.538 67.7576 128.253 71.6873 124.801 74.2784C124.16 74.766 123.472 75.1963 122.745 75.5692C122.382 75.7604 121.99 75.9325 121.598 76.0855C120.403 76.5731 119.102 76.8695 117.707 76.9268C117.018 76.4966 116.378 75.9994 115.775 75.3971C115.641 75.0911 115.507 74.7756 115.383 74.4409ZM114.064 66.3808C114.064 69.0962 114.819 72.1271 116.081 74.5652C116.425 74.5939 116.779 74.6035 117.133 74.6035C124.906 74.6035 128.434 67.031 128.434 65.7689C128.434 65.0327 128.052 64.0957 127.306 64.0957C125.652 64.0957 124.093 67.7098 118.366 67.7098C115.861 67.7098 114.896 66.9545 114.121 65.4056C114.073 65.6351 114.064 65.9506 114.064 66.3808Z" fill="#D3775A"/>
<path d="M106.587 130.478C106.501 130.517 106.415 130.574 106.329 130.622C105.421 131.109 105.019 131.157 103.661 131.157C102.801 131.157 101.845 130.995 100.975 130.737C100.516 130.593 100.076 130.421 99.703 130.23C99.6935 130.23 99.6935 130.22 99.6935 130.22C99.3779 129.532 99.072 128.834 99.072 128.155C99.072 127.734 99.1676 127.314 99.1676 126.883C99.1676 126.319 98.919 125.669 98.7087 124.99C98.68 117.695 97.6761 117.466 97.6761 114.616C97.6761 113.985 97.7239 113.345 97.7239 112.714C97.7239 111.04 97.2362 110.534 97.1406 108.717C97.1502 108.535 97.1597 108.363 97.1693 108.201C97.4083 108.382 97.6952 108.497 98.0298 108.497C103.212 108.497 95.9072 102.349 118.099 100.399C118.5 100.37 118.902 100.265 119.294 100.188C119.696 100.877 120.049 101.604 120.393 102.33C120.508 102.56 120.613 102.799 120.728 103.038C119.609 103.908 118.663 105.112 118.08 105.705C118.07 105.734 118.061 105.744 118.051 105.772C117.974 105.935 117.888 106.088 117.774 106.26C117.764 106.269 117.764 106.269 117.764 106.269C117.382 106.547 117.018 106.853 116.598 107.082C115.001 107.895 114.293 109.711 114.026 110.668C113.385 110.907 112.582 110.974 111.741 110.974C110.488 110.974 109.13 110.821 108.021 110.821C107.83 110.821 107.639 110.83 107.457 110.84C107.438 110.84 107.419 110.84 107.4 110.84C107.285 110.84 107.17 110.83 107.046 110.811C107.228 113.785 108.327 116.595 108.327 119.588C108.327 119.607 108.327 119.626 108.327 119.646C108.318 122.198 107.333 124.503 107.333 126.931C107.333 127.667 106.941 128.843 107.056 129.57C106.903 129.886 106.759 130.192 106.587 130.478Z" fill="#3A5589"/>
<path d="M83.9176 90.141C83.7073 90.141 83.4969 90.1505 83.3057 90.1792C82.7894 90.7624 82.0341 91.6899 81.2692 91.9863C81.1545 92.0054 81.0397 92.015 80.925 92.015C80.2079 92.015 79.7968 91.5847 79.7968 90.9154C79.7968 90.8676 79.7968 90.8198 79.8063 90.772C80.772 90.3226 81.7855 89.749 81.9958 88.745C81.9958 88.745 83.8698 88.6685 83.6212 88.3435C81.948 86.1731 80.0358 86.4121 79.2422 86.632C79.2709 86.6224 79.3091 86.5938 79.3569 86.5651C79.6055 86.3834 80.0262 85.9532 80.0262 85.6759C80.0262 85.4751 79.7872 85.3986 79.5864 85.3986C79.4048 85.3986 79.2135 85.4464 79.0605 85.4751C79.204 85.4464 79.3283 85.3986 79.4334 85.3508C79.749 85.1883 79.8924 84.9206 79.8924 84.7771C79.8924 84.6624 79.8159 84.605 79.7011 84.5668C79.9689 84.519 80.1696 84.4903 80.2844 84.4903C81.7281 84.4903 84.0037 85.0257 85.61 85.0257C85.6291 85.0257 85.6482 85.0257 85.6673 85.0257C86.7669 84.4329 87.9716 83.2569 89.052 82.7119C89.4153 82.8266 89.75 82.9892 90.0846 83.1517C91.1555 84.0887 91.7578 85.5325 91.7578 86.9571C91.7578 87.4925 91.6718 88.0279 91.4901 88.5347C91.5188 88.5442 91.5284 88.5538 91.557 88.5634C90.6487 89.0032 89.5779 89.2231 88.5166 89.2231C87.8186 89.2231 87.1302 89.1275 86.4992 88.9267C85.6865 89.7012 85.2849 90.1314 84.128 90.1314C84.0515 90.141 83.9846 90.141 83.9176 90.141Z" fill="#716DE1"/>
<path d="M75.5701 91.145C75.6084 90.5236 76.727 88.8217 77.3485 87.9038C77.9891 87.4448 78.8018 86.8903 79.2416 86.6321C80.0352 86.4027 81.9474 86.1732 83.6206 88.3436C83.8692 88.6782 81.9952 88.7452 81.9952 88.7452C81.5363 88.401 81.0774 88.2671 80.6089 88.2671C80.0065 88.2671 79.385 88.4966 78.7444 88.8121C78.1038 89.8925 77.2146 91.7378 76.096 91.9386C75.79 91.8048 75.5605 91.5084 75.5605 91.1833C75.5605 91.1737 75.5605 91.1546 75.5701 91.145Z" fill="#A5A5E5"/>
<path d="M79.4235 85.3407C76.995 85.79 75.054 87.9222 74.117 89.1747C73.8398 89.146 73.5625 88.8783 73.5625 88.4194C73.5625 88.056 73.7346 87.6449 74.0023 87.3868C74.9202 85.8665 78.2188 84.8435 79.6817 84.5566C79.7964 84.5949 79.8729 84.6618 79.8729 84.767C79.8825 84.92 79.739 85.1781 79.4235 85.3407Z" fill="#8A8ACE"/>
<path d="M74.1078 89.1749C75.0448 87.9223 76.9953 85.7902 79.4143 85.3408C79.3091 85.3982 79.1848 85.446 79.0414 85.4651C79.1944 85.4364 79.3952 85.3886 79.5673 85.3886C79.768 85.3886 80.0071 85.4651 80.0071 85.6659C80.0071 85.9432 79.5864 86.3734 79.3378 86.5551C79.2995 86.5838 79.2613 86.6125 79.2231 86.622C78.7928 86.8802 77.9705 87.4347 77.3299 87.8937C77.3491 87.865 77.3586 87.8459 77.3777 87.8172C75.0639 89.2705 75.303 90.6377 74.4711 90.6377C74.2321 90.6377 73.8975 90.37 73.8975 89.9111C73.9166 89.6912 74.0026 89.4235 74.1078 89.1749Z" fill="#9A9AD8"/>
<path d="M121.599 117.171C119.763 116.11 117.927 115.048 116.091 113.997C114.609 113.136 113.127 112.285 111.636 111.425C111.387 111.281 111.167 110.966 111.148 110.43C111.139 110.392 111.139 110.354 111.139 110.315C111.139 109.656 111.416 109.006 111.77 108.432C112.057 107.983 112.391 107.581 112.888 107.332C112.907 107.323 112.917 107.313 112.936 107.304C113.29 107.141 113.73 107.046 114.055 107.237C114.734 107.629 115.413 108.021 116.091 108.413C118.73 109.933 121.369 111.453 124.018 112.983C123.004 112.381 121.159 114.188 121.111 116.062C121.101 116.32 121.14 116.578 121.264 116.788C121.35 116.932 121.474 117.066 121.618 117.152L121.599 117.171Z" fill="#717F90"/>
<path d="M160.407 127.027C156.621 129.217 152.509 133.443 149.67 139.161C149.612 139.132 145.1 136.522 145.052 136.493C148.446 129.829 153.255 124.962 157.615 122.448C160.885 120.554 164.796 119.474 168.113 120.794C168.123 120.794 168.123 120.794 168.123 120.794C168.477 120.937 168.83 121.099 169.165 121.3C169.175 121.3 169.175 121.31 169.175 121.31C169.27 121.367 169.356 121.415 169.442 121.472C174.615 124.647 175.868 131.292 174.844 137.497C174.844 137.535 174.835 137.564 174.835 137.602C174.778 138.004 174.338 138.233 173.888 138.348C175.686 127.333 169.022 122.056 160.407 127.027Z" fill="#E06C00"/>
<path d="M169.729 128.032C171.67 129.438 172.846 132.067 172.856 135.633H172.846C172.177 135.251 171.517 134.868 170.848 134.486C170.953 132.239 170.647 129.992 169.729 128.032Z" fill="#C44600"/>
<path d="M171.575 70.0903C172.149 69.7557 172.417 69.335 172.417 68.9238C172.417 72.0599 172.417 75.1864 172.417 78.3129C172.417 78.8101 172.034 79.2212 171.575 79.4985V70.0903Z" fill="#F6C54C"/>
<path d="M171.575 70.0918V79.5L169.06 80.9438V80.9533L156.152 88.3919V78.9933L171.575 70.0918Z" fill="#E0852F"/>
<path d="M165.532 94.0326L153.829 100.792V100.639V89.3668L154.737 88.8409C155.254 88.7835 155.741 88.6306 156.143 88.3915L169.051 80.9434V91.9865L165.532 94.0326Z" fill="#F6C54C"/>
<path d="M168.448 65.9321V69.4602L154.316 77.6159V64.7465L168.448 56.5908V65.9321Z" fill="#D5624E"/>
<path d="M168.448 56.5909L154.317 64.7466L137.709 55.1471L151.831 47.001L168.448 56.5909Z" fill="#EA8071"/>
<path d="M168.113 120.69V120.795C164.786 119.476 160.885 120.556 157.615 122.449C153.255 124.964 148.456 129.83 145.052 136.494C143.598 135.653 142.145 134.821 140.692 133.98C139.946 133.55 139.219 133.129 138.474 132.699C141.868 126.035 146.677 121.168 151.037 118.653C154.603 116.588 159.011 115.45 162.597 117.506C164.432 118.567 166.278 119.629 168.113 120.69Z" fill="#EA8071"/>
<path d="M168.114 98.6504V120.689C166.278 119.628 164.433 118.566 162.597 117.505C159.193 115.535 154.374 115.316 148.991 118.423C144.564 120.976 140.788 125.202 138.12 129.724V115.966L168.114 98.6504Z" fill="#E06C00"/>
<path d="M159.355 139.067C159.374 139.057 159.384 139.067 159.403 139.076C159.412 139.086 159.432 139.086 159.441 139.096C159.738 139.268 159.986 139.516 160.158 139.813C160.311 140.08 160.416 140.425 160.416 140.788C160.416 141.763 159.699 142.585 158.743 142.719C158.332 142.777 157.921 142.7 157.558 142.509L157.567 142.499C157.433 142.432 157.309 142.318 157.233 142.203C156.888 141.677 157.175 140.138 158.303 139.315C158.571 139.115 158.877 138.962 159.183 139.019C159.24 139.019 159.298 139.038 159.355 139.067Z" fill="#B74496"/>
<path d="M162.387 135.776C162.387 140.997 157.912 146.772 154.117 147.451C152.147 147.804 150.732 146.915 150.12 145.156C150.35 140.117 153.906 134.046 158.085 131.369C158.085 131.369 158.085 131.369 158.094 131.369C160.408 130.919 162.387 132.344 162.387 135.776ZM156.985 137.67C156.87 137.622 156.756 137.593 156.641 137.593C156.058 137.593 154.91 138.511 154.709 139.916C154.671 140.232 154.671 140.567 154.843 140.815C154.91 140.911 154.996 140.997 155.092 141.054L155.082 141.083C155.838 141.513 156.593 141.953 157.358 142.393C157.396 142.421 157.444 142.45 157.492 142.469C157.511 142.479 157.53 142.498 157.549 142.507C157.903 142.699 158.324 142.775 158.735 142.718C159.7 142.584 160.408 141.752 160.408 140.786C160.408 140.423 160.303 140.079 160.15 139.811C159.978 139.515 159.729 139.266 159.433 139.094C159.423 139.085 159.404 139.085 159.394 139.075C158.639 138.645 157.884 138.195 157.119 137.756C157.09 137.717 157.042 137.698 156.985 137.67Z" fill="#A4B5BC"/>
<path d="M150.129 145.166C150.731 146.916 152.156 147.814 154.126 147.461C157.912 146.782 162.396 141.016 162.396 135.786C162.396 132.354 160.417 130.929 158.103 131.379C158.246 131.283 158.38 131.197 158.533 131.111C159.671 130.451 161.44 129.772 162.587 130.404C162.597 130.404 162.606 130.413 162.616 130.413C163.553 130.968 164.213 131.991 164.566 133.062C165.073 134.572 164.968 136.159 164.662 137.699C163.888 141.619 161.851 145.099 158.887 147.69C157.711 148.723 156.392 149.602 154.824 149.918C153.724 150.147 152.519 150.08 151.563 149.555C151.534 149.545 151.515 149.526 151.487 149.507C150.282 148.732 150.062 146.6 150.129 145.176C150.129 145.166 150.129 145.166 150.129 145.166Z" fill="#344E5D"/>
<path d="M157.357 142.393C156.602 141.954 155.846 141.514 155.081 141.084L155.091 141.055C154.995 140.998 154.909 140.911 154.842 140.816C154.661 140.567 154.661 140.233 154.709 139.917C154.9 138.512 156.047 137.594 156.64 137.594C156.755 137.594 156.869 137.622 156.984 137.67C157.042 137.699 157.089 137.718 157.128 137.756C157.883 138.196 158.638 138.636 159.403 139.076C159.384 139.066 159.374 139.057 159.365 139.057L159.355 139.066C159.298 139.037 159.241 139.028 159.183 139.009C158.877 138.951 158.562 139.114 158.304 139.305C157.175 140.127 156.889 141.667 157.233 142.193C157.309 142.317 157.424 142.422 157.567 142.489L157.558 142.499C157.539 142.489 157.52 142.47 157.5 142.46C157.443 142.451 157.405 142.422 157.357 142.393Z" fill="#B74496"/>
<path d="M152.069 78.9932C153.198 79.6529 155.014 79.6529 156.152 78.9932V88.4014C155.75 88.6309 155.253 88.7838 154.746 88.8508C153.982 88.9464 153.159 88.8699 152.49 88.6022L152.079 88.3631V78.9932H152.069Z" fill="#F49C53"/>
<path d="M153.83 89.3663L152.481 88.5918C153.151 88.8595 153.973 88.9456 154.738 88.8404L153.83 89.3663Z" fill="#FFC147"/>
<path d="M149.67 139.161C152.51 133.443 156.621 129.217 160.407 127.027C169.012 122.056 175.686 127.333 173.888 138.348C173.458 138.463 173.028 138.577 172.598 138.692C172.77 137.612 172.846 136.589 172.846 135.632C172.837 132.066 171.661 129.437 169.72 128.031C168.219 126.951 166.259 126.597 164.04 127.094C162.893 127.352 161.669 127.831 160.407 128.567C156.965 130.555 153.198 134.437 150.626 139.715C150.435 139.6 150.253 139.495 150.062 139.39C149.928 139.304 149.804 139.237 149.67 139.161Z" fill="#E06C00"/>
<path d="M158.084 131.368C153.906 134.046 150.359 140.117 150.12 145.156C150.12 145.165 150.12 145.165 150.12 145.165C150.053 146.59 150.273 148.712 151.477 149.496C151.506 149.516 151.525 149.535 151.554 149.544C152.5 150.08 153.715 150.137 154.814 149.908C156.382 149.592 157.702 148.712 158.878 147.68C161.842 145.089 163.878 141.608 164.653 137.688C164.959 136.149 165.064 134.562 164.557 133.051C164.194 131.99 163.544 130.967 162.607 130.403C162.597 130.393 162.588 130.393 162.578 130.393C161.431 129.753 159.662 130.441 158.524 131.101C158.371 131.196 158.237 131.282 158.084 131.368ZM148.475 150.051C147.729 146.618 148.666 142.593 150.053 139.381C150.244 139.486 150.426 139.591 150.617 139.706C153.198 134.428 156.966 130.546 160.398 128.557C161.67 127.821 162.884 127.343 164.031 127.085C165.159 127.095 166.345 127.439 167.273 128.098C168.257 128.806 168.946 129.877 169.386 131.024C172.015 138.004 166.039 150.739 157.855 154.373C156.354 155.042 154.68 155.453 153.103 155.128C151.917 154.889 150.779 154.229 149.986 153.321C149.202 152.413 148.733 151.246 148.475 150.051Z" fill="#516C7A"/>
<path d="M150.062 139.39C148.675 142.603 147.738 146.628 148.484 150.061C148.742 151.256 149.211 152.422 150.004 153.34C150.798 154.248 151.936 154.908 153.121 155.147C154.699 155.472 156.372 155.061 157.873 154.392C166.058 150.759 172.033 138.023 169.404 131.043C168.974 129.896 168.276 128.825 167.291 128.118C166.364 127.448 165.178 127.104 164.05 127.104C166.268 126.597 168.228 126.961 169.729 128.041L169.719 128.051C170.647 130.011 170.953 132.248 170.848 134.495C170.781 136.034 170.523 137.574 170.14 139.017C168.821 144.047 165.809 149.143 161.803 152.7C158.762 155.396 154.689 157.509 150.674 156.83C149.698 156.667 148.78 156.342 147.92 155.845C146.314 154.918 144.707 154 143.111 153.072C139.965 151.256 138.626 147.747 138.493 144.114C138.473 143.817 138.464 143.521 138.473 143.224C138.473 143.1 138.483 142.976 138.483 142.842C138.512 142.115 138.579 141.389 138.684 140.672C139.028 138.367 139.745 136.063 140.682 133.988C142.135 134.83 143.589 135.661 145.042 136.503C145.08 136.532 149.603 139.132 149.66 139.17C149.804 139.237 149.928 139.304 150.062 139.39Z" fill="#344E5D"/>
<path d="M140.692 133.979C139.765 136.054 139.038 138.349 138.694 140.663L138.12 140.997V132.507C138.311 132.622 138.455 132.698 138.474 132.708C139.22 133.128 139.956 133.549 140.692 133.979Z" fill="#E06C00"/>
<path d="M148.991 118.424C154.383 115.316 159.193 115.536 162.596 117.506C159.011 115.45 154.603 116.588 151.037 118.653C146.677 121.168 141.877 126.034 138.474 132.699C138.454 132.689 138.311 132.603 138.12 132.498C137.823 132.316 137.393 132.077 137.154 131.943C137.135 131.934 137.116 131.914 137.106 131.914C137.078 131.895 137.059 131.886 137.039 131.876C137.001 131.848 136.972 131.838 136.972 131.838H136.963C137.317 131.13 137.709 130.433 138.11 129.735C140.787 125.203 144.564 120.976 148.991 118.424Z" fill="#E06C00"/>
<path d="M138.493 144.105L122.937 153.092V151.821L138.502 142.833C138.493 142.957 138.493 143.082 138.493 143.215C138.483 143.512 138.493 143.808 138.512 144.105H138.493Z" fill="#688499"/>
<path d="M124.362 113.365C124.916 114.331 123.979 116.577 122.583 117.17C122.354 117.275 122.086 117.333 121.847 117.266C121.77 117.247 121.684 117.209 121.618 117.161C121.474 117.075 121.35 116.95 121.264 116.797C121.139 116.587 121.101 116.329 121.111 116.071C121.159 114.197 123.013 112.39 124.017 112.992H124.027C124.142 113.078 124.256 113.193 124.362 113.365Z" fill="#596876"/>
<path d="M116.206 132.144L116.196 132.153C115.182 132.736 114.159 133.329 113.146 133.912C112.668 132.736 112.4 131.503 112.333 130.193C112.152 126.158 113.022 122.678 114.704 118.987C115.402 119.389 116.072 119.781 116.081 119.781C116.081 123.691 116.081 127.612 116.081 131.522C116.081 131.723 116.129 131.933 116.206 132.144Z" fill="#344E5D"/>
<path d="M111.138 110.316C111.138 110.354 111.138 110.393 111.148 110.431H111.138C110.297 109.943 109.446 109.456 108.595 108.958C108.519 108.92 108.452 108.872 108.375 108.834C108.108 108.681 107.84 108.519 107.563 108.366C107.094 108.098 106.626 107.821 106.157 107.553C105.966 107.438 105.784 107.18 105.784 106.731C105.784 105.956 106.387 104.866 107.085 104.513C107.362 104.369 107.706 104.293 107.955 104.436C108.423 104.704 108.892 104.981 109.36 105.249C109.628 105.402 109.895 105.564 110.173 105.717C110.211 105.736 110.249 105.755 110.288 105.784C111.167 106.291 112.047 106.798 112.936 107.304C112.917 107.314 112.907 107.323 112.888 107.333C112.381 107.582 112.056 107.983 111.769 108.433C111.416 109.006 111.138 109.656 111.138 110.316Z" fill="#A5B3BF"/>
<path d="M98.5752 114.408V107.351C98.5752 104.177 100.526 100.697 102.859 98.7559C103.442 99.0714 104.035 99.3773 104.618 99.6833L104.608 99.6929C106.597 100.725 106.693 100.773 107.018 100.859C107.983 101.108 108.968 100.678 109.504 99.559C109.561 99.4443 109.599 99.3487 109.628 99.2435C110.833 101.022 110.976 103.45 110.163 105.697C109.886 105.535 109.618 105.382 109.351 105.229C109.456 104.636 109.465 103.814 109.073 103.364C108.767 103.001 108.213 102.877 107.716 102.963C106.521 103.173 104.675 105.238 104.675 107.342C104.675 107.676 104.713 108.03 104.886 108.336C105.048 108.633 105.335 108.891 105.66 108.986C106.291 109.168 107.046 108.757 107.544 108.346C107.811 108.499 108.079 108.661 108.356 108.814C107.926 109.321 107.515 109.713 107.037 110.086V111.252V113.031V114.541V121.11V128.682V136.198L106.253 136.685L104.685 137.593C104.57 137.66 104.446 137.718 104.321 137.785H104.312C104.121 137.88 103.91 137.947 103.7 138.024C103.576 138.062 103.451 138.091 103.337 138.129C103.241 138.148 103.145 138.167 103.04 138.186C102.945 138.205 102.849 138.224 102.744 138.244C102.581 138.272 102.409 138.282 102.237 138.301C102.151 138.311 102.075 138.311 101.989 138.32C101.635 138.339 101.281 138.33 100.927 138.291C100.306 138.234 99.7034 138.1 99.168 137.871C99.168 137.211 99.168 136.561 99.168 135.901C98.9576 135.796 98.7664 135.7 98.5848 135.586V127.86C98.9863 127.286 99.2445 126.598 99.3305 125.938C99.3879 125.556 99.407 125.164 99.407 124.791C99.407 123.405 99.1011 122.009 98.5848 120.68V114.408H98.5752Z" fill="#E0852F"/>
<path d="M105.966 97.2449C106.607 97.1779 107.286 97.264 107.831 97.5795C107.897 97.6177 107.955 97.656 108.022 97.7038C108.385 97.9237 108.71 98.1914 108.997 98.4782C108.634 99.7308 107.572 100.266 106.549 99.7499C105.574 99.2527 104.58 98.746 103.604 98.2201C104.379 97.6751 105.201 97.3309 105.966 97.2449Z" fill="#EBB481"/>
<path d="M115.986 151.285C110.9 148.35 105.813 145.415 100.717 142.47H100.708C100.746 141.408 100.469 140.338 99.9141 139.468C101.329 139.869 103.117 139.745 104.331 139.047C105.412 138.425 106.683 138.301 107.391 139.315C110.058 143.101 112.717 146.887 115.375 150.664C115.556 150.941 115.757 151.142 115.986 151.285Z" fill="#527184"/>
<path d="M104.694 107.351C104.694 105.248 106.54 103.183 107.735 102.972C108.222 102.886 108.787 103.011 109.092 103.374C109.475 103.823 109.475 104.646 109.37 105.238C108.901 104.971 108.433 104.693 107.964 104.426C107.716 104.282 107.371 104.359 107.094 104.502C106.396 104.856 105.794 105.946 105.794 106.72C105.794 107.17 105.976 107.438 106.167 107.543C106.635 107.81 107.104 108.088 107.572 108.355C107.066 108.776 106.32 109.178 105.689 108.996C105.364 108.9 105.067 108.642 104.914 108.346C104.723 108.049 104.694 107.696 104.694 107.351Z" fill="#8A3071"/>
<path d="M104.618 99.6929C104.034 99.387 103.442 99.0714 102.858 98.7655C103.107 98.5551 103.356 98.3639 103.604 98.2109C104.579 98.7368 105.574 99.2435 106.549 99.7407C107.572 100.257 108.633 99.7216 108.997 98.4691C109.245 98.7177 109.456 98.9758 109.637 99.2627C109.609 99.3678 109.561 99.473 109.513 99.5782C108.978 100.697 107.993 101.118 107.027 100.879C106.702 100.792 106.606 100.745 104.618 99.712V99.6929Z" fill="#CFC6F5"/>
<path d="M103.872 160.388C104.426 156.965 104.273 152.7 102.16 149.937C101.434 148.972 100.449 148.178 99.3398 147.719C99.6936 146.533 100.038 145.348 100.382 144.172C104.866 147.69 105.765 153.924 104.818 159.613C104.818 159.623 104.809 159.632 104.809 159.642C104.742 160.053 104.283 160.273 103.872 160.388Z" fill="#A5B3BF"/>
<path d="M107.266 137.297C106.387 136.982 105.306 137.221 104.34 137.785L104.321 137.775C104.446 137.718 104.57 137.651 104.685 137.584L106.253 136.676C106.606 136.877 106.951 137.077 107.295 137.278C107.285 137.288 107.276 137.297 107.266 137.297Z" fill="#A5B3BF"/>
<path d="M103.871 160.387C103.441 160.502 103.011 160.617 102.581 160.732C102.734 159.756 102.829 158.714 102.82 157.672C102.8 155.482 102.351 153.264 101.175 151.591C100.774 151.017 100.276 150.501 99.7122 150.09C99.435 149.88 99.129 149.688 98.8135 149.535C98.9951 148.933 99.1672 148.321 99.3393 147.719C100.448 148.178 101.433 148.971 102.16 149.937C104.273 152.7 104.435 156.964 103.871 160.387Z" fill="#688499"/>
<path d="M103.605 98.2105C103.356 98.3731 103.098 98.5643 102.859 98.7651C99.2255 96.8241 95.6209 94.7494 92.1406 92.5407C92.3701 92.3495 92.6091 92.1774 92.8482 92.0244C96.338 94.2235 99.9521 96.2792 103.605 98.2105Z" fill="#CFC6F5"/>
<path d="M102.82 157.672C102.161 157.29 101.491 156.907 100.832 156.525C100.927 154.287 100.631 152.05 99.7129 150.1C100.277 150.511 100.774 151.027 101.176 151.601C102.352 153.264 102.801 155.483 102.82 157.672Z" fill="#446172"/>
<path d="M98.5276 138.111C98.7379 138.235 98.9291 138.369 99.1108 138.522C99.4263 138.79 99.694 139.115 99.9235 139.468C100.478 140.338 100.755 141.409 100.717 142.471C100.708 142.891 100.641 143.312 100.526 143.704C100.449 143.953 99.8661 143.924 99.5984 143.886C99.0821 143.809 98.6901 143.704 98.212 143.474C97.973 143.36 97.4567 143.073 97.5332 142.815C97.5428 142.796 97.5428 142.786 97.5428 142.767C97.7627 141.954 97.3802 141.036 96.9787 140.807H96.9691C96.6918 140.644 96.6249 140.252 96.6536 139.908C96.7014 139.325 97.1221 138.598 97.6001 138.273C97.8774 138.092 98.2503 137.958 98.5276 138.111Z" fill="#EA8071"/>
<path d="M99.5979 143.895C99.8656 143.933 100.449 143.952 100.525 143.713C100.487 143.866 100.43 144.019 100.391 144.172C100.047 145.357 99.7031 146.543 99.3493 147.719C99.1772 148.321 99.0051 148.933 98.8234 149.536C98.6609 150.081 98.5079 150.626 98.3454 151.171C97.1885 155.119 96.0316 159.078 94.8747 163.026V163.036C94.8747 163.036 94.8747 163.046 94.8651 163.046C94.7886 163.294 94.2054 163.256 93.9472 163.227C93.4309 163.151 93.0389 163.046 92.5609 162.816C92.3218 162.701 91.8151 162.415 91.882 162.166V162.156C92.6565 159.508 93.4214 156.869 94.2054 154.23C94.6739 152.605 95.1519 150.979 95.63 149.354C95.6682 149.211 95.7065 149.067 95.7543 148.924C95.9168 148.35 96.0889 147.776 96.261 147.212C96.6913 145.759 97.112 144.296 97.5422 142.843C97.4658 143.091 97.9821 143.388 98.2211 143.502C98.6896 143.713 99.0816 143.818 99.5979 143.895Z" fill="#B3CDE0"/>
<path d="M97.0928 91.3749C100.678 93.4401 104.254 95.5053 107.83 97.5705C107.285 97.255 106.606 97.169 105.966 97.2359C105.201 97.3315 104.378 97.6757 103.604 98.2111C99.9612 96.2893 96.3375 94.2241 92.8477 92.025C93.6412 91.48 94.4539 91.1358 95.238 91.0498C95.8116 90.9829 96.4235 91.0498 96.9303 91.2984C96.9781 91.3175 97.0355 91.3462 97.0928 91.3749Z" fill="#B8CCDC"/>
<path d="M96.6527 139.926C96.624 140.27 96.6909 140.662 96.9682 140.825H96.9777C97.3793 141.054 97.7618 141.972 97.5419 142.785C97.1307 142.985 96.6335 143.129 96.1842 143.014C96.0503 142.976 95.9165 142.918 95.8017 142.842C95.5244 142.66 95.295 142.393 95.1611 142.106C94.4536 140.614 95.7826 137.239 97.9147 136.187C98.2972 135.996 98.737 135.862 99.1481 135.91C99.1481 136.57 99.1481 137.23 99.1481 137.88C99.1386 137.889 99.1195 137.899 99.1099 137.908C99.1099 138.119 99.1099 138.329 99.1099 138.539C98.9282 138.386 98.737 138.253 98.5267 138.128H98.5171C98.2494 137.966 97.8765 138.109 97.5897 138.31C97.1307 138.616 96.7005 139.343 96.6527 139.926Z" fill="#E06C00"/>
<path d="M79.6532 161.2C79.615 161.18 75.0734 158.561 75.0352 158.532C78.4294 151.849 83.2387 146.992 87.5986 144.487C90.3331 142.899 92.7521 142.297 94.7504 142.259C95.1041 142.46 95.4388 142.66 95.7925 142.861L95.8021 142.842C95.9168 142.919 96.0507 142.976 96.1845 143.014C96.6243 143.129 97.1311 142.985 97.5422 142.785C97.5422 142.804 97.5327 142.813 97.5327 142.832C97.1024 144.286 96.6817 145.749 96.2515 147.202C94.5878 147.259 92.6182 147.785 90.3904 149.066C86.6138 151.246 82.5025 155.463 79.6532 161.2Z" fill="#A5B3BF"/>
<path d="M88.1722 138.463C90.3617 139.735 92.5608 140.997 94.7503 142.259C92.752 142.297 90.3331 142.899 87.5986 144.486C83.2482 147.001 78.4389 151.849 75.0351 158.532C73.5818 157.69 72.1285 156.859 70.6752 156.017C69.939 155.587 69.2028 155.166 68.457 154.736C71.8513 148.053 76.6605 143.196 81.0205 140.691C83.7645 139.103 86.1739 138.501 88.1722 138.463Z" fill="#688499"/>
<path d="M91.6338 91.26C92.8003 90.7055 94.1006 90.4856 95.4296 90.7533C95.965 90.868 96.4718 91.0497 96.9211 91.2983C96.4144 91.0497 95.8025 90.9827 95.2288 91.0497C94.4448 91.1357 93.6321 91.4799 92.8385 92.0249C92.4369 91.7668 92.0354 91.5086 91.6338 91.26Z" fill="#EBB481"/>
<path d="M90.8301 91.6996C91.0882 91.537 91.3559 91.3841 91.6332 91.2598C92.0348 91.5179 92.4364 91.7761 92.8379 92.0247C92.5989 92.1776 92.3694 92.3593 92.1304 92.541C91.7001 92.2637 91.2699 91.9864 90.8301 91.6996Z" fill="#CFC6F5"/>
<path d="M91.2318 162.644C91.2701 162.653 91.2988 162.673 91.3274 162.682C91.337 162.682 91.337 162.692 91.337 162.692H91.3466C91.3848 162.711 91.4135 162.72 91.4326 162.73C91.4613 162.739 91.4709 162.739 91.4709 162.73C91.5091 162.73 91.5665 162.692 91.5952 162.663C91.729 162.539 91.8246 162.328 91.8724 162.156H91.882C91.8151 162.405 92.3218 162.692 92.5608 162.806C93.0485 163.036 93.4405 163.141 93.9472 163.218C94.2149 163.256 94.7886 163.284 94.8651 163.036C94.4348 164.566 93.3162 165.55 92.0732 165.79C91.3179 165.942 90.5147 165.818 89.7785 165.388C89.5108 165.235 89.4439 164.833 89.463 164.489C89.5108 163.916 89.9315 163.189 90.4096 162.854C90.6582 162.692 90.9832 162.567 91.2318 162.644Z" fill="#EA8071"/>
<path d="M88.2482 164.374C88.1525 164.145 88.1525 163.858 88.2003 163.619C88.2673 163.265 88.4298 162.911 88.6497 162.615C88.8983 162.271 89.3094 161.917 89.7015 161.888C89.8162 161.869 89.9214 161.888 90.0265 161.936C90.4281 162.175 90.8392 162.404 91.2408 162.644C91.2408 162.653 91.2312 162.653 91.2312 162.653C90.9827 162.577 90.6576 162.701 90.409 162.873C89.9309 163.208 89.5198 163.934 89.4624 164.508C89.4337 164.852 89.5007 165.254 89.7779 165.407C89.7397 165.388 89.711 165.368 89.6728 165.349C89.233 165.091 88.7931 164.814 88.3533 164.556C88.3151 164.489 88.2768 164.431 88.2482 164.374Z" fill="#C44600"/>
<path d="M85.1023 163.15C85.8959 163.6 86.6799 164.059 87.4735 164.517L87.483 164.508C87.7316 164.651 88.0376 164.67 88.2479 164.384C88.2766 164.441 88.3148 164.508 88.3626 164.556C88.8025 164.814 89.2423 165.091 89.6821 165.349C88.5539 166.927 86.9189 168.504 85.1023 169.212C82.5686 170.197 80.7997 169.183 80.1209 167.214H80.1113C80.2739 163.8 81.9566 159.899 84.3278 156.907C85.456 155.492 86.7277 154.287 88.0662 153.426C88.5826 153.321 89.1371 153.302 89.6534 153.417C90.4565 153.599 91.1832 154.124 91.6421 154.822C92.2158 155.683 92.3688 156.811 92.3688 157.825C92.3688 159.163 92.0437 160.827 91.2406 162.634C90.839 162.404 90.4279 162.165 90.0263 161.926C89.9211 161.879 89.8159 161.859 89.7012 161.879C89.8446 161.563 89.6725 161.295 89.4239 161.142L89.4335 161.133C88.6208 160.664 87.8177 160.205 87.005 159.737L86.9954 159.746C86.8807 159.699 86.7659 159.67 86.6512 159.67C86.0584 159.66 84.9206 160.588 84.7198 161.993C84.6816 162.309 84.6816 162.643 84.8537 162.892C84.9206 162.988 85.0067 163.074 85.1023 163.131V163.15Z" fill="#A4B5BC"/>
<path d="M89.6545 153.408C89.1382 153.284 88.5932 153.312 88.0674 153.417C88.2108 153.322 88.3638 153.236 88.5072 153.15C89.645 152.49 91.4329 151.802 92.5707 152.452C92.5803 152.452 92.5803 152.452 92.5898 152.461C93.2209 152.825 93.785 153.408 94.1961 154.23H94.2057C93.4312 156.879 92.6568 159.518 91.8823 162.156V162.166H91.8727C91.8249 162.338 91.7293 162.548 91.5955 162.673C91.5668 162.701 91.519 162.74 91.4712 162.74C91.4712 162.749 91.4616 162.749 91.4329 162.74C91.4138 162.73 91.3851 162.721 91.3469 162.701H91.3373C91.3278 162.701 91.3278 162.692 91.3278 162.692C91.2991 162.673 91.2704 162.654 91.2321 162.634C92.0448 160.827 92.3604 159.164 92.3604 157.825C92.3604 156.812 92.1978 155.683 91.6337 154.823C91.1843 154.125 90.4481 153.59 89.6545 153.408Z" fill="#344E5D"/>
<path d="M87.2166 164.259C86.8819 163.762 87.0923 162.261 88.2396 161.372C88.4978 161.181 88.7942 161.009 89.1097 161.037C89.2149 161.047 89.32 161.085 89.4157 161.142C89.6642 161.286 89.8363 161.563 89.6929 161.879C89.3105 161.907 88.8898 162.261 88.6412 162.605C88.4213 162.902 88.2587 163.265 88.1918 163.609C88.1536 163.858 88.144 164.145 88.2396 164.365C88.0293 164.651 87.7233 164.642 87.4747 164.489C87.3791 164.441 87.2835 164.355 87.2166 164.259Z" fill="#EA8071"/>
<path d="M87.8279 101.156C87.8279 97.9815 89.7975 94.4917 92.1305 92.5508C95.6107 94.7594 99.2153 96.8342 102.849 98.7751C100.525 100.716 98.5652 104.196 98.5652 107.371V114.427V120.689C97.0067 116.731 93.5551 113.432 90.7728 113.232C90.1035 113.184 89.3864 113.289 88.8032 113.633C88.7554 113.662 88.698 113.691 88.6502 113.729C88.3729 113.882 88.0956 114.044 87.8184 114.207V114.197V108.231V101.156H87.8279Z" fill="#B3CDE0"/>
<path d="M88.8705 93.4202C89.4441 92.751 90.0943 92.1677 90.8114 91.7088C90.8209 91.6992 90.8209 91.6992 90.8305 91.6992C91.2608 91.9861 91.7006 92.2729 92.1308 92.5406C89.7883 94.4815 87.8283 97.9714 87.8283 101.146V108.202V114.168V114.178C87.4936 114.369 87.159 114.56 86.8148 114.761C86.7765 114.78 86.7479 114.799 86.7096 114.818C86.6618 114.847 86.6044 114.876 86.5566 114.904C86.5566 112.084 86.5566 109.263 86.5566 106.433C86.5566 104.081 86.5566 101.729 86.5566 99.3769C86.5566 98.4207 86.7383 97.4455 87.0729 96.5181C87.4745 95.3994 88.096 94.3285 88.8705 93.4202Z" fill="#E0852F"/>
<path d="M86.7476 116.588C86.8624 116.56 86.9867 116.541 87.111 116.531C88.6694 116.388 90.3713 117.506 91.4995 118.654C93.7177 120.9 94.8938 123.912 94.8938 126.236C94.9033 127.507 94.5591 128.473 93.9855 129.104H93.9759C90.0749 130.213 85.4186 125.585 85.2943 120.681C85.2561 119.16 85.6863 117.631 86.7476 116.588Z" fill="#F8EEBC"/>
<path d="M85.3133 129.887C85.6862 129.571 86.1164 129.303 86.5658 129.169C86.8239 129.083 87.0821 129.045 87.3402 129.074C87.4837 129.169 87.6462 129.275 87.8279 129.38C91.4038 131.445 94.9892 133.51 98.5651 135.575C98.7468 135.69 98.9284 135.786 99.1483 135.891C98.7276 135.853 98.2974 135.977 97.9149 136.168C95.7732 137.23 94.4538 140.595 95.1613 142.087C95.2952 142.383 95.5246 142.651 95.8019 142.823L95.7923 142.842C95.4386 142.641 95.1039 142.44 94.7502 142.24C92.5607 140.968 90.3616 139.706 88.1721 138.444C87.9617 138.329 87.7609 138.205 87.5506 138.09C86.4224 137.43 85.2846 136.78 84.1564 136.13C84.099 136.092 84.0416 136.063 83.9747 136.025C83.5062 135.757 83.2767 135.203 83.2002 134.6C83.1716 134.361 83.162 134.122 83.1716 133.893C83.2194 132.879 83.7165 131.77 84.3667 130.881C84.6727 130.508 84.9882 130.154 85.3133 129.887Z" fill="#E06C00"/>
<path d="M84.7205 161.993C84.9118 160.588 86.0591 159.67 86.6519 159.67C86.7666 159.67 86.8814 159.699 86.9961 159.746L87.0057 159.737C87.8184 160.205 88.6215 160.664 89.4342 161.133L89.4247 161.142C89.329 161.085 89.2239 161.047 89.1187 161.037C88.8032 161.008 88.5068 161.171 88.2486 161.372C87.1013 162.261 86.8909 163.762 87.2256 164.259C87.2925 164.355 87.3881 164.441 87.4933 164.508L87.4837 164.517C86.6902 164.068 85.9061 163.609 85.1126 163.15L85.1221 163.141C85.0265 163.083 84.9405 162.997 84.8735 162.902C84.6727 162.643 84.6727 162.309 84.7205 161.993Z" fill="#EA8071"/>
<path d="M87.3399 129.084C87.0817 129.055 86.8236 129.093 86.5654 129.179C86.5654 128.653 86.5654 128.127 86.5654 127.602C87.6937 129.026 89.0609 130.183 90.5238 130.805C91.9197 131.397 93.1531 131.369 94.0805 130.824L94.0901 130.833C94.5968 130.537 95.094 130.25 95.6008 129.963C96.2605 129.581 96.9298 129.189 97.5991 128.816C97.9815 128.596 98.3161 128.261 98.5839 127.869V135.595C94.9984 133.53 91.4225 131.464 87.8466 129.399C87.6458 129.275 87.4833 129.179 87.3399 129.084Z" fill="#A3BACC"/>
<path d="M86.1262 115.306C85.8298 115.373 85.5621 115.488 85.3135 115.631C85.7342 115.383 86.1453 115.144 86.566 114.905C86.6138 114.876 86.6712 114.847 86.719 114.819C86.7572 114.79 86.7859 114.78 86.8241 114.761C87.1588 114.57 87.4934 114.369 87.8376 114.178C88.1149 114.015 88.3922 113.853 88.6695 113.7C88.7173 113.671 88.7746 113.643 88.8224 113.604C89.4057 113.27 90.1132 113.155 90.792 113.203C93.5744 113.404 97.026 116.702 98.5844 120.66C99.1007 121.99 99.4067 123.385 99.4067 124.772C99.4067 125.154 99.378 125.537 99.3302 125.919C99.2346 126.579 98.986 127.277 98.5844 127.841C98.3167 128.223 97.9821 128.568 97.5996 128.788C96.9303 129.17 96.2611 129.552 95.6013 129.935C95.0946 130.222 94.5974 130.509 94.0907 130.805L94.0811 130.795C95.2093 130.145 95.9073 128.74 95.8977 126.789C95.8977 122.401 92.5322 117.18 88.8702 115.641C87.8281 115.211 86.9006 115.115 86.1262 115.306Z" fill="#BB426A"/>
<path d="M87.8951 127.803C86.4896 126.378 85.371 124.495 84.8355 122.506C84.4818 121.206 84.3192 119.59 84.826 118.328C85.1032 117.62 85.5431 117.123 86.0689 116.836C86.2793 116.722 86.5087 116.635 86.7573 116.578C85.696 117.63 85.2658 119.15 85.304 120.67C85.4188 125.575 90.0846 130.203 93.9856 129.094C93.8231 129.275 93.6414 129.438 93.431 129.562C93.4215 129.572 93.4024 129.581 93.3928 129.591C92.016 130.375 89.9221 129.868 87.8951 127.803Z" fill="#BB426A"/>
<path d="M84.5396 91.3737C84.8264 91.2494 85.0655 91.2494 85.2471 91.3259C85.2758 91.3355 85.3045 91.3546 85.3427 91.3737C85.6009 91.5171 85.859 91.6701 86.1172 91.8231C87.0351 92.349 87.9529 92.8844 88.8804 93.4198C88.1059 94.3281 87.4844 95.4085 87.0829 96.5272C86.165 95.9918 85.2376 95.4659 84.3197 94.9305C84.0711 94.7871 83.8129 94.6436 83.5643 94.5002V94.4907C83.3158 94.3759 83.1437 94.1082 83.1437 93.6397C83.1341 92.7696 83.8225 91.6988 84.5396 91.3737Z" fill="#A5B3BF"/>
<path d="M84.8262 122.506C85.3617 124.495 86.4899 126.378 87.8858 127.803C89.9223 129.859 92.0067 130.375 93.3644 129.581C93.3739 129.572 93.3931 129.562 93.4026 129.553C93.613 129.428 93.8042 129.275 93.9572 129.084H93.9667C94.5404 128.453 94.8846 127.487 94.8751 126.216C94.8751 123.892 93.7086 120.881 91.4808 118.634C90.3622 117.486 88.6507 116.358 87.0922 116.511C86.9679 116.521 86.8436 116.54 86.7289 116.569C86.4803 116.626 86.2604 116.712 86.0405 116.827C85.5146 117.123 85.0748 117.611 84.7975 118.318C84.3195 119.599 84.4725 121.206 84.8262 122.506ZM86.5664 127.593C84.1283 124.504 82.7801 120.164 83.8797 117.381C84.1856 116.607 84.6732 115.995 85.3139 115.632C85.5624 115.488 85.8302 115.373 86.1266 115.306C86.901 115.115 87.8189 115.211 88.8706 115.651C92.523 117.19 95.8981 122.42 95.8981 126.799C95.9077 128.75 95.2097 130.165 94.0815 130.805C93.154 131.35 91.9206 131.379 90.5247 130.786C89.0523 130.174 87.6946 129.017 86.5664 127.593Z" fill="#D1628D"/>
<path d="M82.4166 134.362C82.1489 134.247 81.5466 133.931 81.6326 133.654H81.623C82.0055 132.315 83.0094 131.187 84.3767 130.9C83.7265 131.79 83.2293 132.899 83.1815 133.912C83.172 134.142 83.172 134.381 83.2102 134.62H83.1911C82.9234 134.562 82.6557 134.467 82.4166 134.362Z" fill="#EA8071"/>
<path d="M83.1342 93.6407C83.1342 94.1092 83.3158 94.3769 83.5548 94.4917V94.5012C83.8034 94.6447 84.0616 94.7976 84.3102 94.9315C83.8417 95.1705 83.4019 95.1705 83.0959 94.9411C82.8473 94.7498 82.6943 94.3961 82.6943 93.8893C82.6943 93.0097 83.1724 92.0631 83.7748 91.4321C84.1476 91.0496 84.7691 90.6194 85.295 90.7054C85.3524 90.715 85.4193 90.7341 85.4766 90.7532C85.6583 90.8297 85.8113 90.9445 85.9165 91.107C86.0599 91.3174 86.0981 91.5755 86.1077 91.8145C85.8495 91.6616 85.5914 91.5181 85.3332 91.3652C85.3045 91.346 85.2759 91.3269 85.2376 91.3174C85.056 91.2409 84.8169 91.2409 84.5301 91.3652C83.8226 91.6998 83.1342 92.7707 83.1342 93.6407Z" fill="#596876"/>
<path d="M82.4162 134.362C82.6553 134.467 82.923 134.563 83.1907 134.63H83.2098C83.2863 135.223 83.5062 135.777 83.9843 136.054C84.0416 136.093 84.099 136.121 84.1659 136.16C83.9365 136.972 83.6974 137.775 83.4584 138.588C82.1868 138.923 80.9534 139.429 79.7869 140.041L79.7773 140.032C80.3988 137.909 81.0203 135.787 81.6418 133.664C81.5462 133.932 82.1581 134.247 82.4162 134.362Z" fill="#B3CDE0"/>
<path d="M83.8413 156.534C82.6462 158.064 81.5371 159.813 80.6001 161.754C80.4184 161.64 80.2272 161.544 80.0455 161.429C79.9212 161.353 79.7874 161.276 79.6631 161.2C82.5123 155.463 86.6236 151.247 90.3908 149.067C92.609 147.785 94.5881 147.26 96.2518 147.202C96.0892 147.776 95.9171 148.349 95.745 148.914C95.2192 148.923 94.6551 148.99 94.0623 149.124C92.9436 149.373 91.7198 149.831 90.3908 150.606C88.2012 151.858 85.897 153.876 83.8413 156.534Z" fill="#688499"/>
<path d="M80.1119 167.203C80.7908 169.173 82.5692 170.186 85.0933 169.202C86.9099 168.494 88.5449 166.907 89.6731 165.339C89.7114 165.358 89.7401 165.377 89.7783 165.396C90.5145 165.826 91.3177 165.951 92.073 165.798C90.8205 167.777 89.0803 169.689 87.0629 170.846C84.8543 172.127 82.2154 172.462 80.6091 170.473C80.1597 169.498 80.0641 168.284 80.1024 167.213C80.1024 167.203 80.1024 167.203 80.1119 167.203Z" fill="#344E5D"/>
<path d="M98.3355 151.17C97.1786 155.119 96.0217 159.077 94.8648 163.026V163.035C94.8648 163.035 94.8648 163.045 94.8552 163.045C94.425 164.575 93.3063 165.559 92.0634 165.798C90.8109 167.778 89.0707 169.69 87.0533 170.847C84.8447 172.128 82.2058 172.463 80.5995 170.474C80.1501 169.499 80.0545 168.284 80.0928 167.213C80.0928 167.204 80.0928 167.204 80.0928 167.204C80.2553 163.791 81.9381 159.89 84.3092 156.897C85.4375 155.482 86.7091 154.277 88.0477 153.417C88.1911 153.321 88.3441 153.235 88.4875 153.149C89.6253 152.489 91.4132 151.801 92.551 152.451C92.5606 152.451 92.5606 152.451 92.5701 152.461C93.2012 152.824 93.7653 153.407 94.1764 154.229H94.186C94.6545 152.604 95.1325 150.979 95.6106 149.353C95.6488 149.21 95.6871 149.066 95.7349 148.923C95.209 148.932 94.6449 148.999 94.0521 149.133C92.9334 149.382 91.7096 149.841 90.3806 150.615C88.2007 151.868 85.8964 153.885 83.8407 156.543C82.6456 158.073 81.5365 159.823 80.5995 161.764C80.4178 161.649 80.2266 161.553 80.0449 161.438C75.4364 172.023 79.9015 180.121 88.0094 176.373C93.641 173.772 99.0909 166.143 99.9131 158.608C100.181 156.075 99.9131 153.168 98.3355 151.17Z" fill="#516C7A"/>
<path d="M75.0352 158.532C75.0734 158.561 79.6055 161.181 79.6533 161.2C79.7776 161.277 79.9114 161.353 80.0357 161.429C75.4272 172.014 79.8923 180.112 88.0002 176.364C93.6317 173.763 99.0816 166.134 99.9039 158.599C100.181 156.075 99.9134 153.169 98.3358 151.18C98.4984 150.635 98.6514 150.09 98.8139 149.545C99.1294 149.698 99.4258 149.88 99.7127 150.099C100.631 152.06 100.927 154.297 100.831 156.525C100.755 158.064 100.497 159.603 100.124 161.047C98.8139 166.057 95.8117 171.153 91.7864 174.729C87.8568 178.209 82.4069 180.475 77.9131 177.875C76.3068 176.947 74.7006 176.029 73.1038 175.102C69.7096 173.142 68.4093 169.203 68.4667 165.254C68.5145 162.108 69.4037 158.867 70.6849 156.018C72.1286 156.859 73.5915 157.701 75.0352 158.532Z" fill="#344E5D"/>
<path d="M81.0206 140.691C76.6702 143.206 71.861 148.053 68.4572 154.736C68.0938 154.526 67.7592 154.335 67.4915 154.182C67.4532 154.153 67.415 154.144 67.3863 154.124C67.3576 154.105 67.3289 154.086 67.2907 154.077C67.2716 154.067 67.2525 154.048 67.2429 154.048C67.2333 154.038 67.2142 154.038 67.2046 154.029C67.1473 153.991 67.109 153.971 67.0708 153.952C67.0708 153.952 67.0612 153.952 67.0612 153.943C67.0421 153.933 67.023 153.924 67.0134 153.914C67.0134 153.914 67.0134 153.914 67.0039 153.905C66.9943 153.895 66.9752 153.895 66.9656 153.885L66.9561 153.876V153.866C69.6141 148.579 73.8688 143.406 78.9745 140.461C79.2422 140.308 79.5004 140.165 79.7681 140.031C80.9345 139.419 82.1679 138.913 83.4396 138.578C84.7781 138.224 86.155 138.042 87.5509 138.109C87.7612 138.224 87.962 138.348 88.1724 138.463C86.1741 138.501 83.7646 139.104 81.0206 140.691Z" fill="#A5B3BF"/>
<path d="M108.337 130.814C109.752 131.607 111.167 132.391 112.687 133.242C112.859 132.879 113.032 132.583 113.127 132.258C113.777 130.097 114.389 127.917 115.049 125.756C115.221 125.182 115.489 124.628 115.709 124.073C115.814 124.092 115.91 124.111 116.015 124.14C116.015 126.588 116.187 132.143 116.187 132.143C116.187 132.143 112.812 134.103 111.54 134.83C110.001 133.998 108.729 132.745 108.069 131.12C108.165 131.015 108.251 130.919 108.337 130.814Z" fill="#B4A8C3"/>
<path d="M116.025 122.42C113.309 120.727 110.747 119.14 108.137 117.515C108.242 117.142 108.29 116.846 108.404 116.568C108.519 116.291 108.682 116.023 108.873 115.65C111.11 116.951 116.082 119.771 116.082 119.771C116.082 119.771 115.939 120.125 115.996 120.488C116.092 121.1 116.025 121.741 116.025 122.42Z" fill="#B4A8C3"/>
<path d="M88 126.913C90.4859 127.506 93.0005 126.913 94.7598 125.097C95.2091 126.626 94.7885 128.462 93.7463 129.265C92.8284 130.097 91.509 130.183 90.2278 129.437C89.2621 128.883 88.5163 128.118 88 126.913Z" fill="#B4A8C3"/>
<path d="M121.101 115.985C121.11 114.819 122.047 113.346 123.022 112.973C123.692 112.715 124.151 112.954 124.313 113.643C124.571 114.733 123.692 116.492 122.669 116.932C121.732 117.333 121.091 116.941 121.101 115.985Z" fill="#B4A8C3"/>
<path d="M85.5334 122.974C84.0323 121.196 84.3383 118.012 85.9254 116.903C86.7286 116.339 87.5891 116.482 88.593 116.673C85.5908 117.496 84.9502 118.5 85.3326 121.578C85.3805 121.97 85.4474 122.362 85.5334 122.974Z" fill="#B4A8C3"/>
<path d="M83.4491 135.547C83.4491 135.547 84.1949 136.178 84.7112 136.446C84.5104 136.513 84.1471 136.149 84.1471 136.149L83.4396 138.578L82.5312 138.922C82.8563 137.756 83.1336 136.742 83.4491 135.547Z" fill="#B4A8C3"/>
<path d="M83.5834 92.3199C83.4973 94.1366 84.2909 95.0162 84.2909 95.0162C83.3348 95.3508 82.7038 94.8823 82.7516 93.9931C82.7802 93.3525 82.9715 92.7024 83.2487 92.1191L83.5834 92.3199Z" fill="#B4A8C3"/>
<path d="M83.2578 92.1678C84.0705 90.8866 84.778 90.4755 85.7437 90.9249C86.0114 91.0396 86.2122 91.7376 86.1071 91.7758C85.9732 91.8236 85.1414 91.1543 84.998 91.2021C84.5008 91.3742 83.9653 91.6037 83.5829 92.3304C83.5829 92.3208 83.2578 92.1678 83.2578 92.1678Z" fill="#B4A8C3"/>
<path opacity="0.5" d="M107.831 97.58C104.245 95.5148 100.669 93.4496 97.0934 91.3844C97.036 91.3557 96.9786 91.327 96.9308 91.2983C96.4814 91.0497 95.9651 90.8681 95.4393 90.7533C94.1103 90.4856 92.8099 90.7055 91.6435 91.2601C91.0602 90.8776 90.4674 90.5048 89.8842 90.1127C88.995 89.5295 88.3927 87.7607 88.8038 86.2022C91.0985 77.578 94.1103 69.059 97.6479 60.8363C97.8965 60.2531 98.3363 59.6603 98.9196 59.4117C99.3211 59.2396 99.7609 59.2587 100.153 59.5073C104.475 62.2896 108.901 64.8042 113.347 67.1181C114.294 67.6152 114.887 69.0494 114.476 70.5505C112.066 79.3851 110.202 88.583 109.102 97.9242C109.074 98.1155 109.045 98.2876 108.987 98.4597C108.701 98.1728 108.376 97.9051 108.012 97.6852C107.964 97.647 107.898 97.6087 107.831 97.58Z" fill="#C9C8F7"/>
<path d="M88.0671 85.6851C90.3809 76.9844 93.4213 68.4558 96.9112 60.3192C97.6569 58.3687 99.1389 57.9194 100.238 58.5886C103.91 60.9503 107.725 63.1589 111.674 65.2719C113.538 66.2663 113.595 66.2472 113.968 66.5723C115.116 67.5666 115.565 69.3641 115.221 70.9035C113.28 78.0266 111.827 84.882 110.804 91.3931C109.857 97.4263 109.953 98.4015 109.637 99.2524C109.455 98.9752 109.236 98.7075 108.997 98.4589C109.044 98.2963 109.083 98.1147 109.111 97.9234C110.211 88.5726 112.066 79.3747 114.485 70.5497C114.896 69.039 114.303 67.6144 113.356 67.1172C108.91 64.8034 104.474 62.2888 100.162 59.5065C99.7795 59.2579 99.3397 59.2388 98.9286 59.4109C98.3453 59.6595 97.9055 60.2427 97.6569 60.8355C94.1193 69.0582 91.098 77.5772 88.8128 86.2014C88.3921 87.7599 89.0041 89.5287 89.8932 90.1119C90.4765 90.4944 91.0597 90.8768 91.6525 91.2593C91.3752 91.3836 91.1075 91.5365 90.8494 91.6991C90.8398 91.7087 90.8398 91.7086 90.8302 91.7086C90.4095 91.4314 89.6829 90.9629 89.549 90.8481C88.2392 89.806 87.6177 87.4922 88.0671 85.6851Z" fill="#CFC6F5"/>
<path d="M117.4 115.373C117.314 115.411 117.219 115.43 117.133 115.43C116.693 115.43 116.253 115 116.253 114.302C116.253 114.13 116.263 113.958 116.272 113.776C116.387 112.189 116.989 110.602 117.439 109.569C115.603 112.084 115.775 114.857 114.752 114.857C114.456 114.857 114.006 114.579 114.073 113.977C114.14 113.413 114.236 112.897 114.341 112.419C115.134 108.986 116.932 107.475 117.754 106.28C117.764 106.28 117.764 106.271 117.764 106.271C117.878 106.108 117.974 105.946 118.041 105.783C118.376 105.601 118.863 105.41 119.513 105.41C119.523 105.41 119.542 105.41 119.552 105.41C121.531 105.439 122.707 106.94 123.204 108.785C123.013 109.321 122.736 109.847 122.583 110.382C122.038 112.189 122.047 113.451 120.881 114.828C120.852 114.838 120.823 114.837 120.785 114.837C120.355 114.837 120.116 114.331 120.116 113.872C120.116 113.183 120.412 112.964 120.823 110.812C120.211 112.218 119.705 114.445 119.16 115.287C119.083 115.296 119.016 115.306 118.949 115.306C118.366 115.306 118.204 114.933 118.204 114.407C118.204 113.814 118.634 112.313 118.988 110.841C117.945 113.442 117.821 114.809 117.4 115.373Z" fill="#A5A5E5"/>
<path d="M113.883 111.281C113.883 111.262 113.921 111.023 114.026 110.66C114.294 109.704 115.001 107.887 116.598 107.074C117.019 106.855 117.382 106.539 117.765 106.262C116.942 107.466 115.135 108.968 114.351 112.4C114.16 112.037 113.921 111.654 113.892 111.339C113.883 111.329 113.883 111.3 113.883 111.281Z" fill="#8A8ACE"/>
<defs>
<linearGradient id="paint0_linear" x1="22.5431" y1="33.5186" x2="191.507" y2="64.913" gradientUnits="userSpaceOnUse">
<stop stop-color="#FEB692"/>
<stop offset="1" stop-color="#EA5455"/>
</linearGradient>
</defs>
</svg>
