<svg width="14" height="14" viewBox="0 0 14 14" fill="none" xmlns="http://www.w3.org/2000/svg">
<g clip-path="url(#clip0)">
<path d="M4.8125 5.90624H9.1875C9.42922 5.90624 9.625 5.71046 9.625 5.46874V5.03124C9.625 4.78952 9.42922 4.59374 9.1875 4.59374H4.8125C4.57078 4.59374 4.375 4.78952 4.375 5.03124V5.46874C4.375 5.71046 4.57078 5.90624 4.8125 5.90624ZM4.375 8.09374C4.375 8.33546 4.57078 8.53124 4.8125 8.53124H9.1875C9.42922 8.53124 9.625 8.33546 9.625 8.09374V7.65624C9.625 7.41452 9.42922 7.21874 9.1875 7.21874H4.8125C4.57078 7.21874 4.375 7.41452 4.375 7.65624V8.09374ZM7 11.4059C6.55102 11.4059 6.10203 11.2675 5.71867 10.9905L0 6.85945V12.6875C0 13.4124 0.587617 14 1.3125 14H12.6875C13.4124 14 14 13.4124 14 12.6875V6.85945L8.28133 10.9905C7.89797 11.2673 7.44898 11.4059 7 11.4059ZM13.4971 4.45566C13.2552 4.26589 13.0257 4.08734 12.6875 3.83195V2.62499C12.6875 1.90011 12.0999 1.31249 11.375 1.31249H9.25449C9.17137 1.25234 9.09398 1.19601 9.00731 1.13312C8.54766 0.79761 7.63438 -0.0095775 7 -7.18714e-06C6.36562 -0.0095775 5.45262 0.79761 4.9927 1.13312C4.90602 1.19601 4.82863 1.25234 4.74551 1.31249H2.625C1.90012 1.31249 1.3125 1.90011 1.3125 2.62499V3.83195C0.974258 4.08706 0.744844 4.26589 0.502852 4.45566C0.346215 4.57841 0.219547 4.73518 0.13243 4.9141C0.0453121 5.09303 2.69556e-05 5.28942 0 5.48843L0 5.77964L2.625 7.67593V2.62499H11.375V7.67593L14 5.77964V5.48843C14 5.08538 13.8146 4.70448 13.4971 4.45566Z" fill="#777777"/>
</g>
<defs>
<clipPath id="clip0">
<rect width="14" height="14" fill="white"/>
</clipPath>
</defs>
</svg>
