<svg width="208" height="32" viewBox="0 0 208 32" fill="none" xmlns="http://www.w3.org/2000/svg">
<path d="M39.715 27.445C39.715 28.465 39.34 29.35 38.59 30.1C37.87 30.85 37 31.225 35.98 31.225C35.53 31.225 35.035 31.12 34.495 30.91L7.81 19.705V27.4C7.81 28.42 7.435 29.305 6.685 30.055C5.965 30.805 5.08 31.18 4.03 31.18C2.98 31.18 2.08 30.82 1.33 30.1C0.61 29.35 0.25 28.465 0.25 27.445V4.09C0.25 3.01 0.61 2.11 1.33 1.39C2.05 0.669998 2.95 0.309998 4.03 0.309998C5.08 0.309998 5.965 0.684999 6.685 1.435C7.435 2.155 7.81 3.04 7.81 4.09V10.93L34.495 0.849999C34.825 0.699999 35.26 0.624999 35.8 0.624999C36.85 0.624999 37.735 0.999999 38.455 1.75C39.205 2.47 39.58 3.355 39.58 4.405C39.58 6.175 38.755 7.36 37.105 7.96L16 15.475L37.33 23.935C38.92 24.595 39.715 25.765 39.715 27.445ZM80.7733 26.545C80.7733 27.865 80.3533 28.945 79.5133 29.785C78.6733 30.595 77.5933 31 76.2733 31H47.1133C45.8233 31 44.7433 30.58 43.8733 29.74C43.0333 28.9 42.6133 27.835 42.6133 26.545V4.045C42.6133 2.995 42.9883 2.11 43.7383 1.39C44.5183 0.639998 45.4333 0.264999 46.4833 0.264999C47.5333 0.264999 48.4183 0.639998 49.1383 1.39C49.8883 2.11 50.2633 2.995 50.2633 4.045V23.44H73.1233V4.045C73.1233 2.995 73.4833 2.11 74.2033 1.39C74.9533 0.639998 75.8533 0.264999 76.9033 0.264999C77.9833 0.264999 78.8983 0.624999 79.6483 1.345C80.3983 2.065 80.7733 2.965 80.7733 4.045V26.545ZM122.814 4.225C122.814 5.275 122.439 6.175 121.689 6.925C120.969 7.645 120.084 8.005 119.034 8.005H92.8442V23.44H115.749V18.94H102.249C100.779 18.94 99.6692 18.58 98.9192 17.86C98.1992 17.11 97.8392 16.285 97.8392 15.385C97.8392 14.365 98.2142 13.525 98.9642 12.865C99.7142 12.175 100.599 11.83 101.619 11.83H122.364V26.545C122.364 27.805 121.929 28.87 121.059 29.74C120.189 30.58 119.124 31 117.864 31H89.7842C88.4942 31 87.4142 30.58 86.5442 29.74C85.7042 28.9 85.2842 27.835 85.2842 26.545V4.99C85.2842 3.79 85.7192 2.74 86.5892 1.84C87.4892 0.909999 88.5242 0.444999 89.6942 0.444999H119.034C120.114 0.444999 121.014 0.804999 121.734 1.525C122.454 2.245 122.814 3.145 122.814 4.225ZM165.276 26.545C165.276 27.805 164.841 28.87 163.971 29.74C163.101 30.58 162.036 31 160.776 31H131.796C130.506 31 129.426 30.58 128.556 29.74C127.716 28.9 127.296 27.835 127.296 26.545V4.99C127.296 3.79 127.731 2.74 128.601 1.84C129.501 0.909999 130.536 0.444999 131.706 0.444999H160.776C162.036 0.444999 163.101 0.879999 163.971 1.75C164.841 2.59 165.276 3.64 165.276 4.9V26.545ZM158.121 23.89V7.555H134.316V23.89H158.121ZM207.771 26.545C207.771 27.805 207.336 28.87 206.466 29.74C205.596 30.58 204.531 31 203.271 31H174.291C173.001 31 171.921 30.58 171.051 29.74C170.211 28.9 169.791 27.835 169.791 26.545V4.99C169.791 3.79 170.226 2.74 171.096 1.84C171.996 0.909999 173.031 0.444999 174.201 0.444999H203.271C204.531 0.444999 205.596 0.879999 206.466 1.75C207.336 2.59 207.771 3.64 207.771 4.9V26.545ZM200.616 23.89V7.555H176.811V23.89H200.616Z" fill="url(#paint0_linear)"/>
<defs>
<linearGradient id="paint0_linear" x1="12.5" y1="17" x2="144.78" y2="117.072" gradientUnits="userSpaceOnUse">
<stop stop-color="#EA5455"/>
<stop offset="1" stop-color="#FEB692"/>
</linearGradient>
</defs>
</svg>
