<svg width="27" height="24" viewBox="0 0 27 24" fill="none" xmlns="http://www.w3.org/2000/svg">
<path d="M16.163 2.97114C16.163 3.7793 15.8303 4.51614 15.3073 5.03906C15.1647 5.18168 14.9983 5.32429 14.8082 5.44314C14.3566 5.72837 13.8099 5.91852 13.2394 5.91852H2.9236C2.82853 5.91852 2.73345 5.91852 2.66214 5.89475C2.3056 5.87098 1.97284 5.7759 1.66384 5.60952C0.689305 5.13414 0 4.11206 0 2.94738C0 2.18676 0.285227 1.49746 0.784379 0.974535C0.808148 0.950766 0.831916 0.903228 0.879454 0.879459C0.974531 0.784382 1.06961 0.713074 1.16469 0.617998C1.66384 0.237691 2.28184 0 2.94737 0H13.2394C13.8812 0 14.4754 0.213922 14.9746 0.57046C15.0221 0.617998 15.0696 0.641767 15.1172 0.689305C15.6401 1.14092 16.0204 1.75892 16.1393 2.47199C16.1393 2.47199 16.1393 2.47199 16.1393 2.49576C16.163 2.66214 16.163 2.80476 16.163 2.97114Z" fill="#15AEEF"/>
<path d="M22.7229 11.979C22.7229 12.7871 22.3902 13.524 21.8672 14.0469C21.3443 14.5698 20.6075 14.9026 19.7993 14.9026H9.48351C9.12697 14.9026 8.77043 14.8313 8.46144 14.7124C7.34429 14.2846 6.53613 13.215 6.53613 11.9552C6.53613 11.2897 6.75006 10.6954 7.13036 10.1963C7.22544 10.0774 7.29674 9.98235 7.41559 9.88727C7.43936 9.8635 7.46313 9.83973 7.4869 9.81596C8.00982 9.31681 8.72289 9.00781 9.50728 9.00781H19.7993C19.9419 9.00781 20.0608 9.00781 20.2034 9.03158C20.4649 9.05535 20.7025 9.12666 20.9402 9.22173C21.2255 9.34058 21.4869 9.50696 21.7008 9.69712C21.9623 9.91104 22.2 10.1963 22.3664 10.5053C22.6041 10.9569 22.7229 11.456 22.7229 11.979Z" fill="#15AEEF"/>
<path d="M26.1934 18.4685C25.7656 19.0865 25.314 19.6807 24.8624 20.2987C23.9829 21.5109 23.1272 22.6994 22.2478 23.9116C22.2478 23.9116 22.2478 23.9354 22.224 23.9354H14.3564C13.9999 23.9354 13.6671 23.8641 13.3581 23.769C13.1917 23.7215 13.0491 23.6502 12.9065 23.5551C12.7639 23.4838 12.645 23.3887 12.5262 23.2936C12.4786 23.2461 12.4311 23.2223 12.3836 23.1748C12.0983 22.9133 11.8606 22.6043 11.6942 22.2715C11.6467 22.1765 11.5992 22.0576 11.5516 21.9388C11.4803 21.7249 11.4328 21.5109 11.409 21.297C11.409 21.2019 11.409 21.1306 11.3853 21.0355C11.3853 21.0118 11.3853 21.0118 11.3853 20.988C11.3853 20.1799 11.718 19.443 12.2409 18.9201C12.2885 18.8726 12.336 18.825 12.4073 18.7775C12.7163 18.516 13.0491 18.3259 13.4294 18.207C13.6433 18.1357 13.881 18.0882 14.1187 18.0882C14.19 18.0882 14.2375 18.0882 14.3089 18.0882H24.6009C25.2189 18.0406 25.7418 18.207 26.1934 18.4685Z" fill="url(#paint0_linear)"/>
<path opacity="0.04" d="M25.8844 18.8725C24.6721 20.5363 23.4837 22.2239 22.2714 23.9115C22.2714 23.9115 22.2714 23.9353 22.2476 23.9353H21.8198L21.2018 22.0338C21.1305 21.7961 21.0829 21.5584 21.0592 21.3207C21.0116 20.7978 21.1305 20.2511 21.3682 19.7995C21.487 19.5618 21.6534 19.3241 21.8436 19.1102C22.0337 18.92 22.2239 18.7536 22.4616 18.611C22.5804 18.5397 22.6993 18.4684 22.8419 18.4209C22.9132 18.3971 23.0083 18.3496 23.0796 18.3258C24.0541 17.993 25.1238 18.2307 25.8844 18.8725Z" fill="url(#paint1_linear)"/>
<path d="M23.3649 17.9215C23.2698 17.9453 23.1985 17.9928 23.1272 18.0166C22.9846 18.0641 22.8657 18.1354 22.7469 18.2067C22.2715 18.4919 21.915 18.9198 21.6773 19.3952C21.4396 19.8706 21.3445 20.3935 21.3683 20.9164C21.3921 21.1541 21.4396 21.3918 21.5109 21.6295L22.2715 23.9351C23.5788 22.1049 24.8861 20.2746 26.1934 18.4682C25.4328 17.8264 24.3632 17.5887 23.3649 17.9215Z" fill="#15AEEF"/>
<defs>
<linearGradient id="paint0_linear" x1="11.4257" y1="20.9916" x2="26.1958" y2="20.9916" gradientUnits="userSpaceOnUse">
<stop stop-color="#15AEEF"/>
<stop offset="1" stop-color="#0882B6"/>
</linearGradient>
<linearGradient id="paint1_linear" x1="21.0352" y1="21.0543" x2="25.8796" y2="21.0543" gradientUnits="userSpaceOnUse">
<stop stop-color="#201600"/>
<stop offset="1" stop-color="#6085C3" stop-opacity="0"/>
</linearGradient>
</defs>
</svg>
