<svg width="241" height="207" viewBox="0 0 241 207" fill="none" xmlns="http://www.w3.org/2000/svg">
<circle cx="95" cy="86" r="86" fill="url(#paint0_linear)"/>
<path d="M166.782 124.577L156.996 130.222L155.874 130.874L131.238 145.092L130.376 142.445L198.306 103.221L199.178 105.878L181.802 115.904L166.782 124.577Z" fill="#C48B5E"/>
<path d="M198.176 90.2256L198.486 92.3913L184.84 102.659L181.822 102.528L198.176 90.2256Z" fill="#C48B5E"/>
<path d="M198.175 90.2257L181.822 102.528H181.802L127.127 70.9747L143.5 58.6621L198.175 90.2257Z" fill="#E0BE95"/>
<path d="M181.812 102.537L181.822 102.527L184.84 102.658L198.306 103.219L130.376 142.443L113.872 141.751L181.802 102.527L181.812 102.537Z" fill="#E0BE95"/>
<path d="M181.802 139.777L180.719 140.398C180.649 133.169 177.4 129.529 174.513 127.374C172.437 125.83 170.532 125.058 166.782 124.576L181.802 115.903V139.777Z" fill="#A26D42"/>
<path d="M180.719 140.399C180.749 143.046 180.358 146.164 179.365 149.874L169.579 155.519C173.289 141.682 168.677 135.957 164.727 133.02C162.651 131.475 160.746 130.703 156.996 130.222L166.782 124.577C170.532 125.058 172.437 125.83 174.512 127.375C177.4 129.52 180.639 133.17 180.719 140.399Z" fill="#DFE3E7"/>
<path d="M177.691 102.528L162.17 111.492C158.951 108.664 155.793 105.476 152.655 103.982C150.579 102.989 148.524 102.739 146.538 102.418V86.3052L127.127 75.1055C127.127 74.5139 127.127 73.9324 127.127 73.3408L177.691 102.528Z" fill="#D8AA7D"/>
<path d="M170.302 146.414C170.372 142.704 169.61 139.115 167.344 136.277C165.98 134.563 163.844 132.878 161.759 132.076C159.964 131.374 157.788 131.084 155.863 130.883L156.986 130.231C160.726 130.713 162.631 131.485 164.717 133.029C168.667 135.967 173.269 141.692 169.57 155.528L168.968 154.987C169.7 152.25 170.251 149.292 170.302 146.414Z" fill="#C8D1DD"/>
<path d="M127.128 113.627C133.595 109.898 140.062 106.158 146.529 102.428C148.504 102.749 150.57 103.009 152.645 103.992C155.784 105.486 158.942 108.664 162.161 111.502L113.863 139.386L101.279 132.116C107.807 128.346 114.344 124.576 120.871 120.806V114.79L107.275 106.94C107.426 106.849 107.576 106.759 107.726 106.679C108.759 106.087 109.792 105.486 110.835 104.884C110.915 104.834 111.005 104.784 111.085 104.744C114.474 103.049 118.074 109.948 122.626 112.334C124.1 113.096 125.604 113.377 127.128 113.627Z" fill="#DCE188"/>
<path d="M146.538 102.418C140.071 106.148 133.604 109.888 127.137 113.618V97.5151L146.538 86.3154V102.418Z" fill="#6B9A55"/>
<path d="M143.089 155.739V158.918L132.802 164.863V161.675L143.089 155.739Z" fill="#C49E70"/>
<path d="M143.089 151.327V154.506L132.802 160.441V157.263L143.089 151.327Z" fill="#C49E70"/>
<path d="M143.089 146.806V149.994L132.802 155.92V152.741L143.089 146.806Z" fill="#C49E70"/>
<path d="M131.589 153.533V165.555L115.917 174.609V162.577L131.589 153.533Z" fill="#C49E70"/>
<path d="M127.127 70.9746L181.792 102.538L113.872 141.752L59.2273 110.209L59.1973 110.188L127.127 70.9746ZM162.17 111.492L177.691 102.528L127.127 73.3409L63.3082 110.188L72.1215 115.282L96.0649 129.109L101.279 132.117L113.862 139.386L162.17 111.492Z" fill="#F0DFBE"/>
<path d="M111.095 104.745C111.015 104.785 110.925 104.835 110.845 104.885C109.812 105.486 108.779 106.088 107.736 106.68V86.3057L127.128 97.5154V113.628C125.604 113.377 124.1 113.097 122.626 112.325C118.084 109.938 114.484 103.05 111.095 104.745Z" fill="#81B66B"/>
<path d="M127.128 75.1055L146.539 86.3051L127.128 97.5148L107.736 86.3051L127.128 75.1055Z" fill="#99C567"/>
<path d="M127.127 73.3408C127.127 73.9324 127.127 74.5139 127.127 75.1055L107.735 86.3052V106.669C107.585 106.759 107.435 106.85 107.284 106.93L96.9367 100.954L72.121 115.282L63.3076 110.188L127.127 73.3408Z" fill="#C48B5E"/>
<path d="M110.624 52.5957L127.127 70.9744L59.2074 110.188L42.6836 91.8196L55.0263 84.6907L55.5677 84.3799L65.3536 78.7349L66.5468 78.0431L67.0381 77.7523L76.824 72.1074L110.624 52.5957Z" fill="#E0BE95"/>
<path d="M120.87 120.806C114.343 124.576 107.806 128.346 101.278 132.116L96.0645 129.108L120.87 114.78V120.806Z" fill="#C95B68"/>
<path d="M120.87 114.78L96.0645 129.108L72.1211 115.282L96.9268 100.964L107.274 106.94L120.87 114.78Z" fill="#D2898A"/>
<path d="M167.354 136.277C165.99 134.563 163.855 132.878 161.769 132.076C159.974 131.374 157.799 131.083 155.874 130.883L131.238 145.09L114.725 144.399L114.544 143.857L113.862 141.772V141.782V144.96V179L170.302 146.414C170.372 142.704 169.62 139.115 167.354 136.277ZM131.589 165.555L115.908 174.609V162.577L131.589 153.523V165.555ZM143.09 158.917L132.802 164.853V161.664L143.09 155.729V158.917ZM143.09 154.505L132.802 160.441V157.263L143.09 151.327V154.505ZM143.09 149.993L132.802 155.929V152.751L143.09 146.805V149.993Z" fill="#A26D42"/>
<path d="M113.872 141.751L130.376 142.443L131.238 145.09L114.734 144.398L114.554 143.857L113.872 141.771L113.882 141.761L113.872 141.751Z" fill="#D8AA7D"/>
<path d="M113.862 144.96V179L59.207 147.437V137.37L102.903 162.607L113.862 144.96Z" fill="#D8AA7D"/>
<path d="M113.862 141.782V144.961L102.903 162.607L101.539 161.625L113.862 141.782Z" fill="#C48B5E"/>
<path d="M66.4762 67.2446C67.6392 66.5729 69.1532 66.8837 70.577 67.4753C72.3617 68.2072 74.0161 69.3602 76.8236 72.0975L67.0376 77.7424C64.2302 75.0052 62.5758 73.8421 60.7911 73.1102C59.4175 72.5487 57.9636 72.2278 56.8105 72.8194C60.0291 70.9745 63.2476 69.1096 66.4762 67.2446Z" fill="#DFE3E7"/>
<path d="M65.1334 76.7402C65.1835 77.3618 65.2638 78.0236 65.354 78.7354L55.5681 84.3804C55.2272 81.7534 54.796 77.1512 56.0594 74.8251C57.0821 72.9501 58.8969 73.0805 60.8721 73.9026C62.4563 74.5443 63.85 75.5871 65.1334 76.7402Z" fill="#A5B3BF"/>
<path d="M113.862 141.753V141.783L101.539 161.626L59.2069 137.191L46.8643 130.062L58.2444 111.744L59.2069 110.189L59.227 110.21L113.862 141.753Z" fill="#E0BE95"/>
<path d="M42.6836 91.8193L59.2073 110.188L58.2448 111.742L41.8213 93.4737L42.6836 91.8193Z" fill="#D8AA7D"/>
<path d="M67.038 77.7525L66.5467 78.0332C66.0955 77.5921 65.6242 77.1509 65.1429 76.7298C63.8495 75.5868 62.4558 74.544 60.8716 73.8923C58.8964 73.0801 57.0716 72.9498 56.0589 74.8147C54.7955 77.1409 55.2267 81.7431 55.5676 84.37L55.0261 84.6808C53.9633 77.0406 54.956 73.8822 56.6906 72.8896C56.7307 72.8696 56.7708 72.8395 56.8109 72.8194C57.9639 72.2379 59.4178 72.5487 60.7914 73.1102C62.5761 73.8622 64.2305 75.0152 67.038 77.7525Z" fill="#C8D1DD"/>
<path d="M102.903 162.608L59.207 137.371V137.19L101.539 161.625L102.903 162.608Z" fill="#C48B5E"/>
<path d="M59.207 137.19V137.371L48.2279 131.034L46.8643 130.062L59.207 137.19Z" fill="#C48B5E"/>
<path d="M127.078 73.2812L127.97 75.5874C127.97 75.5874 126.446 76.0386 108.398 86.4963C110.143 92.6024 113.842 104.955 113.842 104.955L112.048 105.727L109.631 107.151L107.285 106.94L100.357 102.94L76.8344 116.596L74.5383 116.586L63.3086 110.189L127.078 73.2812Z" fill="#B0A7C2"/>
<path d="M127.127 113.629V97.5161L146.458 86.3164C146.458 86.3164 150.579 98.9499 151.632 103.382C150.348 104.294 153.387 102.409 138.196 111.252C137.535 111.633 136.833 111.754 136.101 111.884C133.504 112.315 127.127 113.629 127.127 113.629Z" fill="#B0A7C2"/>
<path d="M124.69 120.376L102.903 133.06L96.0645 129.109L120.87 114.781L120.85 118.782L124.69 120.376Z" fill="#B0A7C2"/>
<path d="M55.648 84.3207C55.5577 83.7692 55.4474 83.318 55.4073 82.8568C55.2469 80.7211 54.9862 77.2118 55.9488 75.1664C56.6406 73.6925 57.7636 73.1511 59.3678 73.492C61.8243 73.6223 65.1431 76.7406 65.1431 76.7406L65.3537 78.7359C65.3537 78.7359 56.8211 83.709 55.648 84.3207Z" fill="#B0A7C2"/>
<path d="M198.276 90.3262C198.346 90.4264 198.386 90.4565 198.396 90.4866C198.797 92.161 198.797 92.161 197.454 93.1637C193.664 96.0112 189.854 98.8487 186.084 101.726C185.392 102.248 184.7 102.539 183.838 102.448C183.387 102.398 182.935 102.418 182.524 102.408C182.484 102.248 182.464 102.208 182.474 102.168C182.504 101.987 182.855 101.756 197.895 90.4766C197.985 90.4264 198.106 90.4064 198.276 90.3262Z" fill="#B0A7C2"/>
<defs>
<linearGradient id="paint0_linear" x1="25.5431" y1="33.5186" x2="194.507" y2="64.913" gradientUnits="userSpaceOnUse">
<stop stop-color="#FEB692"/>
<stop offset="1" stop-color="#EA5455"/>
</linearGradient>
</defs>
</svg>
