<svg width="241" height="207" viewBox="0 0 241 207" fill="none" xmlns="http://www.w3.org/2000/svg">
<circle cx="86" cy="86" r="86" fill="url(#paint0_linear)"/>
<path d="M190.263 136.343L116.318 93.6679C116.653 92.0761 115.554 97.4165 120.409 73.4766L123.219 65.2393L182.694 99.5812C192.42 101.889 191.33 101.651 191.409 101.651L196.566 98.9286C196.566 98.849 196.503 99.239 199.042 86.7199L199.981 85.9797L200.506 86.0912C200.052 87.7466 199.718 89.8716 199.376 91.718C199.256 92.3467 195.006 112.777 190.263 136.343Z" fill="#596876"/>
<path d="M190.104 81.541L199.049 86.7142L182.694 99.5835L173.749 94.4103L190.104 81.541Z" fill="url(#paint1_linear)"/>
<path d="M186.602 115.507L173.789 108.113C172.125 107.15 170.008 108.105 169.618 109.992L168.13 117.282C167.891 118.468 168.432 119.677 169.483 120.282L182.297 127.668C183.96 128.631 186.077 127.676 186.467 125.79L187.955 118.492C188.194 117.322 187.653 116.112 186.602 115.507Z" fill="#84BF80"/>
<path d="M181.158 76.3759L190.104 81.5491L173.749 94.4104L164.787 89.2372C181.572 76.0257 181.071 76.3759 181.158 76.3759Z" fill="#C4260B"/>
<path d="M172.197 71.2012L181.143 76.3744L164.787 89.2357L155.842 84.0864L172.197 71.2012Z" fill="url(#paint2_linear)"/>
<path d="M172.197 71.2015L155.841 84.0867L146.88 78.9135L163.251 66.0283L172.197 71.2015Z" fill="#C4260B"/>
<path d="M164.875 105.187L163.379 112.485C162.989 114.371 160.872 115.318 159.208 114.355L146.395 106.954C145.344 106.349 144.803 105.139 145.042 103.945L146.538 96.6628C146.928 94.7766 149.045 93.8295 150.708 94.7925L163.522 102.186C164.572 102.783 165.122 103.993 164.875 105.187Z" fill="#EBD863"/>
<path d="M163.251 66.0285L146.88 78.9137L137.935 73.7485L154.282 60.8633L163.251 66.0285Z" fill="url(#paint3_linear)"/>
<path d="M164.278 138.254L161.636 139.766V135.349C162.519 135.858 163.395 136.367 164.278 136.877V138.254Z" fill="#A5B3BF"/>
<path d="M161.635 135.349V139.766L151.822 134.1C151.822 133.232 151.822 130.558 151.822 129.683C153.947 130.908 159.797 134.275 161.635 135.349Z" fill="#C8D1DD"/>
<path d="M151.823 134.1L161.636 139.766L164.278 138.254L171.202 142.257L163.801 146.523C161.23 148.012 157.497 148.012 155.412 146.802L139.606 137.689C138.731 137.172 138.173 136.551 138.126 135.524C138.11 135.389 138.126 135.278 138.142 135.15C138.221 134.641 138.516 134.179 138.882 133.805C139.526 133.105 139.479 133.216 147.517 128.568L151.815 131.059V134.1H151.823Z" fill="#DFE3E7"/>
<path d="M142.312 92.1649L140.823 99.4551C140.441 101.341 138.316 102.296 136.653 101.333L123.839 93.9317C122.789 93.3268 122.248 92.1171 122.486 90.9313L123.975 83.6411C124.357 81.7548 126.482 80.7998 128.145 81.7628L140.959 89.1644C142.009 89.7693 142.55 90.979 142.312 92.1649Z" fill="#CD7E8E"/>
<path d="M139.613 137.698L155.419 146.811C157.513 148.02 161.237 148.02 163.808 146.532L171.21 142.266V145.307C163.203 149.923 163.203 150.034 161.802 150.392C159.86 150.909 157.226 150.909 155.419 149.867C138.149 139.895 139.478 140.698 139.056 140.348C138.436 139.871 138.117 139.139 138.117 138.573C138.117 137.571 138.117 136.552 138.117 135.533H138.133C138.173 136.552 138.738 137.173 139.613 137.698Z" fill="#A5B3BF"/>
<path d="M132.244 38.507C132.825 38.3637 133.39 38.4831 133.884 38.7696L204.955 79.8049C206.452 80.6804 207.295 82.9327 206.905 84.6597C193.503 150.638 194.418 146.292 194.203 146.897C193.885 147.685 193.224 148.178 192.739 148.29C185.966 150.081 187.932 149.73 188.425 149.245H188.441C188.672 149.046 188.855 148.783 188.982 148.505C189.245 148.242 189.5 146.65 190.2 143.22C190.224 143.141 190.534 141.724 190.837 140.22C192.07 134.402 186.993 159.201 201.82 86.0207C201.987 85.2487 201.891 84.4369 201.82 84.2936C201.804 84.1106 201.772 83.9514 201.708 83.7843C201.676 83.6171 201.629 83.4421 201.541 83.2749C201.525 83.1953 201.493 83.1078 201.462 83.0282C200.896 81.7389 200.029 81.2454 199.329 80.8634C193.304 77.4332 128.735 40.0192 128.305 39.9236C127.978 39.8122 127.843 39.8122 127.549 39.8122C127.533 39.8122 127.517 39.8122 127.501 39.8281C127.437 39.8281 127.366 39.8281 127.318 39.8441C127.405 39.852 126.403 40.0669 132.244 38.507Z" fill="#A5B3BF"/>
<path d="M125.877 46.5783C126.514 43.7609 126.577 42.6547 126.896 42.0816C127.206 41.5404 127.684 41.3574 128.273 41.5404C128.742 41.6917 129.021 42.0339 130.191 42.6228C130.883 43.0128 131.567 43.4426 132.276 43.8564C134.783 45.3288 186.833 75.2855 186.913 75.3412C189.849 77.0842 192.802 78.867 195.675 80.4985C199.416 82.5837 199.742 82.7588 200.092 83.1726C200.801 83.9685 200.729 85.0589 200.506 86.0935L199.981 85.9821L199.042 86.7222C185.201 78.7237 137.759 51.3138 127.429 45.3766L125.877 46.5783Z" fill="#596876"/>
<path d="M116.318 93.6694L190.263 136.344C194.441 115.572 199.312 92.0538 199.376 91.7116C199.686 90.0243 199.949 88.3769 200.363 86.6419C200.673 85.4878 200.952 84.1189 200.1 83.1639C199.837 82.8535 199.495 82.6386 199.145 82.4396C197.967 81.7472 196.829 81.1264 195.683 80.4897C192.81 78.8662 189.857 77.0754 186.92 75.3325C186.825 75.2847 128.36 41.5715 128.272 41.5397C127.683 41.3566 127.206 41.5397 126.896 42.0808C126.577 42.6539 126.609 43.3145 125.877 46.5775L124.301 47.8271C124.412 47.2461 125.415 42.2798 125.598 41.5556C125.757 41.0383 126.044 40.5687 126.466 40.2265C126.482 40.2105 126.498 40.1946 126.514 40.1946C126.641 40.0912 126.832 39.9957 126.84 39.9957C127.007 39.924 127.142 39.8842 127.15 39.8842C127.15 39.8842 127.166 39.8842 127.182 39.8842C127.182 39.8842 127.198 39.8683 127.214 39.8842C127.309 39.8365 127.397 39.8365 127.492 39.8365C127.612 39.7967 127.89 39.8365 128.002 39.8524C128.694 39.9638 198.66 80.5295 199.861 81.1822C200.14 81.3732 200.562 81.6915 200.745 81.9382C201.151 82.3441 201.732 83.5141 201.811 84.302C201.946 84.7158 201.923 85.5197 201.811 86.029C188.425 152.007 189.292 147.868 188.99 148.497C188.902 148.585 188.576 149.436 187.613 149.675C187.151 149.842 186.602 149.691 186.148 149.492C186.069 149.468 123.306 113.224 123.203 113.152C114.337 108.027 114.711 108.369 114.17 107.74C114.058 107.661 113.986 107.573 113.923 107.478C113.891 107.446 113.859 107.398 113.827 107.351C113.716 107.199 113.628 107.04 113.549 106.889C113.119 106.149 113.008 105.512 112.928 104.987C112.824 103.944 112.912 103.841 113.421 101.326C113.437 101.23 113.469 101.127 113.485 101.031C113.581 100.609 115.188 92.5472 119.231 72.8175L120.409 73.494C115.801 96.2003 116.724 91.7434 116.318 93.6694Z" fill="url(#paint4_linear)"/>
<path d="M120.027 63.4028L119.176 65.8223C118.125 68.8227 114.599 70.1359 111.846 68.5362C109.745 67.3185 108.79 64.7717 109.593 62.4637L111.074 58.2217L120.027 63.4028Z" fill="#D5381D"/>
<path d="M118.531 67.6841L120.027 63.4023L128.989 68.5755L128.113 71.0666C127.079 74.0352 123.593 75.3245 120.871 73.7567C118.523 72.3957 117.775 69.8489 118.531 67.6841Z" fill="#F8EEBC"/>
<path d="M154.282 60.8626L137.934 73.7478L128.989 68.5747L145.336 55.6895L154.282 60.8626Z" fill="#C4260B"/>
<path d="M136.399 50.5165C136.319 50.5961 136.789 50.2141 120.035 63.4017L111.09 58.2285C128.042 44.8737 125.615 46.7759 127.429 45.3672L136.399 50.5165Z" fill="#C4260B"/>
<path d="M136.398 50.5166L145.344 55.6898L128.989 68.575L120.027 63.4018C136.812 50.1903 136.311 50.5962 136.398 50.5166Z" fill="url(#paint5_linear)"/>
<path d="M182.694 99.5832L199.042 86.7139C196.495 99.233 196.566 98.843 196.566 98.9226C193.486 100.554 191.186 101.772 189.38 102.735C186.658 104.183 183.315 102.6 182.694 99.5832Z" fill="#C4260B"/>
<path d="M173.749 94.4094L172.905 96.8288C171.854 99.8372 168.329 101.142 165.567 99.5507C163.458 98.333 162.503 95.7783 163.307 93.4702L164.787 89.2441L173.749 94.4094Z" fill="#D5381D"/>
<path d="M172.268 98.6512L173.749 94.4092L182.694 99.5824L181.843 102.002C180.792 105.002 177.266 106.315 174.513 104.716C172.411 103.506 171.456 100.959 172.268 98.6512Z" fill="#F8EEBC"/>
<path d="M164.787 89.2354L163.936 91.6628C162.885 94.6633 159.36 95.9685 156.606 94.3767C154.505 93.159 153.542 90.6202 154.354 88.3042L155.834 84.0781L164.787 89.2354Z" fill="#F8EEBC"/>
<path d="M155.842 84.0874L154.998 86.4909C153.947 89.4914 150.422 90.8046 147.66 89.2049C145.559 87.9872 144.596 85.4483 145.408 83.1323L146.88 78.9062L155.842 84.0874Z" fill="#D5381D"/>
<path d="M136.462 77.9584L137.942 73.7402L146.888 78.9134L146.052 81.309C145.002 84.3174 141.476 85.6306 138.722 84.0388C136.597 82.8212 135.65 80.2664 136.462 77.9584Z" fill="#F8EEBC"/>
<path d="M129.769 78.8818C127.652 77.6641 126.705 75.1093 127.508 72.8092L128.989 68.5752L137.934 73.7484L137.091 76.1678C136.04 79.1603 132.522 80.4656 129.769 78.8818Z" fill="#D5381D"/>
<g clip-path="url(#clip0)">
<path d="M92.5411 110.911V118.09C87.1848 121.186 90.0579 119.522 80.1016 125.277C80.1016 122.881 80.1016 120.493 80.1016 118.09L92.5411 110.911Z" fill="#9F3759"/>
<path d="M88.4108 120.478C88.4108 134.19 88.4108 130.068 88.4108 143.749L78.0405 149.734C78.0405 141.974 78.0405 134.222 78.0405 126.478C80.6749 124.942 78.7489 126.057 88.4108 120.478Z" fill="#8C3155"/>
<path d="M80.1094 125.277C77.6263 126.717 78.5813 126.168 75.9629 127.672C75.9629 125.277 75.9629 122.889 75.9629 120.493L80.1094 118.09C80.1094 120.493 80.1094 122.881 80.1094 125.277Z" fill="#E2AE4A"/>
<path d="M73.894 128.866C76.3772 127.426 75.4221 127.975 78.0406 126.471C78.0406 134.215 78.0406 141.974 78.0406 149.726L73.894 152.122C73.894 144.37 73.894 136.626 73.894 128.866Z" fill="#E2AE4A"/>
<path d="M75.9551 120.494C75.9551 122.89 75.9551 125.277 75.9551 127.673C73.281 129.225 75.6845 127.84 63.5156 134.86C63.5156 132.695 63.5156 130.912 63.5156 127.673L75.9551 120.494Z" fill="#9F3759"/>
<path d="M73.8937 152.129L63.5234 158.114V134.859L73.8937 128.874C73.8937 136.626 73.8937 144.37 73.8937 152.129Z" fill="#8C3155"/>
<path d="M80.1097 118.09C77.3401 116.499 74.5625 114.899 71.8008 113.291C73.5199 112.925 74.8888 112.217 75.9393 110.792C76.8307 109.678 77.3799 108.022 76.783 106.693C76.6636 106.407 76.5283 106.16 76.3452 105.905C77.6027 105.181 78.8681 104.457 80.1177 103.717L92.5572 110.904L80.1097 118.09Z" fill="#CD7E8E"/>
<path d="M72.7555 103.884C72.3894 103.852 71.8323 103.844 71.4741 103.932C72.9704 103.064 74.4746 102.197 75.9629 101.329L80.1094 103.725C78.8519 104.465 77.5864 105.189 76.3369 105.913C75.3659 104.6 73.9493 103.948 72.7555 103.884Z" fill="#E2AE4A"/>
<path d="M72.7559 101.337C73.4245 100.62 73.8304 100.302 73.9577 100.175L75.9633 101.337C74.475 102.204 72.9788 103.072 71.4746 103.939C71.204 103.971 70.6707 104.091 70.3604 104.226V104.21C71.005 103.374 71.6974 102.427 72.7559 101.337Z" fill="#CD7E8E"/>
<path d="M68.7842 110.266C70.1053 109.518 71.3946 108.754 72.7158 108.006C72.7715 108.046 72.8193 108.07 72.867 108.109C73.5753 108.627 74.0131 109.279 74.1245 109.598C72.5964 110.083 70.3521 110.266 68.7842 110.266Z" fill="#CD7E8E"/>
<path d="M66.6513 108.906C68.7365 107.569 70.6306 106.653 72.7158 107.998C71.3947 108.747 70.1054 109.511 68.7842 110.259C67.0253 110.322 66.0623 110.211 65.0356 110.115C65.2187 109.94 66.3648 109.113 66.6513 108.906Z" fill="#E2AE4A"/>
<path d="M63.5236 134.859V158.114L53.1533 152.129C53.1533 144.37 53.1533 136.626 53.1533 128.874L63.5236 134.859Z" fill="#9F3759"/>
<path d="M63.5235 134.86C51.4183 127.872 53.8298 129.265 51.084 127.673C51.084 125.277 51.084 122.89 51.084 120.494L63.5235 127.673C63.5235 130.904 63.5235 132.687 63.5235 134.86Z" fill="#BB426A"/>
<path d="M65.6962 113.769C66.5558 113.713 68.2669 113.88 70.7739 113.474C71.8006 113.331 71.5618 113.331 71.7926 113.291C74.5623 114.891 77.3399 116.499 80.1016 118.09L75.955 120.494C62.5446 112.726 64.3512 113.809 63.3882 113.228C63.3961 113.045 64.3114 113.872 65.6962 113.769Z" fill="#E2AE4A"/>
<path d="M61.542 107.783C65.0757 103.072 67.9249 97.7316 72.6842 95.7578C73.4642 95.4235 75.4777 96.3467 76.1861 96.8322C76.4248 96.9994 77.1093 97.5644 77.157 97.851C77.2844 98.3603 76.7591 98.0818 74.9047 99.4029C72.9787 100.812 71.6894 102.475 70.3523 104.202V104.218C70.3364 104.218 70.3125 104.218 70.3046 104.234C68.7526 104.775 67.4394 105.643 66.1262 106.598C65.1871 107.274 63.7625 108.5 63.6033 108.651C62.8552 109.304 62.6244 109.614 62.4811 109.765C62.513 109.662 62.4334 109.208 62.2981 108.993C62.1071 108.54 61.6295 107.919 61.542 107.783Z" fill="#F3E187"/>
<path d="M67.7972 108.213C66.5636 108.898 65.1629 109.996 65.0276 110.124C65.4176 110.155 66.2055 110.275 67.7335 110.275C69.7073 110.275 72.2382 110.195 74.1165 109.59C74.0767 109.463 73.8538 109.065 73.5593 108.739C72.9704 108.07 72.2462 107.656 71.3627 107.434C69.9859 107.187 69.0467 107.545 67.7972 108.213ZM61.6451 111.031C62.2659 109.718 63.595 108.699 63.9054 108.381C64.0407 108.285 67.2162 105.468 69.5561 104.529C70.734 103.971 71.88 103.804 72.7476 103.884C74.9282 104.011 76.8622 105.89 76.9975 107.569C77.2602 109.272 75.6764 111.572 74.2677 112.336C71.9676 113.944 66.0543 113.745 65.6802 113.769C64.4227 113.864 63.603 113.212 63.3801 113.212C62.9583 112.71 61.9157 112.264 61.2949 112.05C61.3666 111.683 61.478 111.357 61.6451 111.031Z" fill="#EBD863"/>
<path d="M59.4007 115.687L59.3848 115.671C59.6633 115.305 60.3239 114.597 60.7139 114.278C61.1436 113.904 61.3267 113.848 61.5177 113.737C61.5655 113.713 61.6212 113.697 61.6371 113.697L63.396 113.22V113.236L63.5233 113.315C63.4278 113.363 60.1249 115.257 59.4007 115.687Z" fill="#EBD863"/>
<path d="M59.7989 105.507C58.3505 103.661 55.939 100.852 53.8936 99.7134L63.5236 94.1582L69.6121 97.66C66.3967 100.414 64.5981 103.717 61.5419 107.784C61.3907 107.553 60.1889 105.985 59.7989 105.507Z" fill="#CD7E8E"/>
<path d="M49.0068 126.479C51.5059 127.903 50.5508 127.354 53.1533 128.874C53.1533 136.634 53.1533 144.378 53.1533 152.13L49.0068 149.734C49.0068 141.982 49.0068 134.222 49.0068 126.479Z" fill="#EBD863"/>
<path d="M56.3049 119.331C57.1645 118.639 58.4856 116.729 59.385 115.67L59.4009 115.686C60.1331 115.264 63.436 113.37 63.5235 113.307C66.0942 114.803 63.9294 113.522 75.963 120.493L63.5235 127.664L51.084 120.485C51.4819 120.239 51.8878 120.024 52.2858 119.785H52.3017C53.0657 119.976 53.8775 120.087 54.6654 120.016C55.2782 119.968 55.7796 119.809 56.3049 119.331Z" fill="#CD7E8E"/>
<path d="M51.084 120.493C51.084 122.889 51.084 125.277 51.084 127.672C48.585 126.248 49.54 126.797 46.9375 125.277C46.9375 122.881 46.9375 120.493 46.9375 118.09L51.084 120.493Z" fill="#EBD863"/>
<path d="M51.084 120.494L46.9375 118.09C49.3808 116.682 51.8242 115.273 54.2675 113.864V113.88C53.1214 115.217 51.9993 116.904 51.1158 117.684C51.076 117.708 51.0522 117.732 51.0124 117.772C50.4791 118.289 50.1608 118.894 50.2006 118.926C50.6781 119.244 51.2432 119.531 52.2937 119.801C51.8878 120.024 51.4819 120.247 51.084 120.494Z" fill="#EBD863"/>
<path d="M49.8188 102.499C51.8245 102.499 54.6418 105.468 55.9232 107.012C54.3553 106.2 50.6864 104.242 49.8188 102.499Z" fill="#E2AE4A"/>
<path d="M49.0068 126.479C49.0068 134.223 49.0068 141.983 49.0068 149.735L38.6445 143.75V120.494C48.4736 126.169 46.3008 124.911 49.0068 126.479Z" fill="#9F3759"/>
<path d="M49.8184 102.499C50.0174 102.889 50.5824 103.478 50.6939 103.613C52.3413 105.077 53.758 105.889 55.9148 107.011C54.6334 105.451 51.832 102.499 49.8184 102.499ZM56.7346 111.842C50.4551 108.866 43.6504 105.682 48.2505 100.469C48.5052 100.199 48.8554 99.8961 49.2693 99.6176C49.8025 99.2992 49.7627 99.347 50.081 99.2196C51.2908 98.7819 52.6358 99.0445 53.7421 99.6494C55.9785 100.764 58.8436 104.289 60.3319 106.207C60.7617 106.749 62.1704 108.555 62.3853 109.208C62.433 109.343 62.4728 109.502 62.4728 109.646C62.4728 109.821 62.5206 109.701 62.3296 109.956C61.852 110.569 61.4063 111.285 61.2949 112.065C61.279 112.049 61.279 112.049 61.271 112.049C59.8942 111.595 58.0955 111.301 56.7346 111.842Z" fill="#EBD863"/>
<path d="M46.9376 118.09C46.9376 120.493 46.9376 122.889 46.9376 125.277C36.9891 119.538 39.7269 121.114 34.498 118.09V110.911L46.9376 118.09Z" fill="#BB426A"/>
<path d="M56.7348 111.842C55.6683 112.296 55.0475 113.036 54.2676 113.856C51.8242 115.265 49.3809 116.673 46.9376 118.082L34.498 110.911L46.7386 103.836C46.7386 107.417 53.5194 110.322 56.7348 111.842Z" fill="#CD7E8E"/>
<path d="M56.926 111.763C58.8122 111.086 62.4812 112.121 63.3885 113.211C61.3192 113.776 61.6057 113.673 61.2794 113.856C59.5842 114.771 57.2762 118.965 55.6924 119.753C54.3314 120.438 51.5618 119.833 50.1849 118.909C50.1451 118.886 50.4714 118.273 50.9967 117.755C51.124 117.628 51.3946 117.453 52.1189 116.554C52.8272 115.686 53.4082 114.843 54.2518 113.864V113.848C55.1671 112.909 55.7083 112.256 56.926 111.763Z" fill="#F3E187"/>
<path d="M144.75 154.652V161.553C139.872 162.715 143.302 161.895 129.151 165.285C129.151 162.157 129.151 161.489 129.151 158.385L144.75 154.652Z" fill="#648F66"/>
<path d="M138.272 145.659C136.808 146.01 135.359 146.352 133.903 146.702C133.919 146.686 133.927 146.662 133.943 146.654C134.532 145.811 134.794 144.967 134.882 144.052C134.922 143.55 134.866 143.073 134.834 142.961H134.85C135.272 142.866 135.694 142.762 136.115 142.667L138.272 145.659Z" fill="#9ED2E9"/>
<path d="M129.152 165.286C127.727 165.628 128.817 165.366 123.955 166.536C123.955 164.227 123.955 161.935 123.955 159.635L129.152 158.386C129.152 161.49 129.152 162.158 129.152 165.286Z" fill="#82C2E8"/>
<path d="M128.077 165.548C129.55 165.19 127.329 165.723 141.066 162.437V177.908L128.077 181.02C128.077 175.863 128.077 170.714 128.077 165.548Z" fill="#72A368"/>
<path d="M125.458 145.214C126.557 144.37 128.427 143.232 129.812 143.232C130.536 143.168 131.475 143.439 131.833 143.678C131.205 143.829 127.576 144.704 125.458 145.214Z" fill="#84BF80"/>
<path d="M125.308 141.974C126.334 139.538 127.918 135.766 129.924 134.047L136.116 142.658C135.694 142.754 135.272 142.857 134.85 142.953H134.834C134.834 142.833 134.715 142.427 134.675 142.292C134.285 141.21 133.219 140.191 131.794 139.833C128.889 139.077 126.08 141.512 125.308 141.974Z" fill="#84BF80"/>
<path d="M129.152 158.393C127.194 155.679 125.244 152.973 123.294 150.251C123.421 150.251 123.533 150.235 123.628 150.227C126.278 149.893 130.433 149.296 132.685 147.832C133.155 147.506 133.537 147.187 133.903 146.702C135.351 146.352 136.808 146.009 138.272 145.659L144.751 154.653L129.152 158.393Z" fill="#84BF80"/>
<path d="M123.548 146.766C124.408 146.018 124.686 145.803 125.363 145.286C125.538 145.174 126.039 145.087 131.841 143.67H131.857C132.184 143.829 132.574 144.147 132.685 144.498H132.669C130.624 145.867 125.984 146.519 123.548 146.766Z" fill="#9ED2E9"/>
<path d="M122.872 166.789C124.297 166.463 123.182 166.726 128.069 165.548C128.069 170.713 128.069 175.862 128.069 181.02L122.872 182.269C122.872 177.112 122.872 171.955 122.872 166.789Z" fill="#82C2E8"/>
<path d="M121.463 150.785C121.758 150.698 122.18 150.642 122.259 150.339C122.777 150.292 123.047 150.284 123.302 150.252C125.252 152.966 127.202 155.672 129.159 158.394L123.962 159.643C122.761 157.98 121.567 156.317 120.373 154.653C120.461 154.383 120.922 152.218 121.463 150.785Z" fill="#9ED2E9"/>
<path d="M123.549 146.765C125.976 146.526 130.632 145.866 132.669 144.505H132.685C132.574 144.155 132.176 143.836 131.857 143.677H131.842C131.682 143.566 131.3 143.438 131.173 143.39C130.329 143.176 130.146 143.199 129.374 143.263C127.305 143.637 125.228 145.293 123.549 146.765ZM121.997 148.19C121.997 148.19 122.044 146.701 121.042 145.842C122.689 143.876 125.96 141.194 128.26 140.207C131.348 138.886 134.245 140.326 134.802 142.738C134.818 142.81 134.842 142.873 134.842 142.953C134.866 143.024 134.866 143.104 134.882 143.176C135.009 144.186 134.715 145.372 134.197 146.28C133.943 146.701 133.704 146.964 133.37 147.306C130.99 149.423 125.427 150.044 122.267 150.331C122.339 150.116 122.18 149.98 122.028 149.781C121.933 149.734 121.965 149.646 121.431 149.407C122.044 149.057 121.997 148.19 121.997 148.19Z" fill="#88ACFF"/>
<path d="M122.872 182.277L109.868 185.389V169.918L122.872 166.806C122.872 171.963 122.872 177.112 122.872 182.277Z" fill="#72A368"/>
<path d="M118.431 144.656C119.593 142.34 121.933 134.812 125.021 132.368C125.331 132.106 126.103 132.145 126.509 132.185C127.265 132.265 128.212 132.488 128.881 132.782C129.167 132.909 129.868 133.268 130.035 133.562C130.162 133.745 130.13 133.856 129.995 133.984C129.971 134.008 129.947 134.024 129.924 134.047C127.918 135.767 126.342 139.531 125.307 141.974C124.026 142.929 122.594 144.179 121.71 145.062C121.67 145.102 121.36 145.46 121.042 145.842C120.604 145.46 119.951 145.198 118.98 145.261C118.638 144.871 118.558 144.784 118.431 144.656Z" fill="url(#paint6_linear)"/>
<path d="M118.742 143.925C117.182 141.744 115.614 139.571 114.038 137.383L122.649 135.321C121.137 137.741 119.522 142.237 118.742 143.925Z" fill="#84BF80"/>
<path d="M114.189 156.729C114.093 156.682 115.574 151.19 115.606 151.087H115.622C115.693 150.8 115.948 150.076 116.139 149.781C116.171 149.686 116.171 149.694 116.354 149.487C116.481 149.407 116.489 149.336 116.823 149.2C116.943 149.137 117.134 149.105 117.428 149.025C119.434 148.659 121.519 149.304 121.949 149.734C121.973 149.757 121.997 149.781 122.02 149.797C122.156 149.98 122.331 150.124 122.259 150.346C122.188 150.649 121.758 150.713 121.463 150.792C120.62 153.029 120.174 156.339 119.505 157.008C118.845 157.653 115.415 157.645 114.189 156.729Z" fill="url(#paint7_linear)"/>
<path d="M123.955 159.643L108.355 163.375L101.877 154.382C106.453 153.276 111.022 152.185 115.598 151.079C115.558 151.23 115.51 151.389 115.463 151.565C115.033 153.148 114.698 154.629 114.507 155.202C114.523 155.202 114.133 156.706 114.181 156.73C115.367 157.613 118.63 157.645 119.37 157.088C119.521 157.016 119.705 156.786 119.728 156.682C119.935 156.324 120.286 154.987 120.365 154.661C121.559 156.316 122.753 157.979 123.955 159.643Z" fill="#84BF80"/>
<path d="M115.606 151.079C111.029 152.185 106.461 153.275 101.885 154.382L99.728 151.381C103.739 150.41 107.742 149.455 111.762 148.492C113.624 149.216 116.083 149.758 116.139 149.782C115.948 150.068 115.685 150.8 115.622 151.087H115.606V151.079Z" fill="#9ED2E9"/>
<path d="M110.377 138.265L114.038 137.382C115.614 139.563 117.174 141.735 118.742 143.924C118.487 144.529 118.495 144.521 118.431 144.656C116.704 142.69 112.932 138.814 110.377 138.265Z" fill="#9ED2E9"/>
<path d="M108.355 170.276L109.868 169.917V185.389L104.479 177.884C104.479 171.907 104.479 170.873 104.479 164.896L108.355 170.276Z" fill="#A2E79B"/>
<path d="M108.355 170.275V163.375L123.955 159.643C123.955 161.935 123.955 164.235 123.955 166.543L122.872 166.79V166.805C108.037 170.355 110.504 169.766 108.355 170.275Z" fill="#648F66"/>
<path d="M107.91 141.625C108.316 141.561 108.841 141.569 109.462 141.72C110.21 141.911 110.727 142.19 111.388 142.588C112.733 143.463 114.356 144.888 115.248 145.843C112.9 145.174 108.554 143.773 106.971 141.919C107.114 141.863 107.329 141.728 107.91 141.625Z" fill="#84BF80"/>
<path d="M107.528 141.711C107.209 141.799 107.09 141.87 106.971 141.926C107.154 142.133 107.146 142.165 107.528 142.499C107.711 142.642 107.997 142.881 108.244 143.032C109.947 144.17 113.266 145.285 115.24 145.85C114.611 145.181 113.218 143.908 112.072 143.072C110.783 142.109 109.056 141.25 107.528 141.711ZM104.933 141.528C105.578 138.822 107.758 137.573 110.353 138.249C110.369 138.249 110.369 138.249 110.377 138.265C113.131 138.862 117.126 143.152 118.972 145.261C117.357 145.356 116.839 146.399 116.712 147.386C116.585 148.317 116.808 149.2 116.808 149.2C116.473 149.336 116.457 149.399 116.338 149.487C116.163 149.702 116.163 149.686 116.123 149.781C116.115 149.773 116.131 149.797 115.128 149.535C113.21 149.057 109.955 147.943 108.355 147.099C105.801 145.754 104.36 144.369 104.933 141.528Z" fill="url(#paint8_linear)"/>
<path d="M111.754 148.484C107.735 149.455 103.723 150.41 99.7201 151.374L93.2417 142.364L106.071 139.284C104.67 140.852 104.511 143.12 105.204 144.394C106.095 146.367 109.708 147.808 111.754 148.484Z" fill="#84BF80"/>
<path d="M101.877 161.266C101.877 158.974 101.877 156.674 101.877 154.382L108.355 163.375V170.275C106.867 168.206 102.816 162.571 101.877 161.266Z" fill="#93D48B"/>
<path d="M104.487 177.885L102.331 174.884C102.331 173.269 102.331 163.543 102.331 161.896L104.487 164.896C104.487 170.873 104.487 171.908 104.487 177.885Z" fill="#C3E9F8"/>
<path d="M102.323 161.887C102.323 163.534 102.323 173.26 102.323 174.875L96.9268 167.37V154.397C102.315 161.863 98.805 157 102.323 161.887Z" fill="#A2E79B"/>
<path d="M99.7202 158.266C99.7202 155.974 99.7202 153.674 99.7202 151.382L101.877 154.382C101.877 156.674 101.877 158.974 101.877 161.267L99.7202 158.266Z" fill="#C3E9F8"/>
<path d="M96.9266 154.382L93.2417 149.272V142.372L99.7201 151.381C99.7201 153.673 99.7201 155.974 99.7201 158.266L96.9266 154.398V154.382Z" fill="#93D48B"/>
<path d="M116.815 149.193C116.815 149.193 116.593 148.31 116.72 147.379C116.847 146.4 117.365 145.357 118.98 145.254C119.951 145.19 120.604 145.453 121.042 145.835C122.044 146.694 121.997 148.182 121.997 148.182C121.997 148.182 122.044 149.05 121.424 149.408C119.8 148.771 117.524 148.843 116.815 149.193Z" fill="url(#paint9_linear)"/>
</g>
<defs>
<linearGradient id="paint0_linear" x1="16.5431" y1="33.5186" x2="185.507" y2="64.913" gradientUnits="userSpaceOnUse">
<stop stop-color="#FEB692"/>
<stop offset="1" stop-color="#EA5455"/>
</linearGradient>
<linearGradient id="paint1_linear" x1="135.414" y1="110.956" x2="181.825" y2="92.3913" gradientUnits="userSpaceOnUse">
<stop stop-color="#FFF7CC"/>
<stop offset="1" stop-color="#FFE4AD"/>
</linearGradient>
<linearGradient id="paint2_linear" x1="129.379" y1="95.8648" x2="175.79" y2="77.3005" gradientUnits="userSpaceOnUse">
<stop stop-color="#FFF7CC"/>
<stop offset="1" stop-color="#FFE4AD"/>
</linearGradient>
<linearGradient id="paint3_linear" x1="123.346" y1="80.783" x2="169.757" y2="62.2187" gradientUnits="userSpaceOnUse">
<stop stop-color="#FFF7CC"/>
<stop offset="1" stop-color="#FFE4AD"/>
</linearGradient>
<linearGradient id="paint4_linear" x1="112.886" y1="94.7826" x2="201.913" y2="94.7826" gradientUnits="userSpaceOnUse">
<stop stop-color="#E6ECED"/>
<stop offset="1" stop-color="#C8D1DD"/>
</linearGradient>
<linearGradient id="paint5_linear" x1="117.312" y1="65.6989" x2="163.723" y2="47.1345" gradientUnits="userSpaceOnUse">
<stop stop-color="#FFF7CC"/>
<stop offset="1" stop-color="#FFE4AD"/>
</linearGradient>
<linearGradient id="paint6_linear" x1="118.432" y1="139" x2="130.113" y2="139" gradientUnits="userSpaceOnUse">
<stop stop-color="#B5E1FF"/>
<stop offset="1" stop-color="#88ACFF"/>
</linearGradient>
<linearGradient id="paint7_linear" x1="114.184" y1="153.185" x2="122.272" y2="153.185" gradientUnits="userSpaceOnUse">
<stop stop-color="#B5E1FF"/>
<stop offset="1" stop-color="#88ACFF"/>
</linearGradient>
<linearGradient id="paint8_linear" x1="104.808" y1="143.923" x2="118.978" y2="143.923" gradientUnits="userSpaceOnUse">
<stop stop-color="#B5E1FF"/>
<stop offset="1" stop-color="#88ACFF"/>
</linearGradient>
<linearGradient id="paint9_linear" x1="116.682" y1="147.336" x2="121.994" y2="147.336" gradientUnits="userSpaceOnUse">
<stop stop-color="#B5E1FF"/>
<stop offset="1" stop-color="#88ACFF"/>
</linearGradient>
<clipPath id="clip0">
<rect width="127.149" height="93.3958" fill="white" transform="translate(34.498 94.1582)"/>
</clipPath>
</defs>
</svg>
