<svg width="18" height="18" viewBox="0 0 18 18" fill="none" xmlns="http://www.w3.org/2000/svg">
<circle cx="9" cy="9" r="8.5" stroke="#9B9B9B"/>
<path d="M10.6798 9.9002C10.1417 9.9002 9.88293 10.2002 8.9998 10.2002C8.11668 10.2002 7.8598 9.9002 7.3198 9.9002C5.92855 9.9002 4.7998 11.0289 4.7998 12.4202V12.9002C4.7998 13.3971 5.20293 13.8002 5.6998 13.8002H12.2998C12.7967 13.8002 13.1998 13.3971 13.1998 12.9002V12.4202C13.1998 11.0289 12.0711 9.9002 10.6798 9.9002ZM12.2998 12.9002H5.6998V12.4202C5.6998 11.5277 6.4273 10.8002 7.3198 10.8002C7.59355 10.8002 8.03793 11.1002 8.9998 11.1002C9.96918 11.1002 10.4042 10.8002 10.6798 10.8002C11.5723 10.8002 12.2998 11.5277 12.2998 12.4202V12.9002ZM8.9998 9.6002C10.4904 9.6002 11.6998 8.39082 11.6998 6.9002C11.6998 5.40957 10.4904 4.2002 8.9998 4.2002C7.50918 4.2002 6.2998 5.40957 6.2998 6.9002C6.2998 8.39082 7.50918 9.6002 8.9998 9.6002ZM8.9998 5.1002C9.99168 5.1002 10.7998 5.90832 10.7998 6.9002C10.7998 7.89207 9.99168 8.7002 8.9998 8.7002C8.00793 8.7002 7.1998 7.89207 7.1998 6.9002C7.1998 5.90832 8.00793 5.1002 8.9998 5.1002Z" fill="#9B9B9B"/>
</svg>
